<?xml version="1.0" encoding="UTF-8"?>
<svg width="12px" height="16px" viewBox="0 0 12 16" version="1.1" xmlns="http://www.w3.org/2000/svg" xmlns:xlink="http://www.w3.org/1999/xlink">
    <!-- Generator: sketchtool 51.1 (57501) - http://www.bohemiancoding.com/sketch -->
    <title>16656DE1-8032-49CA-BD97-DFDF6C511C3E</title>
    <desc>Created with sketchtool.</desc>
    <defs></defs>
    <g id="Page-1" stroke="none" stroke-width="1" fill="none" fill-rule="evenodd">
        <g id="Dashboard---Edit-profile-(add-language)-filled" transform="translate(-40.000000, -318.000000)">
            <g id="Side-nav">
                <g id="Group-2" transform="translate(37.000000, 127.000000)">
                    <g id="Group-19" transform="translate(1.000000, 188.000000)">
                        <g id="review" transform="translate(0.000000, 3.000000)">
                            <rect id="Rectangle-2" x="0" y="0" width="16" height="16"></rect>
                            <g id="Group-30" transform="translate(2.000000, 0.000000)" fill="#A6B2B8" fill-rule="nonzero">
                                <path d="M6.32240156,5.51214035 L5.65420663,5.51214035 C5.35956335,5.51214035 5.11984405,5.27242105 5.11984405,4.97774659 C5.11984405,4.68310331 5.35956335,4.44338402 5.65420663,4.44338402 L6.99047173,4.44338402 C7.24884211,4.44338402 7.45830799,4.23391813 7.45830799,3.97554776 C7.45830799,3.71717739 7.24884211,3.5077115 6.99047173,3.5077115 L6.45607797,3.5077115 L6.45607797,2.97338012 C6.45607797,2.71500975 6.24661209,2.50554386 5.98824172,2.50554386 C5.72987135,2.50554386 5.52040546,2.71500975 5.52040546,2.97338012 L5.52040546,3.51410526 C4.77233528,3.58194152 4.18417154,4.21233528 4.18417154,4.97777778 C4.18417154,5.78838207 4.84363353,6.44784405 5.65420663,6.44784405 L6.32240156,6.44784405 C6.61704483,6.44784405 6.85676413,6.68756335 6.85676413,6.98220663 C6.85676413,7.2768499 6.61707602,7.5165692 6.32240156,7.5165692 L4.98604288,7.5165692 C4.72767251,7.5165692 4.51820663,7.72603509 4.51820663,7.98440546 C4.51820663,8.24277583 4.72767251,8.45224172 4.98604288,8.45224172 L5.52040546,8.45224172 L5.52040546,8.98660429 C5.52040546,9.24497466 5.72987135,9.45444055 5.98824172,9.45444055 C6.24661209,9.45444055 6.45607797,9.24497466 6.45607797,8.98660429 L6.45607797,8.44587914 C7.20421053,8.37807407 7.79243665,7.74768031 7.79243665,6.98217544 C7.79243665,6.17160234 7.13300585,5.51214035 6.32240156,5.51214035 Z" id="Shape"></path>
                                <path d="M8.49381676,11.0243119 L3.48279142,11.0243119 C3.22442105,11.0243119 3.01495517,11.2337778 3.01495517,11.4921481 C3.01495517,11.7505185 3.22442105,11.9599844 3.48279142,11.9599844 L8.49381676,11.9599844 C8.75218713,11.9599844 8.96165302,11.7505185 8.96165302,11.4921481 C8.96165302,11.2337778 8.75218713,11.0243119 8.49381676,11.0243119 Z" id="Shape"></path>
                                <path d="M11.5004444,0 L0.476163743,0 C0.217793372,0 0.00832748538,0.209465887 0.00832748538,0.467836257 L0.00832748538,14.1229162 C0.00832748538,14.2469864 0.0576374269,14.3659727 0.14537232,14.4537388 L1.5234308,15.8317973 C1.70610526,16.0145029 2.00233918,16.0145029 2.18504483,15.8317973 L3.2322807,14.7845614 L4.27948538,15.8317973 C4.36722027,15.9195322 4.48620663,15.9688421 4.61030799,15.9688421 C4.73437817,15.9688421 4.85339571,15.9195634 4.9411306,15.8317973 L5.98830409,14.7845614 L7.03553996,15.8317973 C7.12327485,15.9195322 7.24226121,15.9688421 7.36633138,15.9688421 C7.49043275,15.9688421 7.6094191,15.9195322 7.697154,15.8317973 L8.74435867,14.7845614 L9.79159454,15.8317973 C9.88294737,15.9231501 10.0026511,15.9688421 10.122386,15.9688421 C10.2421209,15.9688421 10.3618558,15.9231813 10.4532086,15.8317973 L11.8312671,14.4537388 C11.9190019,14.3660039 11.9683119,14.2469864 11.9683119,14.1229162 L11.9683119,0.467836257 C11.9682807,0.209465887 11.758846,0 11.5004444,0 Z M10.122386,14.8393606 L9.0751501,13.7921248 C8.9874152,13.7043899 8.86839766,13.6550799 8.74432749,13.6550799 C8.62022612,13.6550799 8.50123977,13.7043899 8.41350487,13.7921248 L7.36630019,14.8393606 L6.31906433,13.7921248 C6.13638986,13.6094191 5.84015595,13.6094191 5.65745029,13.7921248 L4.61021442,14.8393606 L3.56300975,13.7921248 C3.47527485,13.7043899 3.3562885,13.6550799 3.23218713,13.6550799 C3.10811696,13.6550799 2.9891306,13.7043587 2.90139571,13.7921248 L1.85415984,14.8393606 L0.943937622,13.9291384 L0.943937622,0.935672515 L11.0326082,0.935672515 L11.032577,13.9291384 L11.0326082,13.9291384 L10.122386,14.8393606 Z" id="Shape"></path>
                            </g>
                        </g>
                    </g>
                </g>
            </g>
        </g>
    </g>
</svg>