<?xml version="1.0" encoding="UTF-8"?>
<svg width="14px" height="13px" viewBox="0 0 14 13" version="1.1" xmlns="http://www.w3.org/2000/svg" xmlns:xlink="http://www.w3.org/1999/xlink">
    <!-- Generator: sketchtool 51.1 (57501) - http://www.bohemiancoding.com/sketch -->
    <title>7DA87266-A43C-4FDA-9DBD-348B1E3FF188</title>
    <desc>Created with sketchtool.</desc>
    <defs></defs>
    <g id="Page-1" stroke="none" stroke-width="1" fill="none" fill-rule="evenodd">
        <g id="Dashboard---Edit-profile-(add-language)-filled" transform="translate(-39.000000, -226.000000)">
            <g id="Side-nav">
                <g id="Group-2" transform="translate(37.000000, 127.000000)">
                    <g id="Group-19" transform="translate(1.000000, 94.000000)">
                        <g id="Group-6-Copy-2" transform="translate(0.000000, 3.000000)">
                            <rect id="Rectangle-3" x="0" y="0" width="16" height="16"></rect>
                            <path d="M8.00033482,14.1478479 L8.58039054,13.563307 C13.1654978,9.46946118 14.4,7.95348995 14.4,5.88586957 C14.4,4.02578386 12.9873772,2.6 11.15,2.6 C10.1420733,2.6 9.11880028,3.08308697 8.45979788,3.86916408 L8,4.41762429 L7.54020212,3.86916408 C6.88119972,3.08308697 5.8579267,2.6 4.85,2.6 C3.01262278,2.6 1.6,4.02578386 1.6,5.88586957 C1.6,7.95348995 2.83450218,9.46946118 7.44622671,13.5885773 L8.00033482,14.1478479 Z" id="Shape" stroke="#A6B2B8" stroke-width="1.2" fill-rule="nonzero"></path>
                        </g>
                    </g>
                </g>
            </g>
        </g>
    </g>
</svg>