<?xml version="1.0" encoding="UTF-8"?>
<svg width="18px" height="18px" viewBox="0 0 18 18" version="1.1" xmlns="http://www.w3.org/2000/svg" xmlns:xlink="http://www.w3.org/1999/xlink">
    <!-- Generator: sketchtool 51.1 (57501) - http://www.bohemiancoding.com/sketch -->
    <title>0AB4D96C-2832-4CB5-8874-383C6C8ED3DF</title>
    <desc>Created with sketchtool.</desc>
    <defs></defs>
    <g id="Page-1" stroke="none" stroke-width="1" fill="none" fill-rule="evenodd">
        <g id="Dashboard---Edit-profile-(add-language)-filled" transform="translate(-37.000000, -545.000000)">
            <g id="Side-nav">
                <g id="Group-2" transform="translate(37.000000, 127.000000)">
                    <g id="Group-15" transform="translate(1.000000, 417.000000)">
                        <g id="review-copy" transform="translate(0.000000, 2.000000)">
                            <rect id="Rectangle-2" x="0" y="0" width="16" height="16"></rect>
                            <g id="technical-support" fill="#A6B2B8" fill-rule="nonzero" stroke="#A6B2B8" stroke-width="0.3">
                                <path d="M15.4429938,12.4301372 C15.4429605,12.430104 15.442894,12.4300374 15.4428607,12.4300042 L15.4425946,12.4302703 L12.0555177,9.04319335 C11.9516008,8.93930977 11.7831518,8.93930977 11.6792349,9.04319335 L10.925605,9.7970894 L9.98463202,8.85611642 L10.9543451,7.88746778 C12.2905281,8.18714345 13.6872183,7.78391684 14.6580956,6.81822869 C15.7428358,5.72537214 16.1072432,4.10850728 15.5961414,2.65596674 C15.5656383,2.56997921 15.4932557,2.50561331 15.4042744,2.48538877 C15.3152266,2.46559667 15.2222204,2.49234096 15.1573222,2.55644075 L13.2679252,4.44424116 L11.8575301,3.97402079 L11.3873098,2.56362578 L13.2751102,0.67422869 C13.3789272,0.570212058 13.3787609,0.401696466 13.274711,0.297879418 C13.246736,0.26993763 13.2128399,0.248615385 13.1755842,0.235409563 C11.0988773,-0.5044158 8.8156341,0.579359667 8.07580873,2.65603326 C7.82207069,3.36824948 7.77583368,4.13787942 7.94248649,4.87534304 L6.97383784,5.84505613 L3.58170478,2.45052807 L3.47525988,1.30331809 C3.46644491,1.20821622 3.40733472,1.12515593 3.32038254,1.08563825 L1.25056133,0.146261954 C1.14980457,0.100257796 1.0311185,0.121446985 0.952515593,0.199484407 L0.202079002,0.949920998 C0.12404158,1.02852391 0.102852391,1.14720998 0.148856549,1.24796674 L1.08823285,3.31832017 C1.12771726,3.40543867 1.2109106,3.46468191 1.30617879,3.47346362 L2.45338877,3.57990852 L5.84685239,6.97204158 L0.544565489,12.2737963 C-0.18152183,13.0018794 -0.18152183,14.1802245 0.544565489,14.9083077 L0.919783784,15.283526 C1.64793347,16.0094802 2.82614553,16.0094802 3.55429522,15.283526 L8.85791268,9.98283576 L9.79888565,10.9235426 L9.0449896,11.6777048 C8.94110603,11.7816216 8.94110603,11.9500707 9.0449896,12.0539875 L12.4320665,15.4407983 C13.1599834,16.1673181 14.3386611,16.1673181 15.066578,15.4407983 L15.4428607,15.0645156 C16.1703451,14.3370977 16.1704116,13.1576216 15.4429938,12.4301372 Z M2.76048233,3.13550104 C2.7165738,3.09155925 2.65869439,3.06434927 2.59682328,3.05859459 L1.50789189,2.95853638 L0.709555094,1.19687318 L1.19920166,0.706960499 L2.96086486,1.5052973 L3.06118919,2.59396258 C3.06687734,2.65580042 3.09398753,2.71367983 3.13782952,2.75762162 L6.59728898,6.22027443 L6.22286902,6.59469439 L2.76048233,3.13550104 Z M3.17907692,14.9083077 C2.65876091,15.4274927 1.81638254,15.4274927 1.29606653,14.9083077 L0.920848233,14.5330894 C0.401663202,14.0127734 0.401663202,13.170395 0.920848233,12.650079 L8.42521414,5.1457131 C8.49247401,5.07848649 8.5187526,4.98049064 8.49413721,4.88864865 C8.00475676,3.03843659 9.10792516,1.14182121 10.9581372,0.652440748 C11.4878337,0.51233264 12.04321,0.499825364 12.5786944,0.615950104 L10.8942037,2.30256965 C10.8229189,2.373921 10.7980707,2.47943451 10.8300707,2.57506861 L11.3942287,4.26754262 C11.4207734,4.34697713 11.4831767,4.40931393 11.5626778,4.43572557 L13.2551518,4.99961746 C13.3505863,5.03145114 13.4558337,5.00673597 13.5271185,4.93575052 L15.2140042,3.25125988 C15.6249148,5.11624116 14.4461372,6.96123077 12.5811559,7.37214137 C12.0393846,7.49152599 11.4768565,7.47878586 10.9410395,7.33501871 C10.849264,7.31000416 10.7511351,7.33634927 10.6842412,7.40394179 L3.17907692,14.9083077 Z M9.23419543,9.60655301 L9.53649896,9.30424948 L9.60834927,9.23239917 L10.5503867,10.1733721 L10.1751684,10.5485904 L9.23419543,9.60655301 Z M15.0663119,14.6882328 L15.0663119,14.6892973 L14.6900291,15.0645156 C14.1700457,15.5832349 13.3283326,15.5832349 12.8083493,15.0645156 L9.60941372,11.8658462 L11.8673763,9.60761746 L15.0663119,12.806553 C15.5859293,13.3261705 15.5859293,14.1686154 15.0663119,14.6882328 Z" id="Shape"></path>
                            </g>
                        </g>
                    </g>
                </g>
            </g>
        </g>
    </g>
</svg>