<?xml version="1.0" encoding="UTF-8"?>
<svg width="17px" height="15px" viewBox="0 0 17 15" version="1.1" xmlns="http://www.w3.org/2000/svg" xmlns:xlink="http://www.w3.org/1999/xlink">
    <!-- Generator: sketchtool 51.1 (57501) - http://www.bohemiancoding.com/sketch -->
    <title>2CC5DDC8-532B-4740-B62A-2DA8E99AA4A1</title>
    <desc>Created with sketchtool.</desc>
    <defs></defs>
    <g id="Page-1" stroke="none" stroke-width="1" fill="none" fill-rule="evenodd">
        <g id="Dashboard---Edit-profile-(add-language)-filled" transform="translate(-37.000000, -128.000000)">
            <g id="Side-nav">
                <g id="Group-2" transform="translate(37.000000, 127.000000)">
                    <g id="Group-9" transform="translate(1.000000, 0.000000)">
                        <g id="Group-10">
                            <rect id="Rectangle-2" x="0" y="0" width="16" height="16"></rect>
                            <g id="001-home" transform="translate(0.000000, 1.000000)" fill="#A6B2B8" fill-rule="nonzero" stroke="#A6B2B8" stroke-width="0.2">
                                <path d="M15.5147817,5.53470742 L8.09612664,0.102921397 C7.95306987,-0.00180349345 7.75872052,-0.00180349345 7.61572489,0.102921397 L0.197008734,5.53470742 C0.0158034934,5.66740175 -0.0235676856,5.92184716 0.109126638,6.1030524 C0.241820961,6.28425764 0.496296943,6.32356769 0.677471616,6.1909345 L7.8558952,0.935004367 L15.0343188,6.19090393 C15.1067031,6.24393886 15.1908253,6.26946288 15.274214,6.26946288 C15.3994192,6.26946288 15.5229738,6.21184279 15.6026332,6.10302183 C15.7353581,5.92184716 15.6959869,5.66740175 15.5147817,5.53470742 Z" id="Shape"></path>
                                <path d="M13.5490044,4.35045491 C13.3244541,4.35045491 13.1423624,4.53251605 13.1423624,4.75709683 L13.1423624,13.1622926 L9.88928821,13.1622926 L9.88928821,9.62909607 C9.88928821,8.50787336 8.97708734,7.59573362 7.85592576,7.59573362 C6.73476419,7.59573362 5.82256332,8.5079345 5.82256332,9.62909607 L5.82256332,13.1623231 L2.56945852,13.1623231 L2.56945852,4.7571274 C2.56945852,4.53254661 2.38736681,4.35048548 2.16281659,4.35048548 C1.93826638,4.35048548 1.75617467,4.53254661 1.75617467,4.7571274 L1.75617467,13.5689956 C1.75617467,13.7935764 1.93826638,13.9756376 2.16281659,13.9756376 L6.22920524,13.9756376 C6.44305677,13.9756376 6.61805677,13.8104192 6.63425764,13.6006638 C6.63523581,13.5911572 6.63584716,13.5807642 6.63584716,13.5689956 L6.63584716,9.62912664 C6.63584716,8.95636245 7.18316157,8.40904803 7.85592576,8.40904803 C8.52868996,8.40904803 9.07600437,8.95639301 9.07600437,9.62912664 L9.07600437,13.5689956 C9.07600437,13.5807031 9.07661572,13.5909127 9.07759389,13.6002969 C9.09361135,13.8102052 9.26867249,13.9756376 9.48264629,13.9756376 L13.5490349,13.9756376 C13.7736157,13.9756376 13.9556769,13.7935764 13.9556769,13.5689956 L13.9556769,4.7571274 C13.9556463,4.53251605 13.7735852,4.35045491 13.5490044,4.35045491 Z" id="Shape"></path>
                            </g>
                        </g>
                    </g>
                </g>
            </g>
        </g>
    </g>
</svg>