<?xml version="1.0" encoding="UTF-8"?>
<svg width="16px" height="17px" viewBox="0 0 16 17" version="1.1" xmlns="http://www.w3.org/2000/svg" xmlns:xlink="http://www.w3.org/1999/xlink">
    <!-- Generator: sketchtool 51.1 (57501) - http://www.bohemiancoding.com/sketch -->
    <title>7736BD99-7E96-4034-A703-D4FDC6FF5290</title>
    <desc>Created with sketchtool.</desc>
    <defs></defs>
    <g id="Page-1" stroke="none" stroke-width="1" fill="none" fill-rule="evenodd">
        <g id="Dashboard---Edit-profile-(add-language)-filled" transform="translate(-38.000000, -455.000000)">
            <g id="Side-nav">
                <g id="Group-2" transform="translate(37.000000, 127.000000)">
                    <g id="Group-27" transform="translate(2.000000, 326.000000)">
                        <g id="review-copy-3">
                            <rect id="Rectangle-2" x="0" y="2" width="16" height="16"></rect>
                            <g id="005-dollar" fill="#A6B2B8" fill-rule="nonzero">
                                <path d="M12.65625,11.4375 C12.267375,11.4375 11.8922812,11.60075 11.627125,11.8854062 L10.2494062,13.364375 C10.0713438,12.791875 9.5365625,12.375 8.90625,12.375 L7.17428125,12.375 C7.05809375,12.3236875 6.95103125,12.2552187 6.85515625,12.170875 C5.619375,11.083375 3.7555625,11.083375 2.5198125,12.170875 L1.22253125,13.3125 L0.46884375,13.3124687 C0.4688125,13.3124687 0.46878125,13.3124687 0.46875,13.3124687 C0.210125,13.3124687 0,13.5223125 0,13.7812187 L0,17.53125 C0,17.790125 0.209875,18 0.46875,18 L8.90625,18 C9.9335625,18 10.9148437,17.5093437 11.53125,16.6875 L13.781625,13.6870312 C13.965375,13.4421562 14.0625,13.1505312 14.0625,12.84375 C14.0625,12.0683437 13.4316562,11.4375 12.65625,11.4375 Z M13.0316875,13.1244687 L10.78125,16.125 C10.3409688,16.7120312 9.64003125,17.0625 8.90625,17.0625 L0.9375,17.0625 L0.9375,14.2499687 L1.39940625,14.25 C1.51340625,14.25 1.6235,14.2084375 1.70909375,14.133125 L3.139125,12.8746562 C4.02184375,12.0979062 5.35309375,12.0978437 6.235875,12.8746562 C6.43353125,13.0485937 6.84203125,13.3124687 7.08353125,13.3124687 L8.90625,13.3124687 C9.16471875,13.3124687 9.375,13.52275 9.375,13.7812187 C9.375,14.0396875 9.16471875,14.2499687 8.90625,14.2499687 L6.09375,14.2499687 C5.834875,14.2499687 5.625,14.4598437 5.625,14.7187187 C5.625,14.9775937 5.834875,15.1874687 6.09375,15.1874687 L9.2204375,15.1874687 C9.6093125,15.1874687 9.984375,15.0242812 10.2494375,14.73975 L12.313125,12.524375 C12.402875,12.4280312 12.5247187,12.3749687 12.65625,12.3749687 C12.9147188,12.3749687 13.125,12.58525 13.125,12.8437187 C13.125,12.9460312 13.09275,13.0430625 13.0316875,13.1244687 Z" id="Shape" stroke="#FFFFFF" stroke-width="0.2"></path>
                                <g id="002-key" transform="translate(9.500000, 6.500000) rotate(17.000000) translate(-9.500000, -6.500000) translate(5.000000, 2.000000)">
                                    <circle id="Oval" cx="6.37505121" cy="2.45302863" r="1"></circle>
                                    <path d="M8.87039337,2.9062002 C8.68334517,2.42992783 8.3403534,1.74273584 7.7685078,1.17360489 C7.19869382,0.606435503 6.5187876,0.273251508 6.04875017,0.0935941584 C5.5327213,-0.10362961 4.94633918,0.0206838887 4.55490403,0.410280082 L3.17939917,1.77933984 C2.7716586,2.18515389 2.65414048,2.80959365 2.88695245,3.33317101 C2.95914465,3.49555967 3.03765936,3.65439302 3.12155083,3.80784961 L0.102596291,6.82678664 C0.0369017387,6.89248119 0,6.98157428 0,7.0744854 L0,8.61570657 C0,8.80916486 0.156819254,8.96598411 0.350277539,8.96598411 L1.89149871,8.96598411 C2.084957,8.96598411 2.24177625,8.80916486 2.24177625,8.61570657 L2.24177625,7.985207 L2.87227582,7.98518949 C3.06573411,7.98518949 3.22255336,7.82837023 3.22255336,7.63491195 L3.22255336,7.00442989 L3.85305293,7.00442989 C4.04651121,7.00442989 4.20333047,6.84761064 4.20333047,6.65415235 C4.20333047,6.46069407 4.04651121,6.30387481 3.85305293,6.30387481 L2.87227582,6.30387481 C2.67881754,6.30387481 2.52199828,6.46069407 2.52199828,6.65415235 L2.52199828,7.28463441 L1.89149871,7.28465192 C1.69804043,7.28465192 1.54122117,7.44147118 1.54122117,7.63492946 L1.54122117,8.26542903 L0.700555078,8.26542903 L0.700555078,7.21957036 L3.80672873,4.11341422 C3.92084915,3.9992938 3.94223359,3.82200083 3.85853477,3.6840265 C3.73714609,3.48394797 3.62563524,3.27013856 3.52711968,3.04853548 C3.41154561,2.78861203 3.47042726,2.47810851 3.67364077,2.27584074 L5.04912813,0.906798493 C5.24551123,0.71136114 5.53970934,0.649029252 5.79868703,0.747982657 C6.20539428,0.903435829 6.79154872,1.18957755 7.27433625,1.67012331 C7.76008363,2.15357637 8.05580544,2.74840017 8.21833422,3.16225308 C8.31975708,3.42054774 8.25812575,3.71399275 8.06132231,3.90986795 L6.66921429,5.29546081 C6.46649116,5.49720316 6.16392142,5.55618989 5.89832348,5.44572987 C5.67927742,5.35462268 5.46713183,5.24638692 5.26782391,5.12405249 C5.10296579,5.02285731 4.88726488,5.07448822 4.7860697,5.23936386 C4.68487452,5.4042395 4.73648791,5.61994041 4.90136355,5.72113559 C5.13170606,5.8625076 5.37662011,5.98746911 5.6292753,6.09255238 C6.15717858,6.31215888 6.75935821,6.19413286 7.16340335,5.79199673 L8.55551138,4.40642139 C8.95036173,4.0134275 9.07395716,3.42455842 8.87039337,2.9062002 Z" id="Shape"></path>
                                </g>
                            </g>
                        </g>
                    </g>
                </g>
            </g>
        </g>
    </g>
</svg>