<?xml version="1.0" encoding="UTF-8"?>
<svg width="15px" height="18px" viewBox="0 0 15 18" version="1.1" xmlns="http://www.w3.org/2000/svg" xmlns:xlink="http://www.w3.org/1999/xlink">
    <!-- Generator: sketchtool 51.1 (57501) - http://www.bohemiancoding.com/sketch -->
    <title>7EFE80C7-1F07-4FA4-84B1-8FF3C977664E</title>
    <desc>Created with sketchtool.</desc>
    <defs></defs>
    <g id="Page-1" stroke="none" stroke-width="1" fill="none" fill-rule="evenodd">
        <g id="Dashboard---Edit-profile-(add-language)-filled" transform="translate(-39.000000, -270.000000)">
            <g id="Side-nav">
                <g id="Group-2" transform="translate(37.000000, 127.000000)">
                    <g id="Group-19" transform="translate(1.000000, 141.000000)">
                        <g id="Group-7" transform="translate(0.000000, 3.000000)">
                            <rect id="Rectangle-3" x="0" y="0" width="16" height="16"></rect>
                            <path d="M11.6,11.2 L5.2,11.2 L5.2,6.4 C5.2,4.2672 6.8,3.2 8.3992,3.2 L8.4008,3.2 C10,3.2 11.6,4.2672 11.6,6.4 L11.6,11.2 Z M9.2,13.6 C9.2,14.0416 8.8416,14.4 8.4,14.4 C7.9584,14.4 7.6,14.0416 7.6,13.6 L7.6,12.8 L9.2,12.8 L9.2,13.6 Z M14,11.2 C13.5584,11.2 13.2,10.8416 13.2,10.4 L13.2,6.4 C13.2,3.5576 11.3056,1.98 9.2,1.6632 L9.2,0.8 C9.2,0.3584 8.8416,0 8.4,0 C7.9584,0 7.6,0.3584 7.6,0.8 L7.6,1.6632 C5.4944,1.98 3.6,3.5576 3.6,6.4 L3.6,10.4 C3.6,10.8416 3.2416,11.2 2.8,11.2 C2.3584,11.2 2,11.5584 2,12 C2,12.4416 2.3584,12.8 2.8,12.8 L6,12.8 L6,13.6 C6,14.9256 7.0744,16 8.4,16 C9.7256,16 10.8,14.9256 10.8,13.6 L10.8,12.8 L14,12.8 C14.4416,12.8 14.8,12.4416 14.8,12 C14.8,11.5584 14.4416,11.2 14,11.2 L14,11.2 Z" id="notification_bell-[#1397]" stroke="#FFFFFF" stroke-width="0.5" fill="#A6B2B8"></path>
                        </g>
                    </g>
                </g>
            </g>
        </g>
    </g>
</svg>