<?xml version="1.0" encoding="UTF-8"?>
<svg width="16px" height="18px" viewBox="0 0 16 18" version="1.1" xmlns="http://www.w3.org/2000/svg" xmlns:xlink="http://www.w3.org/1999/xlink">
    <!-- Generator: sketchtool 51.1 (57501) - http://www.bohemiancoding.com/sketch -->
    <title>D474CAB3-C422-426F-8330-6BF53055E1C1</title>
    <desc>Created with sketchtool.</desc>
    <defs></defs>
    <g id="Page-1" stroke="none" stroke-width="1" fill="none" fill-rule="evenodd">
        <g id="Dashboard---Edit-profile-(add-language)-filled" transform="translate(-37.000000, -363.000000)">
            <g id="Side-nav">
                <g id="Group-2" transform="translate(37.000000, 127.000000)">
                    <g id="Group-18" transform="translate(1.000000, 235.000000)">
                        <g id="review-copy-3" transform="translate(0.000000, 2.000000)">
                            <rect id="Rectangle-2" x="0" y="0" width="16" height="16"></rect>
                            <g id="005-dollar" fill="#A6B2B8" fill-rule="nonzero" stroke="#FFFFFF" stroke-width="0.2">
                                <path d="M12.65625,9.4375 C12.267375,9.4375 11.8922812,9.60075 11.627125,9.88540625 L10.2494062,11.364375 C10.0713438,10.791875 9.5365625,10.375 8.90625,10.375 L7.17428125,10.375 C7.05809375,10.3236875 6.95103125,10.2552188 6.85515625,10.170875 C5.619375,9.083375 3.7555625,9.083375 2.5198125,10.170875 L1.22253125,11.3125 L0.46884375,11.3124688 C0.4688125,11.3124688 0.46878125,11.3124688 0.46875,11.3124688 C0.210125,11.3124688 0,11.5223125 0,11.7812188 L0,15.53125 C0,15.790125 0.209875,16 0.46875,16 L8.90625,16 C9.9335625,16 10.9148437,15.5093438 11.53125,14.6875 L13.781625,11.6870313 C13.965375,11.4421563 14.0625,11.1505313 14.0625,10.84375 C14.0625,10.0683438 13.4316562,9.4375 12.65625,9.4375 Z M13.0316875,11.1244687 L10.78125,14.125 C10.3409688,14.7120312 9.64003125,15.0625 8.90625,15.0625 L0.9375,15.0625 L0.9375,12.2499687 L1.39940625,12.25 C1.51340625,12.25 1.6235,12.2084375 1.70909375,12.133125 L3.139125,10.8746562 C4.02184375,10.0979062 5.35309375,10.0978437 6.235875,10.8746562 C6.43353125,11.0485937 6.84203125,11.3124687 7.08353125,11.3124687 L8.90625,11.3124687 C9.16471875,11.3124687 9.375,11.52275 9.375,11.7812187 C9.375,12.0396875 9.16471875,12.2499687 8.90625,12.2499687 L6.09375,12.2499687 C5.834875,12.2499687 5.625,12.4598437 5.625,12.7187187 C5.625,12.9775937 5.834875,13.1874687 6.09375,13.1874687 L9.2204375,13.1874687 C9.6093125,13.1874687 9.984375,13.0242812 10.2494375,12.73975 L12.313125,10.524375 C12.402875,10.4280312 12.5247187,10.3749687 12.65625,10.3749687 C12.9147188,10.3749687 13.125,10.58525 13.125,10.8437187 C13.125,10.9460312 13.09275,11.0430625 13.0316875,11.1244687 Z" id="Shape"></path>
                                <path d="M8.90625,0 C6.58003125,0 4.6875,1.89253125 4.6875,4.21875 C4.6875,6.54496875 6.58003125,8.4375 8.90625,8.4375 C11.2324687,8.4375 13.125,6.54496875 13.125,4.21875 C13.125,1.89253125 11.2324688,0 8.90625,0 Z M8.90625,7.5 C7.09696875,7.5 5.625,6.02803125 5.625,4.21875 C5.625,2.40946875 7.09696875,0.9375 8.90625,0.9375 C10.7155312,0.9375 12.1875,2.40946875 12.1875,4.21875 C12.1875,6.02803125 10.7155312,7.5 8.90625,7.5 Z" id="Shape"></path>
                                <path d="M8.90625,3.75 C8.64778125,3.75 8.4375,3.53971875 8.4375,3.28125 C8.4375,3.02278125 8.64778125,2.8125 8.90625,2.8125 C9.16471875,2.8125 9.375,3.02278125 9.375,3.28125 C9.375,3.540125 9.584875,3.75 9.84375,3.75 C10.102625,3.75 10.3125,3.540125 10.3125,3.28125 C10.3125,2.67015625 9.92059375,2.149125 9.375,1.955625 C9.375,1.69521209 9.165125,1.48533709 8.90625,1.48533709 C8.647375,1.48533709 8.4375,1.69521209 8.4375,1.95408709 C7.89190625,2.149125 7.5,2.67015625 7.5,3.28125 C7.5,4.05665625 8.13084375,4.6875 8.90625,4.6875 C9.16471875,4.6875 9.375,4.89778125 9.375,5.15625 C9.375,5.41471875 9.16471875,5.625 8.90625,5.625 C8.64778125,5.625 8.4375,5.41471875 8.4375,5.15625 C8.4375,4.897375 8.227625,4.6875 7.96875,4.6875 C7.709875,4.6875 7.5,4.897375 7.5,5.15625 C7.5,5.76734375 7.89190625,6.288375 8.4375,6.481875 L8.4375,6.49913225 C8.4375,6.75800725 8.647375,6.96788225 8.90625,6.96788225 C9.165125,6.96788225 9.375,6.75800725 9.375,6.49913225 L9.375,6.481875 C9.92059375,6.288375 10.3125,5.76734375 10.3125,5.15625 C10.3125,4.38084375 9.68165625,3.75 8.90625,3.75 Z" id="Shape"></path>
                            </g>
                        </g>
                    </g>
                </g>
            </g>
        </g>
    </g>
</svg>