<?xml version="1.0" encoding="UTF-8"?>
<svg width="26px" height="23px" viewBox="0 0 26 23" version="1.1" xmlns="http://www.w3.org/2000/svg" xmlns:xlink="http://www.w3.org/1999/xlink">
    <!-- Generator: sketchtool 51.1 (57501) - http://www.bohemiancoding.com/sketch -->
    <title>41C2DB35-D372-4D0E-946A-E4E7C8B5CB95</title>
    <desc>Created with sketchtool.</desc>
    <defs></defs>
    <g id="Page-1" stroke="none" stroke-width="1" fill="none" fill-rule="evenodd">
        <g id="Listing-Details-page-" transform="translate(-172.000000, -842.000000)" fill="#424242" fill-rule="nonzero" stroke="#424242" stroke-width="0.7">
            <g id="House-feature" transform="translate(173.000000, 841.000000)">
                <g id="001-home" transform="translate(0.000000, 2.000000)">
                    <path d="M23.7447491,8.05618 L12.368395,0.114831954 C12.1490204,-0.0382773181 11.8509897,-0.0382773181 11.6317089,0.114831954 L0.255261012,8.05618 C-0.0226134781,8.25018097 -0.0829883673,8.62218377 0.120495634,8.8871084 C0.323979635,9.15203302 0.714213294,9.20950486 0.992040909,9.01559327 L12.0000051,1.33134903 L23.0079692,9.01554857 C23.118969,9.0930864 23.2479688,9.13040287 23.3758436,9.13040287 C23.5678432,9.13040287 23.7573116,9.04616149 23.8794676,8.88706371 C24.0829985,8.62218377 24.0226236,8.25018097 23.7447491,8.05618 Z" id="Shape"></path>
                    <path d="M20.6153507,9.73686196 C20.2755383,9.73686196 19.9999784,10.0177772 19.9999784,10.3642991 L19.9999784,19.7450314 L15.0770927,19.7450314 L15.0770927,14.2934079 C15.0770927,12.5633926 13.6966567,11.1559865 12,11.1559865 C10.3033433,11.1559865 8.92290731,12.563487 8.92290731,14.2934079 L8.92290731,19.7450786 L3.99997533,19.7450786 L3.99997533,10.3643462 C3.99997533,10.0178244 3.72441548,9.73690913 3.38460305,9.73690913 C3.04479062,9.73690913 2.76923077,10.0178244 2.76923077,10.3643462 L2.76923077,20.3725629 C2.76923077,20.7190848 3.04479062,21 3.38460305,21 L9.53827959,21 C9.86190167,21 10.1267296,20.7450727 10.1512464,20.4214259 C10.1527267,20.4067576 10.1536519,20.3907214 10.1536519,20.3725629 L10.1536519,14.2934551 C10.1536519,13.2553988 10.9819042,12.4109079 12,12.4109079 C13.0180958,12.4109079 13.8463481,13.2554459 13.8463481,14.2934551 L13.8463481,20.3725629 C13.8463481,20.3906271 13.8472733,20.4063802 13.8487536,20.4208599 C13.8729928,20.7447426 14.1379133,21 14.4617204,21 L20.615397,21 C20.9552556,21 21.2307692,20.7190848 21.2307692,20.3725629 L21.2307692,10.3643462 C21.230723,10.0177772 20.9552094,9.73686196 20.6153507,9.73686196 Z" id="Shape"></path>
                </g>
            </g>
        </g>
    </g>
</svg>