<?xml version="1.0" encoding="UTF-8"?>
<svg width="161px" height="111px" viewBox="0 0 161 111" version="1.1" xmlns="http://www.w3.org/2000/svg" xmlns:xlink="http://www.w3.org/1999/xlink">
    <!-- Generator: sketchtool 51.2 (57519) - http://www.bohemiancoding.com/sketch -->
    <title>6387932D-8046-4715-BF39-6FA6750BB065</title>
    <desc>Created with sketchtool.</desc>
    <defs></defs>
    <g id="Page-1" stroke="none" stroke-width="1" fill="none" fill-rule="evenodd">
        <g id="Homepage" transform="translate(-495.000000, -2629.000000)">
            <g id="how-swagi-works" transform="translate(0.000000, 2435.000000)">
                <g id="illustrasi" transform="translate(229.000000, 165.000000)">
                    <g id="connect" transform="translate(266.000000, 29.000000)">
                        <path d="M122.713226,10.3875462 C120.699322,11.7669944 119.475158,14.2257592 119.040737,17.7638406 C118.389104,23.0709627 118.620047,21.1900815 118.368265,23.2406852 C118.116482,25.2912889 116.377731,26.8836346 116.377731,27.9154296 C116.377731,28.603293 117.465257,29.1935428 119.64031,29.686179 C119.64031,30.732704 119.64031,31.3895887 119.64031,31.6568331 C119.64031,31.9240775 120.012695,32.2358626 120.757466,32.5921885 C120.440941,32.9733178 120.282679,33.2911417 120.282679,33.5456602 C120.282679,33.9274379 121.216145,34.1765661 121.216145,35.3218992 C121.216145,36.4672324 121.707498,38.4715654 121.707498,38.4715654 C121.707498,38.4715654 122.733826,39.1525066 124.242104,38.782776 C127.334054,38.0248332 127.964471,38.5156289 128.836635,39.4773946 C129.644458,40.3682093 130.765016,43.7547513 132.198311,49.6370205 L147.242419,49.3580151 C144.279364,39.7238616 142.797837,33.8234676 142.797837,31.6568331 C142.797837,28.4068813 146.092607,16.7901697 140.977122,11.6569947 C137.566798,8.23487802 131.478833,7.81172853 122.713226,10.3875462 Z" id="Path-74" fill="#F4B895" transform="translate(131.810075, 29.182643) rotate(-7.000000) translate(-131.810075, -29.182643) "></path>
                        <path d="M22.8457965,38.6370586 C23.5829678,35.0371132 23.5829678,30.6243791 22.8457965,25.3988564 C21.7400396,17.5605722 25.5917792,7.72040482 33.3225758,6.40264192 C41.0533723,5.08487901 49.7028616,10.7508438 49.7028616,18.0748501 C49.7028616,21.0330873 50.0846784,23.5832524 50.5398729,25.5723782 C51.2116494,28.5079316 52.0432418,30.2215479 52.0432418,30.2215479 C52.0432418,30.2215479 49.8314337,32.0267469 48.4388452,32.0267469 C47.0462566,32.0267469 46.8986811,33.1575641 46.8986811,34.2942014 C46.8986811,35.0519596 46.4606145,35.4961627 45.5844814,35.6268106 C45.5844814,36.7242536 45.5844814,37.272975 45.5844814,37.272975 C45.5844814,37.272975 44.3278854,41.8907868 42.8557204,41.8907868 C41.3835553,41.8907868 38.7854424,40.5249217 38.7854424,40.5249217 C38.7854424,40.5249217 37.967309,42.1029908 36.3310421,45.2591289 L28.7974053,41.8907868 L22.8457965,38.6370586 Z" id="Path-12" fill="#E09467"></path>
                        <path d="M23.8434719,32.0417116 C21.5092282,32.0674453 20.3421064,31.5365395 20.3421064,30.4489941 C20.3421064,28.8176761 17.1548898,28.1139587 17.1548898,24.7319579 C17.1548898,21.3499571 19.8266407,20.709782 17.1548898,16.5718046 C14.4831389,12.4338272 16.8407408,9.966956 20.3421064,9.966956 C23.8434719,9.966956 26.4350525,7.33380561 26.4350525,4.38947551 C26.4350525,1.44514541 29.9815509,-0.255653581 33.2346853,2.06691096 C36.4878197,4.38947551 40.9167858,3.74395578 43.2684492,2.06691096 C45.6201126,0.389866148 52.2415891,0.100065203 52.2415891,4.38947551 C52.2415891,8.67888582 51.1801466,8.15718358 54.7076417,8.15718358 C58.2351368,8.15718358 55.8106164,21.2670672 47.8096161,18.9118407 C39.8086158,16.5566142 41.2962588,15.4883016 38.9089641,16.483164 C36.5216694,17.4780264 35.7953855,20.1871902 36.3197589,21.8119758 C36.6693412,22.8951662 35.748471,24.2539051 33.5571483,25.8881924 C33.3975994,23.1707147 32.628162,21.8119758 31.2488362,21.8119758 C29.1798475,21.8119758 27.220128,25.1197448 28.1999877,27.1833888 C28.8532276,28.5591515 29.4934026,29.299292 30.1205129,29.4038104 L29.9884492,29.5331943 C28.3472106,31.1411304 26.141106,32.0417116 23.8434719,32.0417116 Z" id="Path-26" fill="#1D5060"></path>
                        <path d="M39.2373656,109.824167 C40.3356003,87.737138 40.8847177,73.6402224 40.8847177,67.5334197 C40.8847177,61.4266169 39.741152,53.9169322 37.4540208,45.0043654 C33.6592912,43.7054079 30.886585,42.485631 29.1359023,41.3450346 C27.3852195,40.2044383 25.356019,38.9577399 23.0483009,37.6049396 C15.0217648,45.3662207 10.6238771,50.8799608 9.85463772,54.14616 C9.08539832,57.4123592 5.89125347,75.9716947 0.272203172,109.824167 L39.2373656,109.824167 Z" id="Path-27" fill="#6DC7BE"></path>
                        <path d="" id="Path-36" stroke="#979797"></path>
                        <path d="" id="Path-37" stroke="#979797"></path>
                        <g id="Group-3" transform="translate(56.500000, 76.000000) scale(-1, 1) translate(-56.500000, -76.000000) translate(16.000000, 48.000000)">
                            <path d="M17.4569146,44.325454 C15.141182,43.4557729 13.5159616,43.0209324 12.5812537,43.0209324 C11.1791917,43.0209324 9.29752164,44.1006162 9.29752164,44.8782827 C9.29752164,45.6559492 11.723841,45.7289084 11.723841,45.7289084 C11.723841,45.7289084 5.31473815,49.7959627 4.55686682,49.7959627 C3.7989955,49.7959627 1.44014416,49.0120749 1.44014416,49.7959627 C1.44014416,50.0892592 0.417983928,51.7647379 1.44014416,52.4830548 C3.1498915,53.6845694 5.19086675,55.0931346 6.77166094,55.6768179 C8.45556807,56.2985741 12.636581,55.35687 19.3146998,52.8517056 L17.4569146,44.325454 Z" id="Path-39" fill="#E09467"></path>
                            <path d="M65.1865729,5.55267898 C52.8245981,22.0327983 46.6436107,30.272858 46.6436107,30.272858 C46.6436107,30.272858 16.7829149,43.9846732 16.7829149,43.9846732 C16.7829149,43.9846732 17.8937054,53.1288998 18.9388892,53.1288998 C19.9840729,53.1288998 50.5059266,45.1395786 54.0520857,42.4491354 C57.5982448,39.7586922 78.1128036,15.9332538 79.5685952,13.5080656 C81.0243868,11.0828773 80.217876,5.13867763 78.3610912,3.09242505 C77.5253325,2.17138476 74.5491116,0.284907689 70.8287552,1.27183714 C68.6242234,1.85665137 66.7434959,3.28359865 65.1865729,5.55267898 Z" id="Path-38" fill="#50ACA3"></path>
                        </g>
                        <path d="M37.9694054,45.5632929 C36.0015614,46.7294988 35.0176394,48.1612643 35.0176394,49.8585897 C35.0176394,52.4045777 26.8933572,44.737886 24.1437107,42.5725394 C22.310613,41.1289749 21.9108199,39.148306 22.9443313,36.6305327 L23.3968942,37.015456 C27.7193601,40.6918908 32.6510429,43.5846812 37.9694054,45.5632929 Z" id="Path-40" fill="#ECECEC"></path>
                        <path d="M78.4855486,101.334671 C77.8381505,101.151866 77.8381505,100.750958 78.4855486,100.131945 C79.4566458,99.2034265 82.1731475,97.7327654 83.1550176,98.4945611 C83.8122326,99.0044693 86.1301518,101.042996 87.1866753,101.941381 C87.708583,102.38517 86.9497606,105.222856 83.1550176,103.710551 C80.6251889,102.702347 79.0686992,101.910387 78.4855486,101.334671 Z" id="Path-41" fill="#F4B895"></path>
                        <path d="M87.5353386,92.815675 C84.6276137,93.9042156 83.1737513,94.4484859 83.1737513,94.4484859 C83.1737513,94.4484859 83.7488173,97.114771 87.0668609,95.7971465 C89.27889,94.9187302 90.4330645,93.986348 90.5293845,93 L87.5353386,92.815675 Z" id="Path-42" fill="#F4B895"></path>
                        <path d="M96.2156855,97.0418093 L93.4891116,91.6470526 C90.826378,91.4059512 88.7388585,91.8248989 87.2265529,92.9038957 C85.7142473,93.9828926 85.7142473,95.2243375 87.2265529,96.6282304 L93.8239026,98.8399863 L96.2156855,97.0418093 Z" id="Path-43" fill="#F4B895"></path>
                        <path d="M93.3352825,91.5993526 L119.677512,80.0231355 C133.729095,61.7102844 141.319179,52.5538589 142.447766,52.5538589 C144.140645,52.5538589 148.131224,50.6203854 151.753985,53.938429 C155.376747,57.2564726 152.581957,63.5878416 150.485352,64.6374268 C148.388746,65.687012 124.485391,87.7809942 123.419903,87.7809942 C122.709578,87.7809942 113.586499,90.8585134 96.0506684,97.0135518 L93.3352825,91.5993526 Z" id="Path-44" fill="#F4B895"></path>
                        <path d="M128.860217,109.862541 C130.085027,104.289029 130.845217,99.3709562 131.140787,95.1083214 C131.578422,88.7968743 130.402708,85.4917602 128.860217,83.4898452 C126.857766,80.8909724 125.126532,78.8216818 125.126532,76.5974974 C125.126532,74.1508867 126.147304,68.6183876 128.188848,60 C129.387372,56.4363789 129.387372,54.3223193 128.188848,53.6578214 C126.990323,52.9933235 125.969551,51.556257 125.126532,49.3466219 C131.246889,46.9413652 135.433602,44.9777961 137.686671,43.4559146 C141.066274,41.1730924 144.663386,38.2680087 144.663386,38.2680087 C144.663386,38.2680087 154.651887,55.8680152 156.954203,62.8426783 C159.256519,69.8173415 156.141621,90.5955216 156.954203,97.7394727 C157.495925,102.502107 157.934705,106.54313 158.270545,109.862541 L128.860217,109.862541 Z" id="Path-45" fill="#1D5060"></path>
                        <path d="M137.914474,55.5043182 C142.39551,53.0104998 143.936868,54.383683 145.619829,56.3491133 C147.200721,58.1953428 147.855549,67.4438617 149.363739,75.741718 C150.475047,81.8559845 151.173133,86.8192992 151.173133,87.1680757 C151.173133,87.7161502 148.212854,95.3790039 142.292296,110.156637 L134.98724,110.156637 L141.058521,87.1680757 C139.204031,72.3439482 137.79855,64.0695806 136.842077,62.3449729 C135.407369,59.7580614 136.165233,56.4778183 137.914474,55.5043182 Z" id="Path-48" fill="#F4B895"></path>
                        <path d="M45.4659607,35.5184589 C44.1762571,35.8050597 42.3969438,34.9452573 40.1280207,32.9390517" id="Path-49" stroke="#1D5060"></path>
                        <path d="M118.072114,11.259928 C117.676934,15.4196658 118.905928,18.8569981 121.759094,21.5719247 C126.038844,25.6443147 133.533984,25.8079278 132.38913,33.4014981 C131.244276,40.9950684 131.976598,45.8334649 140.36286,46.4275465 C148.749123,47.0216281 153.118991,50.2912643 150.369067,62.0337815 C148.535784,69.8621263 150.969273,76.5935929 157.669534,82.2281813 C160.222014,78.4207511 161.219003,72.4096485 160.660503,64.1948736 C159.822751,51.8727113 151.35687,46.4275465 150.369067,46.4275465 C149.381264,46.4275465 144.088776,38.9061585 146.73502,31.3147755 C149.381264,23.7233926 151.092639,13.5942575 143.82367,6.53046101 C139.298466,2.1329847 126.508247,0.932182469 119.950164,8.29433216 C119.48304,8.81872856 118.857023,9.80726052 118.072114,11.259928 Z" id="Path-72" fill="#50ACA3"></path>
                        <path d="M146,47.6420272 C146.896774,45.8806757 147.793548,45 148.690322,45 C150.035483,45 152.667319,46.9814096 152.667319,47.6420272 C152.667319,48.3026447 151.245064,50.875996 150.289362,50.875996 C149.652227,50.875996 148.22244,49.7980064 146,47.6420272 Z" id="Path-2" fill="#EE9866"></path>
                        <path d="M119.534821,12 C118.283954,17.8165751 119.227281,21.992645 122.364802,24.5282098 C127.071083,28.331557 131.55688,27.5638006 131.55688,32.5010649 C131.55688,37.4383292 132.329011,41.6537713 134.840953,42.9819243" id="Path-73" stroke="#50ACA3"></path>
                        <path d="M121,34 C123.730306,33.6962557 125.336317,33.3629223 125.818033,33" id="Path-78" stroke="#1D5060"></path>
                    </g>
                </g>
            </g>
        </g>
    </g>
</svg>