<?xml version="1.0" encoding="utf-8"?>
<!-- Generator: Adobe Illustrator 16.0.2, SVG Export Plug-In . SVG Version: 6.00 Build 0)  -->
<!DOCTYPE svg PUBLIC "-//W3C//DTD SVG 1.1//EN" "http://www.w3.org/Graphics/SVG/1.1/DTD/svg11.dtd">
<svg version="1.1" id="Layer_1" xmlns="http://www.w3.org/2000/svg" xmlns:xlink="http://www.w3.org/1999/xlink" x="0px" y="0px"
     width="46.6px" height="32.1px" viewBox="326.8 497 46.6 32.1" enable-background="new 326.8 497 46.6 32.1" xml:space="preserve">
<g>
    <path fill="#FFFFFF" d="M326.8,513c0-4,0-8,0-12c0-3.3,2.9-5,5.7-3.4c7,4,13.9,8,20.9,12.1c2.9,1.7,2.9,5,0,6.6
        c-7,4-13.9,8.1-20.9,12.1c-2.9,1.6-5.7-0.1-5.7-3.4C326.8,521,326.8,517,326.8,513z M350.3,513c-6.4-3.7-12.6-7.3-18.9-10.9
        c0,7.4,0,14.5,0,21.8C337.7,520.3,343.9,516.7,350.3,513z"/>
    <path fill="#FFFFFF" d="M365,513.1c0,4.5,0,9,0,13.5c0,1.3-0.7,2.2-1.9,2.4c-1,0.2-2.1-0.4-2.4-1.5c-0.1-0.2-0.1-0.5-0.1-0.7
        c0-9.2,0-18.4,0-27.5c0-1.4,1-2.3,2.3-2.3c1.2,0,2.1,0.9,2.2,2.2c0,0.3,0,0.6,0,0.9C365,504.4,365,508.7,365,513.1z"/>
    <path fill="#FFFFFF" d="M373.4,513c0,4.5,0,9.1,0,13.6c0,1.3-0.7,2.2-1.9,2.4c-1,0.2-2.1-0.4-2.4-1.5c-0.1-0.3-0.1-0.6-0.1-0.8
        c0-9.1,0-18.3,0-27.4c0-1.4,1-2.3,2.2-2.3c1.3,0,2.2,0.9,2.2,2.3c0,0.3,0,0.6,0,0.9C373.4,504.4,373.4,508.7,373.4,513z"/>
</g>
</svg>
