<?xml version="1.0" encoding="utf-8"?>
<!-- Generator: Adobe Illustrator 16.0.2, SVG Export Plug-In . SVG Version: 6.00 Build 0)  -->
<!DOCTYPE svg PUBLIC "-//W3C//DTD SVG 1.1//EN" "http://www.w3.org/Graphics/SVG/1.1/DTD/svg11.dtd">
<svg version="1.1" id="Layer_1" xmlns="http://www.w3.org/2000/svg" xmlns:xlink="http://www.w3.org/1999/xlink" x="0px" y="0px"
     width="67.7px" height="30.1px" viewBox="314.8 497.1 67.7 30.1" enable-background="new 314.8 497.1 67.7 30.1"
     xml:space="preserve">
<g>
    <g>
        <path fill="#1C4C5C" d="M329.6,527c-8.2,0-14.8-6.7-14.8-15c0-8.2,6.7-14.8,14.9-14.8c8.2,0,14.8,6.7,14.8,14.9
            C344.5,520.4,337.8,527,329.6,527z M327.5,516.2c0,1.2,0,2.4,0,3.6c0,0.6,0.2,0.7,0.7,0.7c0.6,0,1.2-0.1,1.9,0
            c0.7,0.1,0.9-0.1,0.9-0.9c-0.1-2.2,0-4.5,0-6.7c0-0.5,0.1-0.7,0.7-0.7c1.7,0,1.7,0,1.8-1.7c0.1-1.1,0.1-1.1-1-1.1
            c-1.5,0-1.5,0-1.4-1.6c0-0.7,0.3-1,1-1c0.5,0,1.2,0.2,1.5-0.1c0.3-0.4,0.1-1,0.1-1.6c0-0.2,0-0.5,0-0.7c0-0.4-0.1-0.5-0.5-0.5
            c-0.9,0-1.8,0-2.7,0.1c-1.5,0.1-2.4,1-2.7,2.4c-0.2,0.8-0.1,1.6-0.1,2.4c0,0.4-0.1,0.5-0.5,0.5c-1.2,0-1.2,0-1.2,1.2
            c0,0.2,0,0.3,0,0.5c0,1.1,0,1.2,1.1,1.1c0.5,0,0.6,0.1,0.6,0.6C327.5,513.9,327.5,515.1,327.5,516.2z"/>
    </g>
    <g>
        <path fill="#1C4C5C" d="M352.5,513.3c0-0.8,0-1.6,0-2.3c0.1,0,0.1-0.1,0.1-0.1c0.1-0.6,0.2-1.3,0.3-1.9
            c1.3-6.1,6.3-10.8,12.5-11.6c0.3,0,0.7,0,1-0.2c0.8,0,1.5,0,2.3,0c0,0.1,0.1,0.1,0.2,0.1c1.1,0.1,2.1,0.3,3.2,0.6
            c7.9,2.4,12.4,10.9,9.9,18.8c-2.3,7.4-10,11.9-17.6,10.2c-6.1-1.3-10.8-6.4-11.6-12.5C352.6,514,352.6,513.7,352.5,513.3z
             M367.5,517.9c1.3,0,2.6,0,3.8,0c0.9,0,1.9,0,2.8-0.2c0.5-0.1,0.9-0.4,1-0.9c0.1-0.3,0.2-0.7,0.2-1c0.2-2,0.2-3.9,0.1-5.9
            c0-0.7-0.1-1.5-0.3-2.2c-0.2-0.6-0.5-1-1.2-1.1c-0.4-0.1-0.9-0.1-1.3-0.1c-3.1-0.1-6.1-0.1-9.2-0.1c-0.9,0-1.8,0-2.6,0.2
            c-0.5,0.1-0.9,0.4-1,0.9c-0.1,0.3-0.2,0.6-0.2,1c-0.2,2.2-0.2,4.5-0.1,6.7c0,0.5,0.1,1.1,0.3,1.6c0.2,0.5,0.5,0.7,0.9,0.8
            c0.3,0.1,0.6,0.1,0.8,0.1C363.6,518,365.6,517.9,367.5,517.9z"/>
        <path fill="#1C4C5C" d="M365.6,509.6c1.6,0.8,3.2,1.7,4.8,2.5c0,0.1-0.1,0.1-0.2,0.2c-1.4,0.8-2.9,1.5-4.3,2.3
            c-0.2,0.1-0.3,0.1-0.3-0.2C365.6,512.8,365.6,511.3,365.6,509.6z"/>
    </g>
</g>
</svg>
