<?xml version="1.0" encoding="UTF-8"?>
<svg width="73px" height="41px" viewBox="0 0 73 41" version="1.1" xmlns="http://www.w3.org/2000/svg" xmlns:xlink="http://www.w3.org/1999/xlink">
    <!-- Generator: sketchtool 51.1 (57501) - http://www.bohemiancoding.com/sketch -->
    <title>E38F50CC-577B-4527-B26C-09BEA19F7701</title>
    <desc>Created with sketchtool.</desc>
    <defs></defs>
    <g id="Page-1" stroke="none" stroke-width="1" fill="none" fill-rule="evenodd">
        <g id="List-Your-Property---Step-1-(Estate-type)-Coliving-Selected-" transform="translate(-592.000000, -389.000000)">
            <g id="entire-space" transform="translate(568.000000, 365.000000)">
                <g transform="translate(24.000000, 24.000000)">
                    <rect id="Rectangle-25" fill="#ECECEC" opacity="0.5" x="3" y="0" width="40" height="40" rx="20"></rect>
                    <g id="Group-20" transform="translate(0.000000, 9.000000)">
                        <path d="M23,8 L52,8 C54.209139,8 56,9.790861 56,12 L56,23 L19,23 L19,12 C19,9.790861 20.790861,8 23,8 Z" id="Rectangle-7-Copy" fill="#1D5060"></path>
                        <path d="M19,8 L48,8 C50.209139,8 52,9.790861 52,12 L52,23 L15,23 L15,12 C15,9.790861 16.790861,8 19,8 Z" id="Rectangle-7" fill="#50ACA3"></path>
                        <path d="M2,16 L16,16 C17.1045695,16 18,16.8954305 18,18 L18,30 L0,30 L0,18 C-1.3527075e-16,16.8954305 0.8954305,16 2,16 Z" id="Rectangle-27-Copy-4" fill="#1D5060"></path>
                        <path d="M7,19 L21,19 C22.1045695,19 23,19.8954305 23,21 L23,29.8543009 L5,29.8543009 L5,21 C5,19.8954305 5.8954305,19 7,19 Z" id="Rectangle-27" fill="#1D5060"></path>
                        <path d="M24,19 L39,19 C40.1045695,19 41,19.8954305 41,21 L41,29.8543009 L22,29.8543009 L22,21 C22,19.8954305 22.8954305,19 24,19 Z" id="Rectangle-27-Copy" fill="#1D5060"></path>
                        <path d="M5,21 L39.0246724,21 L39.0246724,28 C39.0246724,29.1045695 38.1292419,30 37.0246724,30 L7,30 C5.8954305,30 5,29.1045695 5,28 L5,21 Z" id="Rectangle-26" fill="#50ACA3"></path>
                        <path d="M2,16 L3,16 C4.1045695,16 5,16.8954305 5,18 L5,30 L0,30 L0,18 C-1.3527075e-16,16.8954305 0.8954305,16 2,16 Z" id="Rectangle-27-Copy-3" fill="#3C958C"></path>
                        <path d="M37.8095994,15.3139572 C37.4109702,15.7905989 36.8665753,16.373231 36.1764148,17.0618534 L29.6605622,17.0618534 C28.9138033,17.1857842 28.1881145,16.7470862 27.9508193,16.0282686 C27.7076456,15.2917495 27.9242715,14.808072 28.6006656,14.5772466 C29.5957519,14.2376647 30.3212991,14.5091392 30.7773072,15.3916699 L34.9986276,15.207332 L38.0078809,10.3114371 C38.3611132,9.73674695 38.9802452,9.37884001 39.654537,9.3595405 L45.8299553,9.18276805 C46.4145194,9.16603672 46.9771219,9.4059925 47.3696669,9.83947096 C49.8637701,12.5936522 51.1108217,14.0983448 51.1108217,14.3535486 C51.1108217,14.7668922 50.9170234,16.0380627 50.2643025,16.0380627 L45.687578,16.0380627 L44.593445,19.3531278 L37.09897,18.9132228 L37.8095994,15.3139572 Z M46.6280711,13.1885041 L46.4697456,13.6682076 C46.6720597,13.6367262 46.8785484,13.60511 47.0892115,13.5733589 L46.6280711,13.1885041 Z" id="Combined-Shape" fill="#FFFFFF"></path>
                        <path d="M35.3475344,14.5786649 C35.4317317,14.5994255 35.5211199,14.6219314 35.615699,14.6461824 C36.2418919,14.8067447 36.7141732,15.3035878 37.0325429,16.1367118 C36.7710507,16.4153224 36.4768564,16.7177115 36.1499601,17.0438793 L29.6341075,17.0438793 C28.8873486,17.1678102 28.1616598,16.7291121 27.9243647,16.0102945 C27.6811909,15.2737754 27.8978169,14.7900979 28.5742109,14.5592725 C29.5692972,14.2196907 30.2948444,14.4911651 30.7508526,15.3736959 L34.972173,15.1893579 L35.3475344,14.5786649 Z" id="Combined-Shape" fill="#E09467"></path>
                        <path d="M37.7090173,17 L29.3074782,17 C28.3702265,17 27.5586848,17.6508661 27.3551885,18.5657595 L25,29.1543866 L28.3930015,29.1543866 C30.1824173,23.4861786 31.0771252,20.5912658 31.0771252,20.4696479 C31.0771252,20.3480301 34.3758729,20.3480301 40.9733681,20.4696479 L39.1963409,17 L37.7090173,17 Z" id="Path-5" fill="#BFBFBF"></path>
                        <path d="M43.7090173,17 L35.3074782,17 C34.3702265,17 33.5586848,17.6508661 33.3551885,18.5657595 L31,29.1543866 L34.3930015,29.1543866 C36.1824173,23.4861786 37.0771252,20.5912658 37.0771252,20.4696479 C37.0771252,20.3480301 40.3758729,20.3480301 46.9733681,20.4696479 L45.1963409,17 L43.7090173,17 Z" id="Path-5-Copy" fill="#DBDBDB"></path>
                        <path d="M41,16 L55,16 C56.1045695,16 57,16.8954305 57,18 L57,30 L39,30 L39,18 C39,16.8954305 39.8954305,16 41,16 Z" id="Rectangle-27-Copy-2" fill="#1D5060"></path>
                        <g id="Group-19" transform="translate(59.000000, 16.000000)">
                            <path d="M2.04125643,6.38461538 L1.16505134,14.8466831 C1.15714468,14.9230428 1.21263681,14.9913541 1.28899648,14.9992608 C1.29375269,14.9997533 1.29853113,15 1.30331277,15 L1.30331277,15 C1.3936573,15 1.47216542,14.9379285 1.49300674,14.8500207 L3.5,6.38461538 L2.04125643,6.38461538 Z" id="Path-66" fill="#EE9866"></path>
                            <path d="M11.3745898,6.38461538 L10.4983847,14.8466831 C10.490478,14.9230428 10.5459701,14.9913541 10.6223298,14.9992608 C10.627086,14.9997533 10.6318645,15 10.6366461,15 L10.6366461,15 C10.7269906,15 10.8054988,14.9379285 10.8263401,14.8500207 L12.8333333,6.38461538 L11.3745898,6.38461538 Z" id="Path-66-Copy" fill="#EE9866" transform="translate(11.666667, 10.692308) scale(-1, 1) translate(-11.666667, -10.692308) "></path>
                            <rect id="Rectangle-32" fill="#F4B895" x="0" y="6.38461538" width="14" height="2.46153846"></rect>
                            <path d="M0,6 L14,6" id="Path-67" stroke="#1D5060" stroke-width="0.6"></path>
                            <path d="M6.95463788,0.0396706262 C7.12497745,-0.0459205219 7.33084024,0.0108818515 7.43620281,0.172545689 C7.55233329,0.35073135 7.50550634,0.591644883 7.33161189,0.710641126 C7.09724219,0.871037128 6.8974727,1.22910274 6.73231084,1.78484933 C6.32813217,3.14485414 7.29332093,3.43392416 7.29332093,4.6596021 C7.29332093,5.47672072 6.9193142,5.97480207 6.17130076,6.15384615 L5.32869962,6.15384615 C4.58068618,5.97480207 4.20667945,5.47672072 4.20667945,4.6596021 C4.20667945,3.43392416 5.17186821,3.14485414 4.76768954,1.78484933 C4.60252768,1.22910274 4.4027582,0.871037128 4.16838108,0.710652505 C3.99449404,0.591644883 3.94766709,0.35073135 4.06379757,0.172545689 C4.16916014,0.0108818515 4.37502293,-0.0459205219 4.5453625,0.0396706262 C4.86380983,0.199682019 5.26535572,0.286710113 5.75000019,0.300754909 C6.23464466,0.286710113 6.63619055,0.199682019 6.95463788,0.0396706262 Z" id="Combined-Shape" fill="#50ACA3"></path>
                        </g>
                        <path d="M21.0771521,29.7910791 L23.7888295,29.7910791 L24.4680884,30.3128625 L25.023568,29 L25.6976264,29 L28.4087834,29 L28.1573874,31.6797987 L27.5453293,32 L21.0033249,32 C20.4609187,32 20.0174013,31.5675907 20.0036465,31.0253589 L20.0003533,30.8955395 C19.9852675,30.30084 20.4551373,29.8065113 21.0498369,29.7914255 C21.0589401,29.7911945 21.068046,29.7910791 21.0771521,29.7910791 Z" id="Rectangle-5" fill="#DB8452"></path>
                        <path d="M27.0771521,29.7910791 L29.7888295,29.7910791 L30.4680884,30.3128625 L31.023568,29 L31.6976264,29 L34.4087834,29 L34.1573874,31.6797987 L33.5453293,32 L27.0033249,32 C26.4609187,32 26.0174013,31.5675907 26.0036465,31.0253589 L26.0003533,30.8955395 C25.9852675,30.30084 26.4551373,29.8065113 27.0498369,29.7914255 C27.0589401,29.7911945 27.068046,29.7910791 27.0771521,29.7910791 Z" id="Rectangle-5-Copy" fill="#EE9867"></path>
                        <path d="M41,16 L42,16 C43.1045695,16 44,16.8954305 44,18 L44,30 L39,30 L39,18 C39,16.8954305 39.8954305,16 41,16 Z" id="Rectangle-27-Copy-2" fill="#3C958C"></path>
                        <path d="M51.1441249,14.3495077 C51.1441249,14.7628513 50.9503267,16.0340218 50.2976057,16.0340218 L41.3672918,16.0340218 C41.2351705,17.8568927 41.1567928,18.7498068 40.6547517,18.9767408 C40.1678725,19.1968212 38.4137886,18.7498068 38.4137886,18.7498068 C38.4137886,18.7498068 38.4971183,16.5005987 38.9908342,15.6031074 C39.3055956,15.0309249 41.9326905,14.3760284 46.4851846,13.6669478 C46.5306754,13.6694753 46.5766596,13.6720368 46.623137,13.6746322 C46.6540151,13.6599039 46.68471,13.6454722 46.7152217,13.6313372 C46.8492065,13.6107216 46.9849709,13.5900485 47.1225147,13.569318 L47.0310007,13.4929429 C47.6240582,13.2485085 48.1416678,13.1262913 48.5838294,13.1262913 C49.1220617,13.1262913 49.7638514,13.2168396 50.5091982,13.397936 C50.9324827,13.9271824 51.1441249,14.244373 51.1441249,14.3495077 Z" id="Combined-Shape" fill="#E09467"></path>
                        <path d="M42,7 L44.669547,7 L44.669547,9.33818582 L43.3432016,9.74884813 C42.8536183,9.90043263 42.3211156,9.73762849 42,9.33818582 L42,7 Z" id="Rectangle-6" fill="#DB8452"></path>
                        <path d="M41,3.02995612 C41,4.16910019 41,5.14811108 41,5.96698879 C41,7.19530535 41.5562578,8.22162337 42.642653,8.39488936 C43.7290482,8.56815535 45.6379126,7.66906594 45.867773,5.96698879 C46.0976334,4.26491164 47.3075568,1.88021873 44.589501,1.1574427 C42.7774638,0.675592014 41.5809635,1.29976315 41,3.02995612 Z" id="Path-6" fill="#E09467"></path>
                        <path d="M40,2.24073236 C40.3099475,2.77782612 40.8871934,3.11265989 41.7317375,3.24523367 C42.5762816,3.37780746 43.3913649,3.37780746 44.1769873,3.24523367 L44.3812045,5.23629553 C44.5954652,4.86736545 44.8744504,4.68290041 45.2181602,4.68290041 C45.56187,4.68290041 45.4552413,5.32406019 44.8982739,6.60637975 C45.3209991,6.58173502 45.6068479,6.47093201 45.7558206,6.27397072 C46.5886328,5.17288416 46.9078064,3.67066594 46.9078064,2.9593296 C46.9078064,2.05712853 46.5238112,1.48636193 45.7558206,1.24702979 C44.9874648,0.415676598 43.9652662,0 42.6892249,0 C41.4131837,0 40.5167753,0.746910785 40,2.24073236 Z" id="Path-7" fill="#1D5060"></path>
                    </g>
                </g>
            </g>
        </g>
    </g>
</svg>