<?xml version="1.0" encoding="UTF-8"?>
<svg width="226px" height="164px" viewBox="0 0 226 164" version="1.1" xmlns="http://www.w3.org/2000/svg" xmlns:xlink="http://www.w3.org/1999/xlink">
    <!-- Generator: sketchtool 51.2 (57519) - http://www.bohemiancoding.com/sketch -->
    <title>83A30BFD-D18C-4007-9A3E-85406450550F</title>
    <desc>Created with sketchtool.</desc>
    <defs></defs>
    <g id="Page-1" stroke="none" stroke-width="1" fill="none" fill-rule="evenodd">
        <g id="31-List-Your-Property---Thank-you-pop-up" transform="translate(-602.000000, -271.000000)">
            <g id="Group-20" transform="translate(477.000000, 211.000000)">
                <g id="listing-submitted" transform="translate(117.000000, 60.000000)">
                    <path d="M44.7084183,98.5729638 L71.7139235,115.2957 C72.891506,116.024899 73.6080461,117.311401 73.6080461,118.696476 L73.6080461,145.086111 C73.6080461,146.471186 72.891506,147.757688 71.7139235,148.486887 L44.7084183,165.209623 C43.4181719,166.008588 41.7869097,166.008588 40.4966633,165.209623 L13.4911581,148.486887 C12.3135756,147.757688 11.5970355,146.471186 11.5970355,145.086111 L11.5970355,118.696476 C11.5970355,117.311401 12.3135756,116.024899 13.4911581,115.2957 L40.4966633,98.5729638 C41.7869097,97.773999 43.4181719,97.773999 44.7084183,98.5729638 Z" id="Polygon-2-Copy" fill-opacity="0.204285553" fill="#6DC7BE" transform="translate(42.602541, 131.891293) rotate(-23.000000) translate(-42.602541, -131.891293) "></path>
                    <g id="Group-9" transform="translate(13.000000, 81.000000)" fill="#FFD1B6" fill-opacity="0.436933877">
                        <path d="M1.93132491,0 L3.86264982,1.41449275 L3.86264982,3.68695652 L1.93132491,5.10144928 L0,3.68695652 L0,1.41449275 L1.93132491,0 Z M111.37307,0 L113.304395,1.41449275 L113.304395,3.68695652 L111.37307,5.10144928 L109.441745,3.68695652 L109.441745,1.41449275 L111.37307,0 Z M1.93132491,22.9565217 L3.86264982,24.3710145 L3.86264982,26.6434783 L1.93132491,28.057971 L0,26.6434783 L0,24.3710145 L1.93132491,22.9565217 Z M111.37307,22.9565217 L113.304395,24.3710145 L113.304395,26.6434783 L111.37307,28.057971 L109.441745,26.6434783 L109.441745,24.3710145 L111.37307,22.9565217 Z M1.93132491,10.8405797 L3.86264982,12.2550725 L3.86264982,14.5275362 L1.93132491,15.942029 L0,14.5275362 L0,12.2550725 L1.93132491,10.8405797 Z M111.37307,10.8405797 L113.304395,12.2550725 L113.304395,14.5275362 L111.37307,15.942029 L109.441745,14.5275362 L109.441745,12.2550725 L111.37307,10.8405797 Z M1.93132491,32.5217391 L3.86264982,33.9362319 L3.86264982,36.2086957 L1.93132491,37.6231884 L0,36.2086957 L0,33.9362319 L1.93132491,32.5217391 Z M111.37307,32.5217391 L113.304395,33.9362319 L113.304395,36.2086957 L111.37307,37.6231884 L109.441745,36.2086957 L109.441745,33.9362319 L111.37307,32.5217391 Z M5.79397473,5.73913043 L7.72529964,7.15362319 L7.72529964,9.42608696 L5.79397473,10.8405797 L3.86264982,9.42608696 L3.86264982,7.15362319 L5.79397473,5.73913043 Z M115.23572,5.73913043 L117.167045,7.15362319 L117.167045,9.42608696 L115.23572,10.8405797 L113.304395,9.42608696 L113.304395,7.15362319 L115.23572,5.73913043 Z M5.79397473,27.4202899 L7.72529964,28.8347826 L7.72529964,31.1072464 L5.79397473,32.5217391 L3.86264982,31.1072464 L3.86264982,28.8347826 L5.79397473,27.4202899 Z M115.23572,27.4202899 L117.167045,28.8347826 L117.167045,31.1072464 L115.23572,32.5217391 L113.304395,31.1072464 L113.304395,28.8347826 L115.23572,27.4202899 Z M5.79397473,17.2173913 L7.72529964,18.6318841 L7.72529964,20.9043478 L5.79397473,22.3188406 L3.86264982,20.9043478 L3.86264982,18.6318841 L5.79397473,17.2173913 Z M115.23572,17.2173913 L117.167045,18.6318841 L117.167045,20.9043478 L115.23572,22.3188406 L113.304395,20.9043478 L113.304395,18.6318841 L115.23572,17.2173913 Z M5.79397473,38.8985507 L7.72529964,40.3130435 L7.72529964,42.5855072 L5.79397473,44 L3.86264982,42.5855072 L3.86264982,40.3130435 L5.79397473,38.8985507 Z M115.23572,38.8985507 L117.167045,40.3130435 L117.167045,42.5855072 L115.23572,44 L113.304395,42.5855072 L113.304395,40.3130435 L115.23572,38.8985507 Z M28.9698737,0 L30.9011986,1.41449275 L30.9011986,3.68695652 L28.9698737,5.10144928 L27.0385488,3.68695652 L27.0385488,1.41449275 L28.9698737,0 Z M139.699169,0 L141.630493,1.41449275 L141.630493,3.68695652 L139.699169,5.10144928 L137.767844,3.68695652 L137.767844,1.41449275 L139.699169,0 Z M28.9698737,22.9565217 L30.9011986,24.3710145 L30.9011986,26.6434783 L28.9698737,28.057971 L27.0385488,26.6434783 L27.0385488,24.3710145 L28.9698737,22.9565217 Z M139.699169,22.9565217 L141.630493,24.3710145 L141.630493,26.6434783 L139.699169,28.057971 L137.767844,26.6434783 L137.767844,24.3710145 L139.699169,22.9565217 Z M28.9698737,10.8405797 L30.9011986,12.2550725 L30.9011986,14.5275362 L28.9698737,15.942029 L27.0385488,14.5275362 L27.0385488,12.2550725 L28.9698737,10.8405797 Z M139.699169,10.8405797 L141.630493,12.2550725 L141.630493,14.5275362 L139.699169,15.942029 L137.767844,14.5275362 L137.767844,12.2550725 L139.699169,10.8405797 Z M28.9698737,32.5217391 L30.9011986,33.9362319 L30.9011986,36.2086957 L28.9698737,37.6231884 L27.0385488,36.2086957 L27.0385488,33.9362319 L28.9698737,32.5217391 Z M139.699169,32.5217391 L141.630493,33.9362319 L141.630493,36.2086957 L139.699169,37.6231884 L137.767844,36.2086957 L137.767844,33.9362319 L139.699169,32.5217391 Z M33.4762985,5.73913043 L35.4076234,7.15362319 L35.4076234,9.42608696 L33.4762985,10.8405797 L31.5449735,9.42608696 L31.5449735,7.15362319 L33.4762985,5.73913043 Z M142.918043,5.73913043 L144.849368,7.15362319 L144.849368,9.42608696 L142.918043,10.8405797 L140.986718,9.42608696 L140.986718,7.15362319 L142.918043,5.73913043 Z M33.4762985,27.4202899 L35.4076234,28.8347826 L35.4076234,31.1072464 L33.4762985,32.5217391 L31.5449735,31.1072464 L31.5449735,28.8347826 L33.4762985,27.4202899 Z M142.918043,27.4202899 L144.849368,28.8347826 L144.849368,31.1072464 L142.918043,32.5217391 L140.986718,31.1072464 L140.986718,28.8347826 L142.918043,27.4202899 Z M33.4762985,17.2173913 L35.4076234,18.6318841 L35.4076234,20.9043478 L33.4762985,22.3188406 L31.5449735,20.9043478 L31.5449735,18.6318841 L33.4762985,17.2173913 Z M142.918043,17.2173913 L144.849368,18.6318841 L144.849368,20.9043478 L142.918043,22.3188406 L140.986718,20.9043478 L140.986718,18.6318841 L142.918043,17.2173913 Z M33.4762985,38.8985507 L35.4076234,40.3130435 L35.4076234,42.5855072 L33.4762985,44 L31.5449735,42.5855072 L31.5449735,40.3130435 L33.4762985,38.8985507 Z M142.918043,38.8985507 L144.849368,40.3130435 L144.849368,42.5855072 L142.918043,44 L140.986718,42.5855072 L140.986718,40.3130435 L142.918043,38.8985507 Z M57.9397473,0 L59.8710722,1.41449275 L59.8710722,3.68695652 L57.9397473,5.10144928 L56.0084224,3.68695652 L56.0084224,1.41449275 L57.9397473,0 Z M166.737717,0 L168.669042,1.41449275 L168.669042,3.68695652 L166.737717,5.10144928 L164.806392,3.68695652 L164.806392,1.41449275 L166.737717,0 Z M57.9397473,22.9565217 L59.8710722,24.3710145 L59.8710722,26.6434783 L57.9397473,28.057971 L56.0084224,26.6434783 L56.0084224,24.3710145 L57.9397473,22.9565217 Z M166.737717,22.9565217 L168.669042,24.3710145 L168.669042,26.6434783 L166.737717,28.057971 L164.806392,26.6434783 L164.806392,24.3710145 L166.737717,22.9565217 Z M57.9397473,10.8405797 L59.8710722,12.2550725 L59.8710722,14.5275362 L57.9397473,15.942029 L56.0084224,14.5275362 L56.0084224,12.2550725 L57.9397473,10.8405797 Z M166.737717,10.8405797 L168.669042,12.2550725 L168.669042,14.5275362 L166.737717,15.942029 L164.806392,14.5275362 L164.806392,12.2550725 L166.737717,10.8405797 Z M57.9397473,32.5217391 L59.8710722,33.9362319 L59.8710722,36.2086957 L57.9397473,37.6231884 L56.0084224,36.2086957 L56.0084224,33.9362319 L57.9397473,32.5217391 Z M166.737717,32.5217391 L168.669042,33.9362319 L168.669042,36.2086957 L166.737717,37.6231884 L164.806392,36.2086957 L164.806392,33.9362319 L166.737717,32.5217391 Z M60.5148472,5.73913043 L62.4461721,7.15362319 L62.4461721,9.42608696 L60.5148472,10.8405797 L58.5835223,9.42608696 L58.5835223,7.15362319 L60.5148472,5.73913043 Z M170.600367,5.73913043 L172.531692,7.15362319 L172.531692,9.42608696 L170.600367,10.8405797 L168.669042,9.42608696 L168.669042,7.15362319 L170.600367,5.73913043 Z M60.5148472,27.4202899 L62.4461721,28.8347826 L62.4461721,31.1072464 L60.5148472,32.5217391 L58.5835223,31.1072464 L58.5835223,28.8347826 L60.5148472,27.4202899 Z M170.600367,27.4202899 L172.531692,28.8347826 L172.531692,31.1072464 L170.600367,32.5217391 L168.669042,31.1072464 L168.669042,28.8347826 L170.600367,27.4202899 Z M60.5148472,17.2173913 L62.4461721,18.6318841 L62.4461721,20.9043478 L60.5148472,22.3188406 L58.5835223,20.9043478 L58.5835223,18.6318841 L60.5148472,17.2173913 Z M170.600367,17.2173913 L172.531692,18.6318841 L172.531692,20.9043478 L170.600367,22.3188406 L168.669042,20.9043478 L168.669042,18.6318841 L170.600367,17.2173913 Z M60.5148472,38.8985507 L62.4461721,40.3130435 L62.4461721,42.5855072 L60.5148472,44 L58.5835223,42.5855072 L58.5835223,40.3130435 L60.5148472,38.8985507 Z M170.600367,38.8985507 L172.531692,40.3130435 L172.531692,42.5855072 L170.600367,44 L168.669042,42.5855072 L168.669042,40.3130435 L170.600367,38.8985507 Z M84.3345211,0 L86.265846,1.41449275 L86.265846,3.68695652 L84.3345211,5.10144928 L82.4031962,3.68695652 L82.4031962,1.41449275 L84.3345211,0 Z M194.420041,0 L196.351366,1.41449275 L196.351366,3.68695652 L194.420041,5.10144928 L192.488716,3.68695652 L192.488716,1.41449275 L194.420041,0 Z M84.3345211,22.9565217 L86.265846,24.3710145 L86.265846,26.6434783 L84.3345211,28.057971 L82.4031962,26.6434783 L82.4031962,24.3710145 L84.3345211,22.9565217 Z M194.420041,22.9565217 L196.351366,24.3710145 L196.351366,26.6434783 L194.420041,28.057971 L192.488716,26.6434783 L192.488716,24.3710145 L194.420041,22.9565217 Z M84.3345211,10.8405797 L86.265846,12.2550725 L86.265846,14.5275362 L84.3345211,15.942029 L82.4031962,14.5275362 L82.4031962,12.2550725 L84.3345211,10.8405797 Z M194.420041,10.8405797 L196.351366,12.2550725 L196.351366,14.5275362 L194.420041,15.942029 L192.488716,14.5275362 L192.488716,12.2550725 L194.420041,10.8405797 Z M84.3345211,32.5217391 L86.265846,33.9362319 L86.265846,36.2086957 L84.3345211,37.6231884 L82.4031962,36.2086957 L82.4031962,33.9362319 L84.3345211,32.5217391 Z M194.420041,32.5217391 L196.351366,33.9362319 L196.351366,36.2086957 L194.420041,37.6231884 L192.488716,36.2086957 L192.488716,33.9362319 L194.420041,32.5217391 Z M88.1971709,5.73913043 L90.1284958,7.15362319 L90.1284958,9.42608696 L88.1971709,10.8405797 L86.265846,9.42608696 L86.265846,7.15362319 L88.1971709,5.73913043 Z M198.282691,5.73913043 L200.214016,7.15362319 L200.214016,9.42608696 L198.282691,10.8405797 L196.351366,9.42608696 L196.351366,7.15362319 L198.282691,5.73913043 Z M88.1971709,27.4202899 L90.1284958,28.8347826 L90.1284958,31.1072464 L88.1971709,32.5217391 L86.265846,31.1072464 L86.265846,28.8347826 L88.1971709,27.4202899 Z M198.282691,27.4202899 L200.214016,28.8347826 L200.214016,31.1072464 L198.282691,32.5217391 L196.351366,31.1072464 L196.351366,28.8347826 L198.282691,27.4202899 Z M88.1971709,17.2173913 L90.1284958,18.6318841 L90.1284958,20.9043478 L88.1971709,22.3188406 L86.265846,20.9043478 L86.265846,18.6318841 L88.1971709,17.2173913 Z M198.282691,17.2173913 L200.214016,18.6318841 L200.214016,20.9043478 L198.282691,22.3188406 L196.351366,20.9043478 L196.351366,18.6318841 L198.282691,17.2173913 Z M88.1971709,38.8985507 L90.1284958,40.3130435 L90.1284958,42.5855072 L88.1971709,44 L86.265846,42.5855072 L86.265846,40.3130435 L88.1971709,38.8985507 Z M198.282691,38.8985507 L200.214016,40.3130435 L200.214016,42.5855072 L198.282691,44 L196.351366,42.5855072 L196.351366,40.3130435 L198.282691,38.8985507 Z M16.0943743,0 L18.0256992,1.41449275 L18.0256992,3.68695652 L16.0943743,5.10144928 L14.1630493,3.68695652 L14.1630493,1.41449275 L16.0943743,0 Z M126.179894,0 L128.111219,1.41449275 L128.111219,3.68695652 L126.179894,5.10144928 L124.248569,3.68695652 L124.248569,1.41449275 L126.179894,0 Z M16.0943743,22.9565217 L18.0256992,24.3710145 L18.0256992,26.6434783 L16.0943743,28.057971 L14.1630493,26.6434783 L14.1630493,24.3710145 L16.0943743,22.9565217 Z M126.179894,22.9565217 L128.111219,24.3710145 L128.111219,26.6434783 L126.179894,28.057971 L124.248569,26.6434783 L124.248569,24.3710145 L126.179894,22.9565217 Z M16.0943743,10.8405797 L18.0256992,12.2550725 L18.0256992,14.5275362 L16.0943743,15.942029 L14.1630493,14.5275362 L14.1630493,12.2550725 L16.0943743,10.8405797 Z M126.179894,10.8405797 L128.111219,12.2550725 L128.111219,14.5275362 L126.179894,15.942029 L124.248569,14.5275362 L124.248569,12.2550725 L126.179894,10.8405797 Z M16.0943743,32.5217391 L18.0256992,33.9362319 L18.0256992,36.2086957 L16.0943743,37.6231884 L14.1630493,36.2086957 L14.1630493,33.9362319 L16.0943743,32.5217391 Z M126.179894,32.5217391 L128.111219,33.9362319 L128.111219,36.2086957 L126.179894,37.6231884 L124.248569,36.2086957 L124.248569,33.9362319 L126.179894,32.5217391 Z M19.3132491,5.73913043 L21.244574,7.15362319 L21.244574,9.42608696 L19.3132491,10.8405797 L17.3819242,9.42608696 L17.3819242,7.15362319 L19.3132491,5.73913043 Z M129.398769,5.73913043 L131.330094,7.15362319 L131.330094,9.42608696 L129.398769,10.8405797 L127.467444,9.42608696 L127.467444,7.15362319 L129.398769,5.73913043 Z M19.3132491,27.4202899 L21.244574,28.8347826 L21.244574,31.1072464 L19.3132491,32.5217391 L17.3819242,31.1072464 L17.3819242,28.8347826 L19.3132491,27.4202899 Z M129.398769,27.4202899 L131.330094,28.8347826 L131.330094,31.1072464 L129.398769,32.5217391 L127.467444,31.1072464 L127.467444,28.8347826 L129.398769,27.4202899 Z M19.3132491,17.2173913 L21.244574,18.6318841 L21.244574,20.9043478 L19.3132491,22.3188406 L17.3819242,20.9043478 L17.3819242,18.6318841 L19.3132491,17.2173913 Z M129.398769,17.2173913 L131.330094,18.6318841 L131.330094,20.9043478 L129.398769,22.3188406 L127.467444,20.9043478 L127.467444,18.6318841 L129.398769,17.2173913 Z M19.3132491,38.8985507 L21.244574,40.3130435 L21.244574,42.5855072 L19.3132491,44 L17.3819242,42.5855072 L17.3819242,40.3130435 L19.3132491,38.8985507 Z M129.398769,38.8985507 L131.330094,40.3130435 L131.330094,42.5855072 L129.398769,44 L127.467444,42.5855072 L127.467444,40.3130435 L129.398769,38.8985507 Z M43.132923,0 L45.0642479,1.41449275 L45.0642479,3.68695652 L43.132923,5.10144928 L41.2015981,3.68695652 L41.2015981,1.41449275 L43.132923,0 Z M153.862218,0 L155.793543,1.41449275 L155.793543,3.68695652 L153.862218,5.10144928 L151.930893,3.68695652 L151.930893,1.41449275 L153.862218,0 Z M43.132923,22.9565217 L45.0642479,24.3710145 L45.0642479,26.6434783 L43.132923,28.057971 L41.2015981,26.6434783 L41.2015981,24.3710145 L43.132923,22.9565217 Z M153.862218,22.9565217 L155.793543,24.3710145 L155.793543,26.6434783 L153.862218,28.057971 L151.930893,26.6434783 L151.930893,24.3710145 L153.862218,22.9565217 Z M43.132923,10.8405797 L45.0642479,12.2550725 L45.0642479,14.5275362 L43.132923,15.942029 L41.2015981,14.5275362 L41.2015981,12.2550725 L43.132923,10.8405797 Z M153.862218,10.8405797 L155.793543,12.2550725 L155.793543,14.5275362 L153.862218,15.942029 L151.930893,14.5275362 L151.930893,12.2550725 L153.862218,10.8405797 Z M43.132923,32.5217391 L45.0642479,33.9362319 L45.0642479,36.2086957 L43.132923,37.6231884 L41.2015981,36.2086957 L41.2015981,33.9362319 L43.132923,32.5217391 Z M153.862218,32.5217391 L155.793543,33.9362319 L155.793543,36.2086957 L153.862218,37.6231884 L151.930893,36.2086957 L151.930893,33.9362319 L153.862218,32.5217391 Z M46.3517979,5.73913043 L48.2831228,7.15362319 L48.2831228,9.42608696 L46.3517979,10.8405797 L44.420473,9.42608696 L44.420473,7.15362319 L46.3517979,5.73913043 Z M157.081093,5.73913043 L159.012418,7.15362319 L159.012418,9.42608696 L157.081093,10.8405797 L155.149768,9.42608696 L155.149768,7.15362319 L157.081093,5.73913043 Z M46.3517979,27.4202899 L48.2831228,28.8347826 L48.2831228,31.1072464 L46.3517979,32.5217391 L44.420473,31.1072464 L44.420473,28.8347826 L46.3517979,27.4202899 Z M157.081093,27.4202899 L159.012418,28.8347826 L159.012418,31.1072464 L157.081093,32.5217391 L155.149768,31.1072464 L155.149768,28.8347826 L157.081093,27.4202899 Z M46.3517979,17.2173913 L48.2831228,18.6318841 L48.2831228,20.9043478 L46.3517979,22.3188406 L44.420473,20.9043478 L44.420473,18.6318841 L46.3517979,17.2173913 Z M157.081093,17.2173913 L159.012418,18.6318841 L159.012418,20.9043478 L157.081093,22.3188406 L155.149768,20.9043478 L155.149768,18.6318841 L157.081093,17.2173913 Z M46.3517979,38.8985507 L48.2831228,40.3130435 L48.2831228,42.5855072 L46.3517979,44 L44.420473,42.5855072 L44.420473,40.3130435 L46.3517979,38.8985507 Z M157.081093,38.8985507 L159.012418,40.3130435 L159.012418,42.5855072 L157.081093,44 L155.149768,42.5855072 L155.149768,40.3130435 L157.081093,38.8985507 Z M70.8152467,0 L72.7465716,1.41449275 L72.7465716,3.68695652 L70.8152467,5.10144928 L68.8839218,3.68695652 L68.8839218,1.41449275 L70.8152467,0 Z M180.900767,0 L182.832092,1.41449275 L182.832092,3.68695652 L180.900767,5.10144928 L178.969442,3.68695652 L178.969442,1.41449275 L180.900767,0 Z M70.8152467,22.9565217 L72.7465716,24.3710145 L72.7465716,26.6434783 L70.8152467,28.057971 L68.8839218,26.6434783 L68.8839218,24.3710145 L70.8152467,22.9565217 Z M180.900767,22.9565217 L182.832092,24.3710145 L182.832092,26.6434783 L180.900767,28.057971 L178.969442,26.6434783 L178.969442,24.3710145 L180.900767,22.9565217 Z M70.8152467,10.8405797 L72.7465716,12.2550725 L72.7465716,14.5275362 L70.8152467,15.942029 L68.8839218,14.5275362 L68.8839218,12.2550725 L70.8152467,10.8405797 Z M180.900767,10.8405797 L182.832092,12.2550725 L182.832092,14.5275362 L180.900767,15.942029 L178.969442,14.5275362 L178.969442,12.2550725 L180.900767,10.8405797 Z M70.8152467,32.5217391 L72.7465716,33.9362319 L72.7465716,36.2086957 L70.8152467,37.6231884 L68.8839218,36.2086957 L68.8839218,33.9362319 L70.8152467,32.5217391 Z M180.900767,32.5217391 L182.832092,33.9362319 L182.832092,36.2086957 L180.900767,37.6231884 L178.969442,36.2086957 L178.969442,33.9362319 L180.900767,32.5217391 Z M73.3903466,5.73913043 L75.3216715,7.15362319 L75.3216715,9.42608696 L73.3903466,10.8405797 L71.4590217,9.42608696 L71.4590217,7.15362319 L73.3903466,5.73913043 Z M184.119642,5.73913043 L186.050966,7.15362319 L186.050966,9.42608696 L184.119642,10.8405797 L182.188317,9.42608696 L182.188317,7.15362319 L184.119642,5.73913043 Z M73.3903466,27.4202899 L75.3216715,28.8347826 L75.3216715,31.1072464 L73.3903466,32.5217391 L71.4590217,31.1072464 L71.4590217,28.8347826 L73.3903466,27.4202899 Z M184.119642,27.4202899 L186.050966,28.8347826 L186.050966,31.1072464 L184.119642,32.5217391 L182.188317,31.1072464 L182.188317,28.8347826 L184.119642,27.4202899 Z M73.3903466,17.2173913 L75.3216715,18.6318841 L75.3216715,20.9043478 L73.3903466,22.3188406 L71.4590217,20.9043478 L71.4590217,18.6318841 L73.3903466,17.2173913 Z M184.119642,17.2173913 L186.050966,18.6318841 L186.050966,20.9043478 L184.119642,22.3188406 L182.188317,20.9043478 L182.188317,18.6318841 L184.119642,17.2173913 Z M73.3903466,38.8985507 L75.3216715,40.3130435 L75.3216715,42.5855072 L73.3903466,44 L71.4590217,42.5855072 L71.4590217,40.3130435 L73.3903466,38.8985507 Z M184.119642,38.8985507 L186.050966,40.3130435 L186.050966,42.5855072 L184.119642,44 L182.188317,42.5855072 L182.188317,40.3130435 L184.119642,38.8985507 Z M98.4975705,0 L100.428895,1.41449275 L100.428895,3.68695652 L98.4975705,5.10144928 L96.5662455,3.68695652 L96.5662455,1.41449275 L98.4975705,0 Z M208.58309,0 L210.514415,1.41449275 L210.514415,3.68695652 L208.58309,5.10144928 L206.651765,3.68695652 L206.651765,1.41449275 L208.58309,0 Z M98.4975705,22.9565217 L100.428895,24.3710145 L100.428895,26.6434783 L98.4975705,28.057971 L96.5662455,26.6434783 L96.5662455,24.3710145 L98.4975705,22.9565217 Z M208.58309,22.9565217 L210.514415,24.3710145 L210.514415,26.6434783 L208.58309,28.057971 L206.651765,26.6434783 L206.651765,24.3710145 L208.58309,22.9565217 Z M98.4975705,10.8405797 L100.428895,12.2550725 L100.428895,14.5275362 L98.4975705,15.942029 L96.5662455,14.5275362 L96.5662455,12.2550725 L98.4975705,10.8405797 Z M208.58309,10.8405797 L210.514415,12.2550725 L210.514415,14.5275362 L208.58309,15.942029 L206.651765,14.5275362 L206.651765,12.2550725 L208.58309,10.8405797 Z M98.4975705,32.5217391 L100.428895,33.9362319 L100.428895,36.2086957 L98.4975705,37.6231884 L96.5662455,36.2086957 L96.5662455,33.9362319 L98.4975705,32.5217391 Z M208.58309,32.5217391 L210.514415,33.9362319 L210.514415,36.2086957 L208.58309,37.6231884 L206.651765,36.2086957 L206.651765,33.9362319 L208.58309,32.5217391 Z M101.07267,5.73913043 L103.003995,7.15362319 L103.003995,9.42608696 L101.07267,10.8405797 L99.1413454,9.42608696 L99.1413454,7.15362319 L101.07267,5.73913043 Z M211.801965,5.73913043 L213.73329,7.15362319 L213.73329,9.42608696 L211.801965,10.8405797 L209.87064,9.42608696 L209.87064,7.15362319 L211.801965,5.73913043 Z M101.07267,27.4202899 L103.003995,28.8347826 L103.003995,31.1072464 L101.07267,32.5217391 L99.1413454,31.1072464 L99.1413454,28.8347826 L101.07267,27.4202899 Z M211.801965,27.4202899 L213.73329,28.8347826 L213.73329,31.1072464 L211.801965,32.5217391 L209.87064,31.1072464 L209.87064,28.8347826 L211.801965,27.4202899 Z M101.07267,17.2173913 L103.003995,18.6318841 L103.003995,20.9043478 L101.07267,22.3188406 L99.1413454,20.9043478 L99.1413454,18.6318841 L101.07267,17.2173913 Z M211.801965,17.2173913 L213.73329,18.6318841 L213.73329,20.9043478 L211.801965,22.3188406 L209.87064,20.9043478 L209.87064,18.6318841 L211.801965,17.2173913 Z M101.07267,38.8985507 L103.003995,40.3130435 L103.003995,42.5855072 L101.07267,44 L99.1413454,42.5855072 L99.1413454,40.3130435 L101.07267,38.8985507 Z M211.801965,38.8985507 L213.73329,40.3130435 L213.73329,42.5855072 L211.801965,44 L209.87064,42.5855072 L209.87064,40.3130435 L211.801965,38.8985507 Z M8.36907461,0 L10.3003995,1.41449275 L10.3003995,3.68695652 L8.36907461,5.10144928 L6.4377497,3.68695652 L6.4377497,1.41449275 L8.36907461,0 Z M119.09837,0 L121.029694,1.41449275 L121.029694,3.68695652 L119.09837,5.10144928 L117.167045,3.68695652 L117.167045,1.41449275 L119.09837,0 Z M8.36907461,22.9565217 L10.3003995,24.3710145 L10.3003995,26.6434783 L8.36907461,28.057971 L6.4377497,26.6434783 L6.4377497,24.3710145 L8.36907461,22.9565217 Z M119.09837,22.9565217 L121.029694,24.3710145 L121.029694,26.6434783 L119.09837,28.057971 L117.167045,26.6434783 L117.167045,24.3710145 L119.09837,22.9565217 Z M8.36907461,10.8405797 L10.3003995,12.2550725 L10.3003995,14.5275362 L8.36907461,15.942029 L6.4377497,14.5275362 L6.4377497,12.2550725 L8.36907461,10.8405797 Z M119.09837,10.8405797 L121.029694,12.2550725 L121.029694,14.5275362 L119.09837,15.942029 L117.167045,14.5275362 L117.167045,12.2550725 L119.09837,10.8405797 Z M8.36907461,32.5217391 L10.3003995,33.9362319 L10.3003995,36.2086957 L8.36907461,37.6231884 L6.4377497,36.2086957 L6.4377497,33.9362319 L8.36907461,32.5217391 Z M119.09837,32.5217391 L121.029694,33.9362319 L121.029694,36.2086957 L119.09837,37.6231884 L117.167045,36.2086957 L117.167045,33.9362319 L119.09837,32.5217391 Z M12.8754994,5.73913043 L14.8068243,7.15362319 L14.8068243,9.42608696 L12.8754994,10.8405797 L10.9441745,9.42608696 L10.9441745,7.15362319 L12.8754994,5.73913043 Z M122.961019,5.73913043 L124.892344,7.15362319 L124.892344,9.42608696 L122.961019,10.8405797 L121.029694,9.42608696 L121.029694,7.15362319 L122.961019,5.73913043 Z M12.8754994,27.4202899 L14.8068243,28.8347826 L14.8068243,31.1072464 L12.8754994,32.5217391 L10.9441745,31.1072464 L10.9441745,28.8347826 L12.8754994,27.4202899 Z M122.961019,27.4202899 L124.892344,28.8347826 L124.892344,31.1072464 L122.961019,32.5217391 L121.029694,31.1072464 L121.029694,28.8347826 L122.961019,27.4202899 Z M12.8754994,17.2173913 L14.8068243,18.6318841 L14.8068243,20.9043478 L12.8754994,22.3188406 L10.9441745,20.9043478 L10.9441745,18.6318841 L12.8754994,17.2173913 Z M122.961019,17.2173913 L124.892344,18.6318841 L124.892344,20.9043478 L122.961019,22.3188406 L121.029694,20.9043478 L121.029694,18.6318841 L122.961019,17.2173913 Z M12.8754994,38.8985507 L14.8068243,40.3130435 L14.8068243,42.5855072 L12.8754994,44 L10.9441745,42.5855072 L10.9441745,40.3130435 L12.8754994,38.8985507 Z M122.961019,38.8985507 L124.892344,40.3130435 L124.892344,42.5855072 L122.961019,44 L121.029694,42.5855072 L121.029694,40.3130435 L122.961019,38.8985507 Z M36.0513983,0 L37.9827232,1.41449275 L37.9827232,3.68695652 L36.0513983,5.10144928 L34.1200734,3.68695652 L34.1200734,1.41449275 L36.0513983,0 Z M146.136918,0 L148.068243,1.41449275 L148.068243,3.68695652 L146.136918,5.10144928 L144.205593,3.68695652 L144.205593,1.41449275 L146.136918,0 Z M36.0513983,22.9565217 L37.9827232,24.3710145 L37.9827232,26.6434783 L36.0513983,28.057971 L34.1200734,26.6434783 L34.1200734,24.3710145 L36.0513983,22.9565217 Z M146.136918,22.9565217 L148.068243,24.3710145 L148.068243,26.6434783 L146.136918,28.057971 L144.205593,26.6434783 L144.205593,24.3710145 L146.136918,22.9565217 Z M36.0513983,10.8405797 L37.9827232,12.2550725 L37.9827232,14.5275362 L36.0513983,15.942029 L34.1200734,14.5275362 L34.1200734,12.2550725 L36.0513983,10.8405797 Z M146.136918,10.8405797 L148.068243,12.2550725 L148.068243,14.5275362 L146.136918,15.942029 L144.205593,14.5275362 L144.205593,12.2550725 L146.136918,10.8405797 Z M36.0513983,32.5217391 L37.9827232,33.9362319 L37.9827232,36.2086957 L36.0513983,37.6231884 L34.1200734,36.2086957 L34.1200734,33.9362319 L36.0513983,32.5217391 Z M146.136918,32.5217391 L148.068243,33.9362319 L148.068243,36.2086957 L146.136918,37.6231884 L144.205593,36.2086957 L144.205593,33.9362319 L146.136918,32.5217391 Z M39.9140482,5.73913043 L41.8453731,7.15362319 L41.8453731,9.42608696 L39.9140482,10.8405797 L37.9827232,9.42608696 L37.9827232,7.15362319 L39.9140482,5.73913043 Z M149.999568,5.73913043 L151.930893,7.15362319 L151.930893,9.42608696 L149.999568,10.8405797 L148.068243,9.42608696 L148.068243,7.15362319 L149.999568,5.73913043 Z M39.9140482,27.4202899 L41.8453731,28.8347826 L41.8453731,31.1072464 L39.9140482,32.5217391 L37.9827232,31.1072464 L37.9827232,28.8347826 L39.9140482,27.4202899 Z M149.999568,27.4202899 L151.930893,28.8347826 L151.930893,31.1072464 L149.999568,32.5217391 L148.068243,31.1072464 L148.068243,28.8347826 L149.999568,27.4202899 Z M39.9140482,17.2173913 L41.8453731,18.6318841 L41.8453731,20.9043478 L39.9140482,22.3188406 L37.9827232,20.9043478 L37.9827232,18.6318841 L39.9140482,17.2173913 Z M149.999568,17.2173913 L151.930893,18.6318841 L151.930893,20.9043478 L149.999568,22.3188406 L148.068243,20.9043478 L148.068243,18.6318841 L149.999568,17.2173913 Z M39.9140482,38.8985507 L41.8453731,40.3130435 L41.8453731,42.5855072 L39.9140482,44 L37.9827232,42.5855072 L37.9827232,40.3130435 L39.9140482,38.8985507 Z M149.999568,38.8985507 L151.930893,40.3130435 L151.930893,42.5855072 L149.999568,44 L148.068243,42.5855072 L148.068243,40.3130435 L149.999568,38.8985507 Z M63.0899471,0 L65.021272,1.41449275 L65.021272,3.68695652 L63.0899471,5.10144928 L61.1586222,3.68695652 L61.1586222,1.41449275 L63.0899471,0 Z M173.175467,0 L175.106792,1.41449275 L175.106792,3.68695652 L173.175467,5.10144928 L171.244142,3.68695652 L171.244142,1.41449275 L173.175467,0 Z M63.0899471,22.9565217 L65.021272,24.3710145 L65.021272,26.6434783 L63.0899471,28.057971 L61.1586222,26.6434783 L61.1586222,24.3710145 L63.0899471,22.9565217 Z M173.175467,22.9565217 L175.106792,24.3710145 L175.106792,26.6434783 L173.175467,28.057971 L171.244142,26.6434783 L171.244142,24.3710145 L173.175467,22.9565217 Z M63.0899471,10.8405797 L65.021272,12.2550725 L65.021272,14.5275362 L63.0899471,15.942029 L61.1586222,14.5275362 L61.1586222,12.2550725 L63.0899471,10.8405797 Z M173.175467,10.8405797 L175.106792,12.2550725 L175.106792,14.5275362 L173.175467,15.942029 L171.244142,14.5275362 L171.244142,12.2550725 L173.175467,10.8405797 Z M63.0899471,32.5217391 L65.021272,33.9362319 L65.021272,36.2086957 L63.0899471,37.6231884 L61.1586222,36.2086957 L61.1586222,33.9362319 L63.0899471,32.5217391 Z M173.175467,32.5217391 L175.106792,33.9362319 L175.106792,36.2086957 L173.175467,37.6231884 L171.244142,36.2086957 L171.244142,33.9362319 L173.175467,32.5217391 Z M67.5963719,5.73913043 L69.5276968,7.15362319 L69.5276968,9.42608696 L67.5963719,10.8405797 L65.665047,9.42608696 L65.665047,7.15362319 L67.5963719,5.73913043 Z M177.681892,5.73913043 L179.613217,7.15362319 L179.613217,9.42608696 L177.681892,10.8405797 L175.750567,9.42608696 L175.750567,7.15362319 L177.681892,5.73913043 Z M67.5963719,27.4202899 L69.5276968,28.8347826 L69.5276968,31.1072464 L67.5963719,32.5217391 L65.665047,31.1072464 L65.665047,28.8347826 L67.5963719,27.4202899 Z M177.681892,27.4202899 L179.613217,28.8347826 L179.613217,31.1072464 L177.681892,32.5217391 L175.750567,31.1072464 L175.750567,28.8347826 L177.681892,27.4202899 Z M67.5963719,17.2173913 L69.5276968,18.6318841 L69.5276968,20.9043478 L67.5963719,22.3188406 L65.665047,20.9043478 L65.665047,18.6318841 L67.5963719,17.2173913 Z M177.681892,17.2173913 L179.613217,18.6318841 L179.613217,20.9043478 L177.681892,22.3188406 L175.750567,20.9043478 L175.750567,18.6318841 L177.681892,17.2173913 Z M67.5963719,38.8985507 L69.5276968,40.3130435 L69.5276968,42.5855072 L67.5963719,44 L65.665047,42.5855072 L65.665047,40.3130435 L67.5963719,38.8985507 Z M177.681892,38.8985507 L179.613217,40.3130435 L179.613217,42.5855072 L177.681892,44 L175.750567,42.5855072 L175.750567,40.3130435 L177.681892,38.8985507 Z M91.4160458,0 L93.3473707,1.41449275 L93.3473707,3.68695652 L91.4160458,5.10144928 L89.4847209,3.68695652 L89.4847209,1.41449275 L91.4160458,0 Z M202.145341,0 L204.076666,1.41449275 L204.076666,3.68695652 L202.145341,5.10144928 L200.214016,3.68695652 L200.214016,1.41449275 L202.145341,0 Z M91.4160458,22.9565217 L93.3473707,24.3710145 L93.3473707,26.6434783 L91.4160458,28.057971 L89.4847209,26.6434783 L89.4847209,24.3710145 L91.4160458,22.9565217 Z M202.145341,22.9565217 L204.076666,24.3710145 L204.076666,26.6434783 L202.145341,28.057971 L200.214016,26.6434783 L200.214016,24.3710145 L202.145341,22.9565217 Z M91.4160458,10.8405797 L93.3473707,12.2550725 L93.3473707,14.5275362 L91.4160458,15.942029 L89.4847209,14.5275362 L89.4847209,12.2550725 L91.4160458,10.8405797 Z M202.145341,10.8405797 L204.076666,12.2550725 L204.076666,14.5275362 L202.145341,15.942029 L200.214016,14.5275362 L200.214016,12.2550725 L202.145341,10.8405797 Z M91.4160458,32.5217391 L93.3473707,33.9362319 L93.3473707,36.2086957 L91.4160458,37.6231884 L89.4847209,36.2086957 L89.4847209,33.9362319 L91.4160458,32.5217391 Z M202.145341,32.5217391 L204.076666,33.9362319 L204.076666,36.2086957 L202.145341,37.6231884 L200.214016,36.2086957 L200.214016,33.9362319 L202.145341,32.5217391 Z M95.2786956,5.73913043 L97.2100205,7.15362319 L97.2100205,9.42608696 L95.2786956,10.8405797 L93.3473707,9.42608696 L93.3473707,7.15362319 L95.2786956,5.73913043 Z M204.720441,5.73913043 L206.651765,7.15362319 L206.651765,9.42608696 L204.720441,10.8405797 L202.789116,9.42608696 L202.789116,7.15362319 L204.720441,5.73913043 Z M95.2786956,27.4202899 L97.2100205,28.8347826 L97.2100205,31.1072464 L95.2786956,32.5217391 L93.3473707,31.1072464 L93.3473707,28.8347826 L95.2786956,27.4202899 Z M204.720441,27.4202899 L206.651765,28.8347826 L206.651765,31.1072464 L204.720441,32.5217391 L202.789116,31.1072464 L202.789116,28.8347826 L204.720441,27.4202899 Z M95.2786956,17.2173913 L97.2100205,18.6318841 L97.2100205,20.9043478 L95.2786956,22.3188406 L93.3473707,20.9043478 L93.3473707,18.6318841 L95.2786956,17.2173913 Z M204.720441,17.2173913 L206.651765,18.6318841 L206.651765,20.9043478 L204.720441,22.3188406 L202.789116,20.9043478 L202.789116,18.6318841 L204.720441,17.2173913 Z M95.2786956,38.8985507 L97.2100205,40.3130435 L97.2100205,42.5855072 L95.2786956,44 L93.3473707,42.5855072 L93.3473707,40.3130435 L95.2786956,38.8985507 Z M204.720441,38.8985507 L206.651765,40.3130435 L206.651765,42.5855072 L204.720441,44 L202.789116,42.5855072 L202.789116,40.3130435 L204.720441,38.8985507 Z M21.888349,0 L23.8196739,1.41449275 L23.8196739,3.68695652 L21.888349,5.10144928 L19.9570241,3.68695652 L19.9570241,1.41449275 L21.888349,0 Z M131.973869,0 L133.905194,1.41449275 L133.905194,3.68695652 L131.973869,5.10144928 L130.042544,3.68695652 L130.042544,1.41449275 L131.973869,0 Z M21.888349,22.9565217 L23.8196739,24.3710145 L23.8196739,26.6434783 L21.888349,28.057971 L19.9570241,26.6434783 L19.9570241,24.3710145 L21.888349,22.9565217 Z M131.973869,22.9565217 L133.905194,24.3710145 L133.905194,26.6434783 L131.973869,28.057971 L130.042544,26.6434783 L130.042544,24.3710145 L131.973869,22.9565217 Z M21.888349,10.8405797 L23.8196739,12.2550725 L23.8196739,14.5275362 L21.888349,15.942029 L19.9570241,14.5275362 L19.9570241,12.2550725 L21.888349,10.8405797 Z M131.973869,10.8405797 L133.905194,12.2550725 L133.905194,14.5275362 L131.973869,15.942029 L130.042544,14.5275362 L130.042544,12.2550725 L131.973869,10.8405797 Z M21.888349,32.5217391 L23.8196739,33.9362319 L23.8196739,36.2086957 L21.888349,37.6231884 L19.9570241,36.2086957 L19.9570241,33.9362319 L21.888349,32.5217391 Z M131.973869,32.5217391 L133.905194,33.9362319 L133.905194,36.2086957 L131.973869,37.6231884 L130.042544,36.2086957 L130.042544,33.9362319 L131.973869,32.5217391 Z M26.3947738,5.73913043 L28.3260987,7.15362319 L28.3260987,9.42608696 L26.3947738,10.8405797 L24.4634489,9.42608696 L24.4634489,7.15362319 L26.3947738,5.73913043 Z M136.480294,5.73913043 L138.411619,7.15362319 L138.411619,9.42608696 L136.480294,10.8405797 L134.548969,9.42608696 L134.548969,7.15362319 L136.480294,5.73913043 Z M26.3947738,27.4202899 L28.3260987,28.8347826 L28.3260987,31.1072464 L26.3947738,32.5217391 L24.4634489,31.1072464 L24.4634489,28.8347826 L26.3947738,27.4202899 Z M136.480294,27.4202899 L138.411619,28.8347826 L138.411619,31.1072464 L136.480294,32.5217391 L134.548969,31.1072464 L134.548969,28.8347826 L136.480294,27.4202899 Z M26.3947738,17.2173913 L28.3260987,18.6318841 L28.3260987,20.9043478 L26.3947738,22.3188406 L24.4634489,20.9043478 L24.4634489,18.6318841 L26.3947738,17.2173913 Z M136.480294,17.2173913 L138.411619,18.6318841 L138.411619,20.9043478 L136.480294,22.3188406 L134.548969,20.9043478 L134.548969,18.6318841 L136.480294,17.2173913 Z M26.3947738,38.8985507 L28.3260987,40.3130435 L28.3260987,42.5855072 L26.3947738,44 L24.4634489,42.5855072 L24.4634489,40.3130435 L26.3947738,38.8985507 Z M136.480294,38.8985507 L138.411619,40.3130435 L138.411619,42.5855072 L136.480294,44 L134.548969,42.5855072 L134.548969,40.3130435 L136.480294,38.8985507 Z M49.5706727,0 L51.5019976,1.41449275 L51.5019976,3.68695652 L49.5706727,5.10144928 L47.6393478,3.68695652 L47.6393478,1.41449275 L49.5706727,0 Z M159.656193,0 L161.587518,1.41449275 L161.587518,3.68695652 L159.656193,5.10144928 L157.724868,3.68695652 L157.724868,1.41449275 L159.656193,0 Z M49.5706727,22.9565217 L51.5019976,24.3710145 L51.5019976,26.6434783 L49.5706727,28.057971 L47.6393478,26.6434783 L47.6393478,24.3710145 L49.5706727,22.9565217 Z M159.656193,22.9565217 L161.587518,24.3710145 L161.587518,26.6434783 L159.656193,28.057971 L157.724868,26.6434783 L157.724868,24.3710145 L159.656193,22.9565217 Z M49.5706727,10.8405797 L51.5019976,12.2550725 L51.5019976,14.5275362 L49.5706727,15.942029 L47.6393478,14.5275362 L47.6393478,12.2550725 L49.5706727,10.8405797 Z M159.656193,10.8405797 L161.587518,12.2550725 L161.587518,14.5275362 L159.656193,15.942029 L157.724868,14.5275362 L157.724868,12.2550725 L159.656193,10.8405797 Z M49.5706727,32.5217391 L51.5019976,33.9362319 L51.5019976,36.2086957 L49.5706727,37.6231884 L47.6393478,36.2086957 L47.6393478,33.9362319 L49.5706727,32.5217391 Z M159.656193,32.5217391 L161.587518,33.9362319 L161.587518,36.2086957 L159.656193,37.6231884 L157.724868,36.2086957 L157.724868,33.9362319 L159.656193,32.5217391 Z M54.0770975,5.73913043 L56.0084224,7.15362319 L56.0084224,9.42608696 L54.0770975,10.8405797 L52.1457726,9.42608696 L52.1457726,7.15362319 L54.0770975,5.73913043 Z M164.162617,5.73913043 L166.093942,7.15362319 L166.093942,9.42608696 L164.162617,10.8405797 L162.231293,9.42608696 L162.231293,7.15362319 L164.162617,5.73913043 Z M54.0770975,27.4202899 L56.0084224,28.8347826 L56.0084224,31.1072464 L54.0770975,32.5217391 L52.1457726,31.1072464 L52.1457726,28.8347826 L54.0770975,27.4202899 Z M164.162617,27.4202899 L166.093942,28.8347826 L166.093942,31.1072464 L164.162617,32.5217391 L162.231293,31.1072464 L162.231293,28.8347826 L164.162617,27.4202899 Z M54.0770975,17.2173913 L56.0084224,18.6318841 L56.0084224,20.9043478 L54.0770975,22.3188406 L52.1457726,20.9043478 L52.1457726,18.6318841 L54.0770975,17.2173913 Z M164.162617,17.2173913 L166.093942,18.6318841 L166.093942,20.9043478 L164.162617,22.3188406 L162.231293,20.9043478 L162.231293,18.6318841 L164.162617,17.2173913 Z M54.0770975,38.8985507 L56.0084224,40.3130435 L56.0084224,42.5855072 L54.0770975,44 L52.1457726,42.5855072 L52.1457726,40.3130435 L54.0770975,38.8985507 Z M164.162617,38.8985507 L166.093942,40.3130435 L166.093942,42.5855072 L164.162617,44 L162.231293,42.5855072 L162.231293,40.3130435 L164.162617,38.8985507 Z M77.8967714,0 L79.8280963,1.41449275 L79.8280963,3.68695652 L77.8967714,5.10144928 L75.9654465,3.68695652 L75.9654465,1.41449275 L77.8967714,0 Z M186.694741,0 L188.626066,1.41449275 L188.626066,3.68695652 L186.694741,5.10144928 L184.763416,3.68695652 L184.763416,1.41449275 L186.694741,0 Z M77.8967714,22.9565217 L79.8280963,24.3710145 L79.8280963,26.6434783 L77.8967714,28.057971 L75.9654465,26.6434783 L75.9654465,24.3710145 L77.8967714,22.9565217 Z M186.694741,22.9565217 L188.626066,24.3710145 L188.626066,26.6434783 L186.694741,28.057971 L184.763416,26.6434783 L184.763416,24.3710145 L186.694741,22.9565217 Z M77.8967714,10.8405797 L79.8280963,12.2550725 L79.8280963,14.5275362 L77.8967714,15.942029 L75.9654465,14.5275362 L75.9654465,12.2550725 L77.8967714,10.8405797 Z M186.694741,10.8405797 L188.626066,12.2550725 L188.626066,14.5275362 L186.694741,15.942029 L184.763416,14.5275362 L184.763416,12.2550725 L186.694741,10.8405797 Z M77.8967714,32.5217391 L79.8280963,33.9362319 L79.8280963,36.2086957 L77.8967714,37.6231884 L75.9654465,36.2086957 L75.9654465,33.9362319 L77.8967714,32.5217391 Z M186.694741,32.5217391 L188.626066,33.9362319 L188.626066,36.2086957 L186.694741,37.6231884 L184.763416,36.2086957 L184.763416,33.9362319 L186.694741,32.5217391 Z M81.1156463,5.73913043 L83.0469712,7.15362319 L83.0469712,9.42608696 L81.1156463,10.8405797 L79.1843213,9.42608696 L79.1843213,7.15362319 L81.1156463,5.73913043 Z M191.201166,5.73913043 L193.132491,7.15362319 L193.132491,9.42608696 L191.201166,10.8405797 L189.269841,9.42608696 L189.269841,7.15362319 L191.201166,5.73913043 Z M81.1156463,27.4202899 L83.0469712,28.8347826 L83.0469712,31.1072464 L81.1156463,32.5217391 L79.1843213,31.1072464 L79.1843213,28.8347826 L81.1156463,27.4202899 Z M191.201166,27.4202899 L193.132491,28.8347826 L193.132491,31.1072464 L191.201166,32.5217391 L189.269841,31.1072464 L189.269841,28.8347826 L191.201166,27.4202899 Z M81.1156463,17.2173913 L83.0469712,18.6318841 L83.0469712,20.9043478 L81.1156463,22.3188406 L79.1843213,20.9043478 L79.1843213,18.6318841 L81.1156463,17.2173913 Z M191.201166,17.2173913 L193.132491,18.6318841 L193.132491,20.9043478 L191.201166,22.3188406 L189.269841,20.9043478 L189.269841,18.6318841 L191.201166,17.2173913 Z M81.1156463,38.8985507 L83.0469712,40.3130435 L83.0469712,42.5855072 L81.1156463,44 L79.1843213,42.5855072 L79.1843213,40.3130435 L81.1156463,38.8985507 Z M191.201166,38.8985507 L193.132491,40.3130435 L193.132491,42.5855072 L191.201166,44 L189.269841,42.5855072 L189.269841,40.3130435 L191.201166,38.8985507 Z M104.93532,0 L106.866645,1.41449275 L106.866645,3.68695652 L104.93532,5.10144928 L103.003995,3.68695652 L103.003995,1.41449275 L104.93532,0 Z M215.664615,0 L217.59594,1.41449275 L217.59594,3.68695652 L215.664615,5.10144928 L213.73329,3.68695652 L213.73329,1.41449275 L215.664615,0 Z M104.93532,22.9565217 L106.866645,24.3710145 L106.866645,26.6434783 L104.93532,28.057971 L103.003995,26.6434783 L103.003995,24.3710145 L104.93532,22.9565217 Z M215.664615,22.9565217 L217.59594,24.3710145 L217.59594,26.6434783 L215.664615,28.057971 L213.73329,26.6434783 L213.73329,24.3710145 L215.664615,22.9565217 Z M104.93532,10.8405797 L106.866645,12.2550725 L106.866645,14.5275362 L104.93532,15.942029 L103.003995,14.5275362 L103.003995,12.2550725 L104.93532,10.8405797 Z M215.664615,10.8405797 L217.59594,12.2550725 L217.59594,14.5275362 L215.664615,15.942029 L213.73329,14.5275362 L213.73329,12.2550725 L215.664615,10.8405797 Z M104.93532,32.5217391 L106.866645,33.9362319 L106.866645,36.2086957 L104.93532,37.6231884 L103.003995,36.2086957 L103.003995,33.9362319 L104.93532,32.5217391 Z M215.664615,32.5217391 L217.59594,33.9362319 L217.59594,36.2086957 L215.664615,37.6231884 L213.73329,36.2086957 L213.73329,33.9362319 L215.664615,32.5217391 Z M108.154195,5.73913043 L110.08552,7.15362319 L110.08552,9.42608696 L108.154195,10.8405797 L106.22287,9.42608696 L106.22287,7.15362319 L108.154195,5.73913043 Z M218.88349,5.73913043 L220.814815,7.15362319 L220.814815,9.42608696 L218.88349,10.8405797 L216.952165,9.42608696 L216.952165,7.15362319 L218.88349,5.73913043 Z M108.154195,27.4202899 L110.08552,28.8347826 L110.08552,31.1072464 L108.154195,32.5217391 L106.22287,31.1072464 L106.22287,28.8347826 L108.154195,27.4202899 Z M218.88349,27.4202899 L220.814815,28.8347826 L220.814815,31.1072464 L218.88349,32.5217391 L216.952165,31.1072464 L216.952165,28.8347826 L218.88349,27.4202899 Z M108.154195,17.2173913 L110.08552,18.6318841 L110.08552,20.9043478 L108.154195,22.3188406 L106.22287,20.9043478 L106.22287,18.6318841 L108.154195,17.2173913 Z M218.88349,17.2173913 L220.814815,18.6318841 L220.814815,20.9043478 L218.88349,22.3188406 L216.952165,20.9043478 L216.952165,18.6318841 L218.88349,17.2173913 Z M108.154195,38.8985507 L110.08552,40.3130435 L110.08552,42.5855072 L108.154195,44 L106.22287,42.5855072 L106.22287,40.3130435 L108.154195,38.8985507 Z M218.88349,38.8985507 L220.814815,40.3130435 L220.814815,42.5855072 L218.88349,44 L216.952165,42.5855072 L216.952165,40.3130435 L218.88349,38.8985507 Z" id="Combined-Shape-Copy-6"></path>
                    </g>
                    <g id="renter_illustrasi3" transform="translate(33.000000, 0.000000)">
                        <rect id="Rectangle-33" fill="#1D5060" x="17" y="39" width="151" height="99" rx="4"></rect>
                        <path d="M2.83299145,133 L181.287766,133 C182.784449,133 183.99775,134.213301 183.99775,135.709984 C183.99775,136.368915 183.757671,137.005273 183.32243,137.5 L180.558132,140.642105 C179.798727,141.505301 178.704617,142 177.55492,142 L5.87868121,142 C4.60432367,142 3.40622854,141.392781 2.65275351,140.365035 L0.552300982,137.5 C-0.371146794,136.240409 -0.0986492212,134.470707 1.16094135,133.547259 C1.64592758,133.1917 2.23163112,133 2.83299145,133 Z" id="Rectangle-33" fill="#1D5060"></path>
                        <rect id="Rectangle-33" fill="#FFFFFF" x="22" y="42" width="143" height="90" rx="1"></rect>
                        <rect id="Rectangle-2" fill="#ECECEC" x="28" y="83" width="131" height="43"></rect>
                        <g id="Group-38" transform="translate(49.000000, 21.000000)">
                            <g id="Group-37">
                                <rect id="Rectangle-22" fill="#F4B895" x="0" y="0" width="87" height="73.2727273" rx="2"></rect>
                                <path d="M74.5714286,19.7272727 C69.3238095,15.8171986 66.7,12.5242144 66.7,9.84832016 C66.7,7.4743083 67.8614487,5.63636364 70.1089487,5.63636364 C71.3414487,5.63636364 73.1525,6.24901186 73.95,7.24456522 C74.7475,6.24901186 75.98,5.63636364 77.2125,5.63636364 C79.46,5.63636364 81.2,7.4743083 81.2,9.84832016 C81.2,12.1359125 78.9904762,15.4288967 74.5714286,19.7272727 Z" id="Shape" fill="#FFFFFF" fill-rule="nonzero"></path>
                                <rect id="Rectangle-22-Copy" fill="#1D5060" x="0" y="62" width="87" height="31" rx="2"></rect>
                                <path d="M13.05,73.2727273 L68.875,73.2727273" id="Path-35" stroke="#F4B895" stroke-width="2" stroke-linecap="round" stroke-linejoin="round"></path>
                                <path d="M13.05,81.7272727 L51.9445295,81.7272727" id="Path-35-Copy" stroke="#F4B895" stroke-width="2" stroke-linecap="round" stroke-linejoin="round"></path>
                            </g>
                            <g id="building" transform="translate(20.000000, 15.000000)" fill="#E09467" fill-rule="nonzero">
                                <path d="M0,39.8377322 L20.3677419,39.8377322 L20.3677419,0 L0,0 L0,39.8377322 Z M12.7298387,4.97971652 L17.8217742,4.97971652 L17.8217742,9.95943304 L12.7298387,9.95943304 L12.7298387,4.97971652 Z M12.7298387,14.9391496 L17.8217742,14.9391496 L17.8217742,19.9188661 L12.7298387,19.9188661 L12.7298387,14.9391496 Z M12.7298387,24.8985826 L17.8217742,24.8985826 L17.8217742,29.8782991 L12.7298387,29.8782991 L12.7298387,24.8985826 Z M2.54596774,4.97971652 L7.63790323,4.97971652 L7.63790323,9.95943304 L2.54596774,9.95943304 L2.54596774,4.97971652 Z M2.54596774,14.9391496 L7.63790323,14.9391496 L7.63790323,19.9188661 L2.54596774,19.9188661 L2.54596774,14.9391496 Z M2.54596774,24.8985826 L7.63790323,24.8985826 L7.63790323,29.8782991 L2.54596774,29.8782991 L2.54596774,24.8985826 Z M22.9137097,12.4492913 L40.7354839,12.4492913 L40.7354839,14.9391496 L22.9137097,14.9391496 L22.9137097,12.4492913 Z M22.9137097,39.8377322 L28.0056452,39.8377322 L28.0056452,29.8782991 L35.6435484,29.8782991 L35.6435484,39.8377322 L40.7354839,39.8377322 L40.7354839,17.4290078 L22.9137097,17.4290078 L22.9137097,39.8377322 Z" id="Shape"></path>
                            </g>
                        </g>
                        <g id="001-star" transform="translate(29.000000, 0.000000)" fill-rule="nonzero">
                            <path d="M10.1841239,25.8846483 C10.1841239,21.9963666 3.808929,15.4883551 0,15.4883551 C3.808929,15.4883551 10.1841239,8.98034363 10.1841239,5.09206195 C10.1841239,8.98034363 16.5593188,15.4883551 20.3682478,15.4883551 C16.5593188,15.4883551 10.1841239,21.9963666 10.1841239,25.8846483 Z" id="Shape" fill="#FFD83B"></path>
                            <path d="M10.3962931,19.5195708 C10.3962931,18.0123507 7.87229756,15.4883551 6.36507744,15.4883551 C7.87229756,15.4883551 10.3962931,12.9643595 10.3962931,11.4571394 C10.3962931,12.9643595 12.9202887,15.4883551 14.4275089,15.4883551 C12.9194913,15.4883551 10.3962931,18.0115532 10.3962931,19.5195708 Z" id="Shape" fill="#FFE98A"></path>
                            <g id="Group" transform="translate(0.424338, 0.000000)" fill="#FFD83B">
                                <path d="M17.047713,11.397363 C17.047713,9.53604329 13.9354077,6.42042594 12.0760666,6.42042594 C13.9354077,6.42042594 17.047713,3.30480859 17.047713,1.44348887 C17.047713,3.30480859 20.1600184,6.42042594 22.0193595,6.42042594 C20.1600184,6.42042594 17.047713,9.53604329 17.047713,11.397363 Z" id="Shape"></path>
                                <path d="M2.5622235,25.428107 C2.5622235,24.4692697 0.959426439,22.864767 0.00160842655,22.864767 C0.959426439,22.864767 2.5622235,21.2602643 2.5622235,20.3014271 C2.5622235,21.2602643 4.16502056,22.864767 5.12283857,22.864767 C4.16502056,22.8655721 2.5622235,24.4700748 2.5622235,25.428107 Z" id="Shape"></path>
                                <path d="M5.86512743,7.11520056 C5.86512743,5.78442136 3.6406735,3.55760028 2.31130896,3.55760028 C3.6406735,3.55760028 5.86512743,1.33077919 5.86512743,0 C5.86512743,1.33077919 8.08958135,3.55760028 9.4189459,3.55760028 C8.08958135,3.55760028 5.86512743,5.78442136 5.86512743,7.11520056 Z" id="Shape"></path>
                            </g>
                        </g>
                    </g>
                    <g id="Group-4" transform="translate(175.000000, 88.000000)">
                        <g id="003-time" transform="translate(19.500000, 19.500000) scale(-1, 1) translate(-19.500000, -19.500000) " fill-rule="nonzero">
                            <circle id="Oval" fill-opacity="0.409816576" fill="#A6B2B8" cx="20.5" cy="20.5" r="18.5"></circle>
                            <circle id="Oval" fill="#FFD83B" cx="18" cy="18" r="18"></circle>
                            <path d="M0,18.4410456 C0,18.6286355 0.00806896552,18.8136819 0.0136551724,19 L18,19 L18,0 C8.05903448,0 0,8.25650122 0,18.4410456 Z" id="Shape" fill="#FFE98A"></path>
                            <path d="M18.3888889,3 C18.0515556,3 17.7777778,3.29226923 17.7777778,3.65384615 L17.7777778,18.6923077 L8.61111111,18.6923077 C8.27377778,18.6923077 8,18.9845769 8,19.3461538 C8,19.7077308 8.27377778,20 8.61111111,20 L18.3888889,20 C18.7262222,20 19,19.7077308 19,19.3461538 L19,3.65384615 C19,3.29226923 18.7262222,3 18.3888889,3 Z" id="Shape" fill="#1D5060"></path>
                        </g>
                        <circle id="Oval-2" stroke="#F0B492" stroke-width="2" cx="21" cy="18" r="18"></circle>
                    </g>
                </g>
            </g>
        </g>
    </g>
</svg>