<?xml version="1.0" encoding="UTF-8"?>
<svg width="59px" height="41px" viewBox="0 0 59 41" version="1.1" xmlns="http://www.w3.org/2000/svg" xmlns:xlink="http://www.w3.org/1999/xlink">
    <!-- Generator: sketchtool 51.1 (57501) - http://www.bohemiancoding.com/sketch -->
    <title>755DDE18-528B-4095-99A5-B7E9BF8B81D1</title>
    <desc>Created with sketchtool.</desc>
    <defs></defs>
    <g id="Page-1" stroke="none" stroke-width="1" fill="none" fill-rule="evenodd">
        <g id="List-Your-Property---Step-1-(Estate-type)-Coliving-Selected-" transform="translate(-312.000000, -389.000000)">
            <g id="co-living" transform="translate(288.000000, 365.000000)">
                <g id="coliving" transform="translate(24.000000, 24.000000)">
                    <rect id="Rectangle-25" fill="#ECECEC" opacity="0.5" x="5" y="0" width="40" height="40" rx="20"></rect>
                    <g id="Group-20" transform="translate(0.000000, 7.000000)">
                        <path d="M25,10 L54,10 C56.209139,10 58,11.790861 58,14 L58,25 L21,25 L21,14 C21,11.790861 22.790861,10 25,10 Z" id="Rectangle-7-Copy" fill="#1D5060"></path>
                        <path d="M21,10 L50,10 C52.209139,10 54,11.790861 54,14 L54,25 L17,25 L17,14 C17,11.790861 18.790861,10 21,10 Z" id="Rectangle-7" fill="#50ACA3"></path>
                        <path d="M4,18 L18,18 C19.1045695,18 20,18.8954305 20,20 L20,32 L2,32 L2,20 C2,18.8954305 2.8954305,18 4,18 Z" id="Rectangle-27-Copy-4" fill="#1D5060"></path>
                        <path d="M9,21 L23,21 C24.1045695,21 25,21.8954305 25,23 L25,31.8543009 L7,31.8543009 L7,23 C7,21.8954305 7.8954305,21 9,21 Z" id="Rectangle-27" fill="#1D5060"></path>
                        <path d="M26,21 L41,21 C42.1045695,21 43,21.8954305 43,23 L43,31.8543009 L24,31.8543009 L24,23 C24,21.8954305 24.8954305,21 26,21 Z" id="Rectangle-27-Copy" fill="#1D5060"></path>
                        <path d="M7,23 L41.0246724,23 L41.0246724,30 C41.0246724,31.1045695 40.1292419,32 39.0246724,32 L9,32 C7.8954305,32 7,31.1045695 7,30 L7,23 Z" id="Rectangle-26" fill="#50ACA3"></path>
                        <path d="M4,18 L5,18 C6.1045695,18 7,18.8954305 7,20 L7,32 L2,32 L2,20 C2,18.8954305 2.8954305,18 4,18 Z" id="Rectangle-27-Copy-3" fill="#3C958C"></path>
                        <path d="M39.8095994,17.3139572 C39.4109702,17.7905989 38.8665753,18.373231 38.1764148,19.0618534 L31.6605622,19.0618534 C30.9138033,19.1857842 30.1881145,18.7470862 29.9508193,18.0282686 C29.7076456,17.2917495 29.9242715,16.808072 30.6006656,16.5772466 C31.5957519,16.2376647 32.3212991,16.5091392 32.7773072,17.3916699 L36.9986276,17.207332 L40.0078809,12.3114371 C40.3611132,11.736747 40.9802452,11.37884 41.654537,11.3595405 L47.8299553,11.182768 C48.4145194,11.1660367 48.9771219,11.4059925 49.3696669,11.839471 C51.8637701,14.5936522 53.1108217,16.0983448 53.1108217,16.3535486 C53.1108217,16.7668922 52.9170234,18.0380627 52.2643025,18.0380627 L47.687578,18.0380627 L46.593445,21.3531278 L39.09897,20.9132228 L39.8095994,17.3139572 Z M48.6280711,15.1885041 L48.4697456,15.6682076 C48.6720597,15.6367262 48.8785484,15.60511 49.0892115,15.5733589 L48.6280711,15.1885041 Z" id="Combined-Shape" fill="#FFFFFF"></path>
                        <path d="M37.3475344,16.5786649 C37.4317317,16.5994255 37.5211199,16.6219314 37.615699,16.6461824 C38.2418919,16.8067447 38.7141732,17.3035878 39.0325429,18.1367118 C38.7710507,18.4153224 38.4768564,18.7177115 38.1499601,19.0438793 L31.6341075,19.0438793 C30.8873486,19.1678102 30.1616598,18.7291121 29.9243647,18.0102945 C29.6811909,17.2737754 29.8978169,16.7900979 30.5742109,16.5592725 C31.5692972,16.2196907 32.2948444,16.4911651 32.7508526,17.3736959 L36.972173,17.1893579 L37.3475344,16.5786649 Z" id="Combined-Shape" fill="#E09467"></path>
                        <path d="M39.7090173,19 L31.3074782,19 C30.3702265,19 29.5586848,19.6508661 29.3551885,20.5657595 L27,31.1543866 L30.3930015,31.1543866 C32.1824173,25.4861786 33.0771252,22.5912658 33.0771252,22.4696479 C33.0771252,22.3480301 36.3758729,22.3480301 42.9733681,22.4696479 L41.1963409,19 L39.7090173,19 Z" id="Path-5" fill="#BFBFBF"></path>
                        <path d="M19.0026854,18.8084855 L8.51239277,18.9749595 C7.58712656,18.9896429 6.79275702,19.6371597 6.59183771,20.5404673 L4.2310236,31.1543866 L6.40585791,31.1543866 C8.70086005,25.3549014 9.84836112,22.3943498 9.84836112,22.272732 C9.84836112,22.1511142 13.6258466,22.1511142 21.1808175,22.272732 L21.1808175,19.5708589 L19.0026854,18.8084855 Z" id="Path-5-Copy-2" fill="#BABABA"></path>
                        <path d="M45.7090173,19 L37.3074782,19 C36.3702265,19 35.5586848,19.6508661 35.3551885,20.5657595 L33,31.1543866 L36.3930015,31.1543866 C38.1824173,25.4861786 39.0771252,22.5912658 39.0771252,22.4696479 C39.0771252,22.3480301 42.3758729,22.3480301 48.9733681,22.4696479 L47.1963409,19 L45.7090173,19 Z" id="Path-5-Copy" fill="#DBDBDB"></path>
                        <path d="M22.9400409,19 C23.1299888,18.8771253 22.4759051,18.815688 20.9777897,18.815688 C19.6896559,18.815688 17.5269172,18.8611097 14.4895736,18.9519532 L14.4895743,18.9519755 C13.5750792,18.979327 12.7957409,19.6237448 12.5970967,20.5168237 L10.2310236,31.1543866 L12.9344781,31.0298537 C14.9184159,25.4446677 15.9103848,22.5912658 15.9103848,22.4696479 C15.9103848,22.3480301 19.3417204,22.3480301 26.2043917,22.4696479 L24.4273645,19 L22.9400409,19 Z" id="Path-5-Copy-3" fill="#DBDBDB"></path>
                        <path d="M43,18 L57,18 C58.1045695,18 59,18.8954305 59,20 L59,32 L41,32 L41,20 C41,18.8954305 41.8954305,18 43,18 Z" id="Rectangle-27-Copy-2" fill="#1D5060"></path>
                        <path d="M23.0771521,31.7910791 L25.7888295,31.7910791 L26.4680884,32.3128625 L27.023568,31 L27.6976264,31 L30.4087834,31 L30.1573874,33.6797987 L29.5453293,34 L23.0033249,34 C22.4609187,34 22.0174013,33.5675907 22.0036465,33.0253589 L22.0003533,32.8955395 C21.9852675,32.30084 22.4551373,31.8065113 23.0498369,31.7914255 C23.0589401,31.7911945 23.068046,31.7910791 23.0771521,31.7910791 Z" id="Rectangle-5" fill="#DB8452"></path>
                        <path d="M29.0771521,31.7910791 L31.7888295,31.7910791 L32.4680884,32.3128625 L33.023568,31 L33.6976264,31 L36.4087834,31 L36.1573874,33.6797987 L35.5453293,34 L29.0033249,34 C28.4609187,34 28.0174013,33.5675907 28.0036465,33.0253589 L28.0003533,32.8955395 C27.9852675,32.30084 28.4551373,31.8065113 29.0498369,31.7914255 C29.0589401,31.7911945 29.068046,31.7910791 29.0771521,31.7910791 Z" id="Rectangle-5-Copy" fill="#EE9867"></path>
                        <path d="M43,18 L44,18 C45.1045695,18 46,18.8954305 46,20 L46,32 L41,32 L41,20 C41,18.8954305 41.8954305,18 43,18 Z" id="Rectangle-27-Copy-2" fill="#3C958C"></path>
                        <path d="M53.1441249,16.3495077 C53.1441249,16.7628513 52.9503267,18.0340218 52.2976057,18.0340218 L43.3672918,18.0340218 C43.2351705,19.8568927 43.1567928,20.7498068 42.6547517,20.9767408 C42.1678725,21.1968212 40.4137886,20.7498068 40.4137886,20.7498068 C40.4137886,20.7498068 40.4971183,18.5005987 40.9908342,17.6031074 C41.3055956,17.0309249 43.9326905,16.3760284 48.4851846,15.6669478 C48.5306754,15.6694753 48.5766596,15.6720368 48.623137,15.6746322 C48.6540151,15.6599039 48.68471,15.6454722 48.7152217,15.6313372 C48.8492065,15.6107216 48.9849709,15.5900485 49.1225147,15.569318 L49.0310007,15.4929429 C49.6240582,15.2485085 50.1416678,15.1262913 50.5838294,15.1262913 C51.1220617,15.1262913 51.7638514,15.2168396 52.5091982,15.397936 C52.9324827,15.9271824 53.1441249,16.244373 53.1441249,16.3495077 Z" id="Combined-Shape" fill="#E09467"></path>
                        <path d="M44,9 L46.669547,9 L46.669547,11.3381858 L45.3432016,11.7488481 C44.8536183,11.9004326 44.3211156,11.7376285 44,11.3381858 L44,9 Z" id="Rectangle-6" fill="#DB8452"></path>
                        <path d="M43,5.02995612 C43,6.16910019 43,7.14811108 43,7.96698879 C43,9.19530535 43.5562578,10.2216234 44.642653,10.3948894 C45.7290482,10.5681554 47.6379126,9.66906594 47.867773,7.96698879 C48.0976334,6.26491164 49.3075568,3.88021873 46.589501,3.1574427 C44.7774638,2.67559201 43.5809635,3.29976315 43,5.02995612 Z" id="Path-6" fill="#E09467"></path>
                        <path d="M22.9900022,0.750778523 C23.6294415,0.301319371 24.3646732,0.151499654 25.1956974,0.301319371 C25.8004054,0.410338076 26.8107296,1.05140525 27.0696298,2.08748739 C27.3444228,3.18716995 26.8433517,4.69776979 26.6345763,5.27264431 C26.3642587,6.01697833 26.5092766,7.64368708 27.0696298,10.1527706 C25.4544556,10.712945 24.4832743,10.9112974 24.156086,10.7478277 C23.3439643,10.3420756 23.9463511,8.58940292 23.6924805,8.52355745 C23.5968048,8.49874238 23.8647421,8.81570237 22.9900022,9.08693421 C22.5870722,9.21187128 22.0199062,8.53909041 21.9733563,8.52355745 C21.6622142,8.41973413 20.7047605,6.38012917 21.4239303,5.83513657 C22.3477641,5.13504797 25.0432012,5.89078533 24.8844954,5.67606573 C24.5095552,5.16879369 23.8780575,3.52703129 22.9900022,0.750778523 Z" id="Path-14" fill="#1D5060"></path>
                        <path d="M42,4.24073236 C42.3099475,4.77782612 42.8871934,5.11265989 43.7317375,5.24523367 C44.5762816,5.37780746 45.3913649,5.37780746 46.1769873,5.24523367 L46.3812045,7.23629553 C46.5954652,6.86736545 46.8744504,6.68290041 47.2181602,6.68290041 C47.56187,6.68290041 47.4552413,7.32406019 46.8982739,8.60637975 C47.3209991,8.58173502 47.6068479,8.47093201 47.7558206,8.27397072 C48.5886328,7.17288416 48.9078064,5.67066594 48.9078064,4.9593296 C48.9078064,4.05712853 48.5238112,3.48636193 47.7558206,3.24702979 C46.9874648,2.4156766 45.9652662,2 44.6892249,2 C43.4131837,2 42.5167753,2.74691079 42,4.24073236 Z" id="Path-7" fill="#1D5060"></path>
                        <path d="M20.4381994,9.48066682 C17.7307351,13.9660538 16.1895592,16.2087473 15.8146717,16.2087473 C15.2523404,16.2087473 9.10236129,16.8860338 9.10236129,16.8860338 C9.10236129,16.8860338 6.51690317,16.1310904 6.06397589,17.9755211 C5.6110486,19.8199518 7.70205374,19.3050553 7.97447051,18.8825879 C8.1560817,18.600943 8.63496654,18.2985874 9.41112505,17.9755211 L16.8613111,17.9755211 C19.0289611,15.6502845 20.2212572,14.264411 20.4381994,13.8179008 C20.6551416,13.3713906 20.6551416,11.9256459 20.4381994,9.48066682 Z" id="Path-9" fill="#F4B895"></path>
                        <path d="M22.3657424,19.5741033 C22.8732319,20.1990521 23.0699982,21.1660591 22.9560414,22.4751243 C23.9910889,22.4751243 24.8250267,22.4751243 25.4578546,22.4751243 C26.4070964,22.4751243 27.9267527,22.1360683 27.9267527,19.8354785 C27.9267527,19.0780235 27.130636,16.5260266 27.130636,15.2694225 C27.130636,13.1494723 28.0999014,11.5787863 28.2170755,11.0331568 C28.3076331,10.6114693 28.0825637,10.0093925 27.5418675,9.22692643 C27.2890381,9.03775034 26.8742701,8.92086588 26.2975635,8.87627306 C25.7208568,8.83168024 24.8183965,8.83168024 23.5901825,8.87627306 L20.9752372,9.22692643 L20.3274661,9.52926422 L19.2825287,12.2745827 C19.0664411,12.8423002 19.1200811,13.4774563 19.4283184,14.0008938 L19.9873838,14.9502782 L19.9873838,17.2034573 L18.9406576,18.8980553 C20.716558,18.7238051 21.858253,18.9491545 22.3657424,19.5741033 Z" id="Path-8" fill="#FFFFFF"></path>
                        <path d="M27.8430445,11.0071122 L25.2242473,18.7365169 C25.0867066,19.1424696 24.7057515,19.4156249 24.2771315,19.4156249 L18.1648276,19.4156249 C17.1811543,19.9650676 16.6017857,20.3448764 16.4267218,20.5550511 C16.1641259,20.8703132 14.4982829,21.1270301 14.0715645,20.5550511 C13.6448462,19.9830721 15.7901205,18.7528736 16.7359067,18.5066899 C17.681693,18.2605063 23.2719081,17.5518766 23.5952538,17.5518766 C23.9185996,17.5518766 24.4645612,10.6296126 25.1759218,10.1454514 C25.5167808,9.91345835 25.4681681,8.96721704 27.134011,9.566264 C27.372239,9.65193218 27.6085835,10.1322149 27.8430445,11.0071122 Z" id="Path-10" fill="#F4B895"></path>
                        <path d="M4.29015937,31 L6.41179493,31 L6.23789601,33.9335812 L5.41601157,33.9335812 L4.84181965,32.6484896 C4.11354648,33.4072707 3.40945488,33.8356346 2.72954485,33.9335812 C2.04963482,34.0315278 1.15193007,34.0315278 0.0364305982,33.9335812 C-0.112384019,33.008066 0.19471874,32.4570923 0.957738875,32.2806599 C1.72075901,32.1042276 2.83156584,31.6773409 4.29015937,31 Z" id="Path-12" fill="#1D5060"></path>
                        <path d="M10.3425085,31 L12.9078064,31 L12.9078064,33.9335812 L11.9976568,33.9335812 L11.3618003,32.6484896 C10.5553153,33.4072707 9.77560868,33.8356346 9.02268063,33.9335812 C8.26975258,34.0315278 7.27564004,34.0315278 6.04034301,33.9335812 C5.65616038,32.8316337 5.99624402,32.2806599 7.06059395,32.2806599 C8.12494387,32.2806599 9.21891539,31.8537733 10.3425085,31 Z" id="Path-12-Copy" fill="#2F7489"></path>
                        <path d="M22.6937515,7 L24.669547,7 L24.669547,9.33818582 L24.1571845,9.59184139 C23.6661748,9.83492586 23.0743094,9.73233834 22.6937515,9.33818582 L22.6937515,7 Z" id="Rectangle-6-Copy" fill="#EE9867"></path>
                        <path d="M21.0035504,3.02995612 C20.9810014,4.24698546 21.0658601,5.29069233 21.2581266,6.16107671 C21.5465264,7.4666533 21.8492993,8.41158202 22.4834305,8.41158202 C23.1175617,8.41158202 25.6414631,7.66906594 25.8713235,5.96698879 C26.1011839,4.26491164 27.3111073,1.88021873 24.5930515,1.1574427 C22.7810143,0.675592014 21.5845139,1.29976315 21.0035504,3.02995612 Z" id="Path-6-Copy" fill="#F4B895" transform="translate(23.668903, 4.705791) scale(-1, 1) translate(-23.668903, -4.705791) "></path>
                        <path d="M24.7931641,2.29533101 C25.1446589,3.09972898 24.6714517,3.70544912 23.3735426,4.11249145 C21.4266789,4.72305494 21.8132118,6.91852834 22.4398129,7.89620383 C22.8575469,8.5479875 22.8575469,9.27552455 22.4398129,10.078815 C21.3073388,9.92422212 20.6556374,9.31576726 20.4847088,8.25345041 C20.2283158,6.65997514 19.6075166,4.12672164 20.0461127,2.58009332 C20.4847088,1.033465 22.2311927,0.203428378 23.520564,0.757444493 C24.3801449,1.12678857 24.8043449,1.63941741 24.7931641,2.29533101 Z" id="Path-13" fill="#1D5060"></path>
                        <path d="M24.8109998,3.24447658 C25.336715,3.90301328 25.9372377,4.16077769 26.6125679,4.01776982 C27.6255633,3.803258 26.6000522,2.16073731 26.0146042,1.66251868 C25.4291562,1.16430004 23.609989,0.769650955 23.1061724,1.15524193 C22.7702947,1.41230258 23.3385705,2.10871413 24.8109998,3.24447658 Z" id="Path-15" fill="#1D5060"></path>
                    </g>
                </g>
            </g>
        </g>
    </g>
</svg>