<?xml version="1.0" encoding="UTF-8"?>
<svg width="138px" height="36px" viewBox="0 0 138 36" version="1.1" xmlns="http://www.w3.org/2000/svg" xmlns:xlink="http://www.w3.org/1999/xlink">
    <!-- Generator: sketchtool 51.1 (57501) - http://www.bohemiancoding.com/sketch -->
    <title>7A141ED1-1A76-4500-AB60-15E28D2B7C9A</title>
    <desc>Created with sketchtool.</desc>
    <defs>
        <polygon id="path-1" points="0.000112653061 0.51975 31.0630678 0.51975 31.0630678 29.4047437 0.000112653061 29.4047437"></polygon>
        <polygon id="path-3" points="0.51888 0.38086875 16.1185127 0.38086875 16.1185127 24.75 0.51888 24.75"></polygon>
    </defs>
    <g id="Page-1" stroke="none" stroke-width="1" fill="none" fill-rule="evenodd">
        <g id="Dashboard_My-rent" transform="translate(-45.000000, -32.000000)">
            <g id="Side-nav">
                <g id="Logo" transform="translate(45.000000, 32.000000)">
                    <path d="M15.5256196,16.297425 C16.5569584,17.4106125 18.1735298,19.1847375 18.8224114,20.918925 C17.8012114,21.139425 16.6960849,21.25755 15.5380114,21.269925 C14.3838808,21.25755 13.2855135,21.141675 12.2710727,20.923425 C12.9177012,19.2454875 14.3872604,17.514675 15.2192033,16.619175 L15.5256196,16.297425 Z M9.88733388,12.8313 C10.0456114,12.8313 10.2044522,12.8431125 10.3627298,12.8673 C11.4030808,13.0219875 12.3245829,13.3561125 13.70064,14.544675 L13.7935788,14.62455 L14.6925502,13.69305 L14.5894727,13.6036125 C14.5230073,13.5468 14.5100522,13.534425 14.5021665,13.52655 C14.4920278,13.516425 14.490338,13.514175 14.4114808,13.4506125 L14.3568441,13.3696125 C14.1704033,13.0923 14.0712686,12.7632375 14.0712686,12.4173 C14.0712686,11.52855 14.7336686,10.8057375 15.5475869,10.8057375 C16.3615053,10.8057375 17.023342,11.52855 17.023342,12.4173 C17.023342,12.7548 16.9264604,13.0804875 16.7433992,13.358925 C16.2657502,13.73805 15.7841584,14.17005 15.3087624,14.6453625 L14.5832767,15.4058625 C13.5739053,16.4374875 11.7894808,18.468675 11.0369584,20.601675 C8.38003592,19.7506125 6.77923592,18.2014875 6.63898286,16.340175 C6.56744816,15.3979875 6.88850939,14.5092375 7.54246041,13.8376125 C8.16993796,13.190175 9.02046857,12.8313 9.88733388,12.8313 Z M24.3998645,12.8678625 C23.3859869,11.8278 21.9412114,11.3283 20.5319216,11.5353 L20.5313584,11.5353 C19.80024,11.644425 19.044338,11.909925 18.2816767,12.326175 C18.2602727,11.5617375 17.967938,10.8496125 17.4514237,10.3062375 C17.520142,9.9057375 17.7640359,9.1227375 18.6162563,9.1227375 L18.7452441,9.1227375 L18.7452441,7.9369875 L18.6162563,7.9369875 C17.2193584,7.9369875 16.6679216,9.03105 16.4702155,9.6334875 C15.8754073,9.4023 15.2152604,9.403425 14.6238318,9.6346125 C14.4261257,9.03105 13.874689,7.9369875 12.477791,7.9369875 L12.3488033,7.9369875 L12.3488033,9.1227375 L12.477791,9.1227375 C13.331138,9.1227375 13.5744686,9.9068625 13.6431869,10.3073625 C13.12104,10.856925 12.828142,11.5786125 12.8129339,12.353175 C12.0271788,11.914425 11.280289,11.6461125 10.5356522,11.5353 C9.12636245,11.3288625 7.68102367,11.828925 6.66770939,12.86955 C5.7371951,13.8263625 5.28151347,15.0976125 5.38402776,16.448175 C5.57722776,18.99855 7.62469714,21.0207375 11.004289,21.998925 L11.611489,22.1603625 C12.6467706,22.4089875 13.7901992,22.556925 15.0107951,22.6002375 L15.0107951,22.6216125 L15.5284359,22.6137375 L15.7447298,22.6193625 L16.0150971,22.601925 C17.1168441,22.5653625 18.1577584,22.4427375 19.1130563,22.2379875 C19.1158727,22.2858 19.1169992,22.3308 19.1169992,22.3758 C19.1169992,24.0453 18.17184,25.1343 17.3793257,25.7536125 C17.1343053,25.9443 16.9433584,26.078175 16.7591706,26.188425 L16.4837339,26.3493 L16.6915788,26.4573 C16.7017176,26.4623625 16.9399788,26.58555 17.3021584,26.6896125 C17.3072278,26.6907375 17.7775543,26.8099875 18.0017339,26.8099875 C18.0473584,26.8099875 18.0828441,26.804925 18.1025584,26.79255 C18.5514808,26.5129875 18.7728441,26.285175 18.9609747,26.0753625 C19.1474155,25.866675 19.4746727,25.4071125 19.4915706,25.3834875 C20.0700441,24.4953 20.3758971,23.4558 20.3758971,22.3758 C20.3758971,22.1502375 20.3544931,21.9072375 20.3083053,21.60855 C20.3071788,21.6046125 20.2283216,21.1703625 20.1534073,20.9093625 C19.6278808,19.089675 18.2518237,17.377425 16.9540604,15.935175 L16.9568767,15.9318 L16.7507216,15.696675 C16.6476441,15.5802375 16.5456931,15.4699875 16.443742,15.3608625 C16.8205665,15.0008625 17.2041502,14.66955 17.5826645,14.3764875 L17.6215298,14.3478 C18.7165176,13.5057375 19.7540522,13.0084875 20.7065339,12.8673 C21.7311135,12.71205 22.7849829,13.0748625 23.5256767,13.8364875 C24.1796278,14.508675 24.500689,15.39855 24.4297176,16.340175 C24.3170645,17.831925 23.2254563,19.1487375 21.3503461,20.057175 L21.3503461,20.0566125 L21.1582727,20.1454875 C21.1210971,20.1634875 21.0923706,20.1769875 21.0326645,20.2023 L20.9262073,20.2467375 L20.9588767,20.3581125 C20.9915461,20.468925 21.1577094,21.0398625 21.1898155,21.39705 L21.2050237,21.5703 L21.3666808,21.5056125 C21.4083624,21.488175 21.420191,21.4848 21.4297665,21.4819875 C21.4444114,21.4774875 21.4551135,21.4741125 21.5170727,21.447675 L21.5722727,21.42405 C24.0635951,20.3344875 25.524142,18.567675 25.6852359,16.448175 C25.7883135,15.0987375 25.3315053,13.826925 24.3998645,12.8678625 Z" id="Fill-1" fill="#00D7C2"></path>
                    <g id="Group-5" transform="translate(0.000000, 0.042975)">
                        <mask id="mask-2" fill="white">
                            <use xlink:href="#path-1"></use>
                        </mask>
                        <g id="Clip-4"></g>
                        <path d="M15.8554678,27.1254937 C15.8391331,27.1204312 15.8233616,27.1159312 15.8075902,27.1086187 C13.0729371,25.9206187 12.2899984,24.0503062 12.0804637,23.3021812 C12.0759576,23.2858687 12.0697616,23.2532437 12.0691984,23.2526812 L12.0511739,23.1581812 L11.9548555,23.1486187 C11.9526024,23.1486187 11.7323657,23.1272437 11.4011657,23.0642437 C11.0699657,23.0006812 10.9161943,22.9641187 10.9145045,22.9635562 L10.7291902,22.9196812 L10.7680555,23.1840562 C10.860431,23.7954937 11.0558841,24.3849937 11.3459657,24.9334312 C11.8861371,26.0331187 12.7800392,26.9623687 13.8823494,27.5771812 C9.23428408,28.7753062 3.38308408,27.7419937 3.32506776,27.7301812 C2.10165551,27.4854937 1.2494351,26.2845562 1.2494351,25.3592437 C1.2494351,24.2674312 1.25788408,16.0538062 1.25957388,14.6700562 L1.25957388,14.4698062 L1.24154939,13.5647437 L1.25281469,10.5958687 C1.25281469,10.5919312 1.26013714,10.1998687 1.44319837,9.88205625 C1.59809633,9.61318125 1.8419902,9.43936875 1.93492898,9.37580625 L1.93605551,9.37805625 L14.8162433,1.95080625 C14.8759494,1.91874375 15.191378,1.75899375 15.5310269,1.75899375 C15.8825045,1.75899375 16.184978,1.91761875 16.2165208,1.93505625 L29.1378269,9.37186875 C29.1406433,9.37411875 29.4504392,9.56143125 29.6318106,9.87530625 C29.8154351,10.1942437 29.8221943,10.5851812 29.8221943,10.5879937 L29.819378,25.0881187 C29.819378,26.6552437 29.3220147,27.0158062 28.5024637,27.4253062 C27.307778,28.0215562 22.1865698,28.5581812 17.7345208,27.6086812 C17.2540555,27.5237437 16.80288,27.4185562 16.3550841,27.2858062 C16.1945535,27.2379937 16.0390922,27.1884937 15.8887004,27.1356187 L15.8554678,27.1254937 Z M30.7065208,9.25599375 C30.3708147,8.67493125 29.8571167,8.35599375 29.7574188,8.29805625 L16.8406188,0.86405625 C16.7803494,0.82861875 16.2334188,0.51924375 15.5310269,0.51924375 C14.8280718,0.51924375 14.2597371,0.84099375 14.1972147,0.87643125 L3.71090449,6.94018125 L1.3209698,8.30199375 C1.26013714,8.33686875 0.716586122,8.65861875 0.367924898,9.26274375 C0.029402449,9.84943125 0.0119412245,10.4738062 0.0119412245,10.5924937 L0.000112653061,13.5743062 L0.0181371429,14.4816187 C0.0181371429,14.4816187 0.00856163265,24.1667437 0.00856163265,25.3592437 C0.00856163265,26.7941812 1.24323918,28.5778687 3.08173714,28.9451812 C3.87763102,29.1043687 6.04338612,29.4047437 8.54372082,29.4047437 C9.42523102,29.4047437 10.2735086,29.3681812 11.0648963,29.2956187 C12.8110188,29.1353062 14.3459167,28.8084937 15.6279086,28.3224937 C20.3311739,29.9036812 27.3319984,29.3946187 29.05728,28.5334312 C30.0705943,28.0271812 31.0608147,27.3437437 31.0608147,25.0881187 L31.0630678,10.5913687 C31.0630678,10.4709937 31.0456065,9.84324375 30.7065208,9.25599375 Z" id="Fill-3" fill="#00D7C2" mask="url(#mask-2)"></path>
                    </g>
                    <path d="M52.213849,22.16475 C52.213849,20.40075 51.1250571,18.7666875 49.4397673,18.0016875 C48.5064367,17.578125 47.5438163,17.544375 46.7698898,17.517375 L46.5716204,17.510625 C46.0404612,17.5021875 45.536902,17.5100625 45.1724694,17.4020625 C44.8035306,17.2636875 44.439098,16.76025 44.3872776,16.5015 C44.3399633,16.0081875 44.4796531,15.61275 44.7871959,15.3264375 C45.5628122,14.605875 47.0791224,14.814 47.3754,14.8640625 C48.0332939,14.97375 48.4146245,15.246 48.8562245,15.561 C49.0567469,15.6853125 49.3051469,15.771375 49.5597429,15.7989375 C50.0892122,15.85575 50.6096694,15.658875 50.9650898,15.2769375 C51.5689102,14.61825 51.5187796,13.5849375 50.8518735,12.9740625 C50.0835796,12.268125 49.1530653,11.8389375 47.9245837,11.6240625 C46.3006898,11.350125 44.0155224,11.55825 42.4761184,12.9740625 C41.4515388,13.95225 40.9919143,15.222375 41.1124531,16.7445 C41.2341184,18.327375 42.5392041,19.962 44.0842408,20.466 C45.730102,21.05325 47.311751,20.5785 48.0834245,21.0054375 C48.4957347,21.1674375 48.9457837,21.5994375 48.9457837,22.16475 C48.9457837,22.633875 48.6928776,23.076 48.2856367,23.319 C46.9050735,24.226875 44.598502,23.4028125 43.9546898,22.7964375 C43.6572857,22.523625 43.2568041,22.3695 42.8495633,22.3695 C42.8208367,22.3695 42.7921102,22.3700625 42.7633837,22.37175 C42.3324857,22.39425 41.9393265,22.5849375 41.6554408,22.9066875 C41.3484612,23.2273125 41.1913102,23.6368125 41.2059551,24.0699375 C41.2200367,24.5109375 41.4064776,24.917625 41.7309184,25.214625 C42.638902,26.06625 44.5934327,26.9803125 46.7445429,26.9803125 C48.0507551,26.9803125 49.152502,26.6788125 50.1139959,26.05725 C51.4269673,25.173 52.213849,23.7166875 52.213849,22.16475" id="Fill-6" fill="#013240"></path>
                    <path d="M57.8898735,17.2200375 L58.1810816,16.7706 C59.0366816,15.4537875 60.4240041,14.69835 61.986502,14.69835 C63.5467469,14.69835 64.8439469,15.4616625 65.544649,16.7936625 L65.7699551,17.2200375 L57.8898735,17.2200375 Z M69.3973837,18.092475 C69.4599061,17.05185 68.8583388,15.869475 68.3998408,15.0690375 C67.2744367,13.196475 65.4348122,11.8909125 63.3558,11.49435 C62.924902,11.407725 62.5035796,11.3700375 61.986502,11.3700375 C57.6854082,11.3700375 54.1869673,14.8789125 54.1869673,19.1910375 C54.1869673,23.503725 57.6854082,27.0126 61.986502,27.0126 C62.8342163,27.0126 65.7665755,26.85285 67.9007878,24.7991625 C68.2252286,24.489225 68.4105429,24.0532875 68.4105429,23.6032875 C68.4105429,23.1679125 68.241,22.7662875 67.9340204,22.4721 C67.6214082,22.146975 67.2107878,21.97035 66.769751,21.966975 C66.3366,21.975975 65.9085184,22.1317875 65.5857673,22.4400375 C64.691302,23.298975 63.0978245,23.7484125 61.986502,23.7484125 C59.9041102,23.7484125 58.0977184,22.3146 57.5935959,20.2626 L57.5046,19.9026 L67.843898,19.9026 C68.6809102,19.9026 69.0639306,19.1482875 69.1608122,18.9171 C69.2757184,18.6296625 69.3973837,18.328725 69.3973837,18.092475 Z" id="Fill-8" fill="#013240"></path>
                    <path d="M92.9241306,13.0825687 C92.9241306,12.1735687 92.1834367,11.4344437 91.2732,11.4344437 C90.3635265,11.4344437 89.6233959,12.1735687 89.6233959,13.0825687 L89.6233959,21.2596312 C89.6233959,22.6495687 88.3605551,23.7807562 86.8076327,23.7807562 C85.2547102,23.7807562 83.9918694,22.6495687 83.9918694,21.2596312 L83.9918694,13.1472562 C83.9918694,12.2382563 83.2511755,11.4996937 82.3409388,11.4996937 C81.4312653,11.4996937 80.6911347,12.2382563 80.6911347,13.1472562 L80.6911347,21.2596312 C80.6911347,22.6495687 79.4282939,23.7807562 77.8753714,23.7807562 C76.322449,23.7807562 75.0596082,22.6495687 75.0596082,21.2596312 L75.0596082,13.1472562 C75.0596082,12.2382563 74.3189143,11.4996937 73.4086776,11.4996937 C72.4984408,11.4996937 71.7583102,12.2382563 71.7583102,13.1472562 L71.7583102,21.2596312 C71.7583102,24.4675687 74.5025388,27.0770062 77.8753714,27.0770062 C79.4525143,27.0770062 80.9688245,26.4846937 82.1443592,25.4086312 L82.3409388,25.2286312 L82.5380816,25.4086312 C83.7136163,26.4846937 85.2299265,27.0770062 86.8076327,27.0770062 C90.1117469,27.0770062 92.7990857,24.6020062 92.9241306,21.4424437 L92.9241306,13.0825687 Z" id="Fill-10" fill="#013240"></path>
                    <path d="M103.148466,23.2958812 C100.738817,23.2958812 98.7792171,21.3676312 98.7792171,18.9972562 C98.7792171,16.6088812 100.738817,14.6660062 103.148466,14.6660062 C105.540091,14.6660062 107.485609,16.6088812 107.485609,18.9972562 C107.485609,21.3676312 105.540091,23.2958812 103.148466,23.2958812 Z M111.401429,12.8885063 C111.401429,12.0188812 110.70467,11.3376937 109.815274,11.3376937 C108.837446,11.3376937 108.391903,12.1420688 108.391903,12.8885063 L108.391903,13.6630687 L107.916507,13.2766312 C106.418221,12.0588188 104.859103,11.4670688 103.148466,11.4670688 C98.9904416,11.4670688 95.6080335,14.8454437 95.6080335,18.9972562 C95.6080335,23.1321937 98.9904416,26.4953812 103.148466,26.4953812 C104.914866,26.4953812 106.471731,25.8946312 107.910311,24.6588187 L108.391903,24.2453812 L108.391903,25.2668812 C108.391903,26.0138812 108.837446,26.8182562 109.815274,26.8182562 C110.70467,26.8182562 111.401429,26.1370687 111.401429,25.2668812 L111.401429,12.8885063 Z" id="Fill-12" fill="#013240"></path>
                    <g id="Group-16" transform="translate(114.342857, 10.730475)">
                        <mask id="mask-4" fill="white">
                            <use xlink:href="#path-3"></use>
                        </mask>
                        <g id="Clip-15"></g>
                        <path d="M8.35108408,12.7592437 C5.90651265,12.7592437 3.91705959,10.7724937 3.91705959,8.33124375 C3.91705959,5.88999375 5.90651265,3.90324375 8.35108408,3.90324375 C10.7781943,3.90324375 12.7524392,5.88999375 12.7524392,8.33124375 C12.7524392,10.7724937 10.7781943,12.7592437 8.35108408,12.7592437 Z M16.1185127,2.06161875 C16.1185127,1.13518125 15.3631739,0.38086875 14.4349127,0.38086875 C13.7268882,0.38086875 13.0977208,0.83930625 12.8312963,1.54974375 L12.7056882,1.88443125 L12.4032147,1.69318125 C11.2090922,0.94055625 9.80768816,0.54286875 8.35108408,0.54286875 C4.03252898,0.54286875 0.51888,4.03711875 0.51888,8.33124375 C0.51888,12.6264937 4.03252898,16.1201812 8.35108408,16.1201812 C9.74122286,16.1201812 11.1110841,15.7433062 12.3119657,15.0300562 L12.7524392,14.7684937 L12.7524392,16.7023687 C12.7524392,19.2684937 10.6621616,21.3564937 8.09198204,21.3564937 C6.69621061,21.3564937 5.41140245,20.7765562 4.56706776,19.7657437 C4.2707902,19.4153062 3.85510041,19.2054937 3.39941878,19.1773687 C3.36449633,19.1751187 3.32957388,19.1739937 3.29521469,19.1739937 C2.88910041,19.1739937 2.50551673,19.3224937 2.2041698,19.5992437 C1.85156571,19.8844312 1.64710041,20.2832437 1.61443102,20.7349312 C1.5823249,21.1787437 1.72595755,21.6326812 2.0075902,21.9814312 C3.52052082,23.7381187 5.74034939,24.7500562 8.09198204,24.7500562 C12.5175576,24.7500562 16.1185127,21.1399312 16.1185127,16.7023687 L16.1185127,2.06161875 Z" id="Fill-14" fill="#013240" mask="url(#mask-4)"></path>
                    </g>
                    <path d="M137.935168,12.7272938 C137.935168,11.8008563 137.179829,11.0471063 136.252131,11.0471063 C135.272613,11.0471063 134.504882,11.7851063 134.504882,12.7272938 L134.504882,25.2029813 C134.504882,26.1468563 135.288384,26.9157938 136.252131,26.9157938 C137.164621,26.9157938 137.935168,26.1311063 137.935168,25.2029813 L137.935168,12.7272938 Z" id="Fill-17" fill="#013240"></path>
                    <path d="M134.504657,6.26326875 C134.504657,7.18970625 135.288159,7.94401875 136.251906,7.94401875 C137.164396,7.94401875 137.934943,7.17451875 137.934943,6.26326875 L137.934943,6.10183125 C137.934943,5.15795625 137.179604,4.38901875 136.251906,4.38901875 C135.272388,4.38901875 134.504657,5.14108125 134.504657,6.10183125 L134.504657,6.26326875 Z" id="Fill-19" fill="#013240"></path>
                </g>
            </g>
        </g>
    </g>
</svg>