<?xml version="1.0" encoding="UTF-8"?>
<svg width="22px" height="6px" viewBox="0 0 22 6" version="1.1" xmlns="http://www.w3.org/2000/svg" xmlns:xlink="http://www.w3.org/1999/xlink">
    <!-- Generator: sketchtool 51.1 (57501) - http://www.bohemiancoding.com/sketch -->
    <title>208576FE-C36A-4C96-8ED1-7BE27B69B6DD</title>
    <desc>Created with sketchtool.</desc>
    <defs></defs>
    <g id="Page-1" stroke="none" stroke-width="1" fill="none" fill-rule="evenodd">
        <g id="Dashboard_My-rent" transform="translate(-1017.000000, -1244.000000)" fill="#6DC7BE" fill-rule="nonzero">
            <g id="Group-15" transform="translate(901.000000, 1235.000000)">
                <g id="Group-23">
                    <path d="M137.926412,11.0696196 C137.877162,11.0227433 137.814583,10.9993463 137.738071,10.9993463 L119.666686,10.9993463 L119.666686,9.24927162 C119.666686,9.14503829 119.614741,9.06956559 119.511197,9.02268932 C119.407394,8.98106714 119.311905,8.99671993 119.224672,9.06956559 L116.081786,11.8352927 C116.027233,11.8874504 116,11.9499521 116,12.0228251 C116,12.0905261 116.027233,12.1504829 116.081786,12.2025311 L119.224701,14.9370621 C119.31202,15.0047631 119.407509,15.017953 119.511226,14.9761119 C119.61477,14.9345171 119.666714,14.8590444 119.666714,14.7495844 L119.666714,12.9995097 L137.738272,12.9995097 C137.814612,12.9995097 137.87742,12.9760032 137.926441,12.9292638 C137.97549,12.8824422 138,12.8226223 138,12.7496672 L138,11.2494898 C138.000086,11.1765621 137.975461,11.1165506 137.926412,11.0696196 Z" id="Shape" transform="translate(127.000000, 12.000000) scale(-1, 1) translate(-127.000000, -12.000000) "></path>
                </g>
            </g>
        </g>
    </g>
</svg>