<?xml version="1.0" encoding="UTF-8"?>
<svg width="35px" height="40px" viewBox="0 0 35 40" version="1.1" xmlns="http://www.w3.org/2000/svg" xmlns:xlink="http://www.w3.org/1999/xlink">
    <!-- Generator: sketchtool 51.1 (57501) - http://www.bohemiancoding.com/sketch -->
    <title>E1B1F7F0-15AC-48BA-AC58-81E46C95BD03@2x</title>
    <desc>Created with sketchtool.</desc>
    <defs></defs>
    <g id="Page-1" stroke="none" stroke-width="1" fill="none" fill-rule="evenodd">
        <g id="List-Your-Property---Step-1-(Location)---map-adjusted" transform="translate(-591.000000, -770.000000)" fill-rule="nonzero">
            <g id="pin-point" transform="translate(591.000000, 770.000000)">
                <rect id="Rectangle-3" fill="#1D5060" x="0" y="0" width="2" height="40" rx="1"></rect>
                <path d="M3,0 L33.4007689,2.44249065e-15 C33.9530537,2.34103759e-15 34.4007689,0.44771525 34.4007689,1 C34.4007689,1.15170479 34.366253,1.30142121 34.2998346,1.43781378 L29.3385977,11.6258848 C29.2033494,11.9036217 29.204056,12.2282759 29.3405118,12.5054215 L34.2901511,22.5582771 C34.5341079,23.0537602 34.3302056,23.6531947 33.8347225,23.8971515 C33.6973016,23.9648123 33.5461742,24 33.3929996,24 L3,24 L3,0 Z" id="Rectangle-6" fill="#1D5060"></path>
                <g id="Group" transform="translate(9.000000, 6.000000)" fill="#FFFFFF">
                    <path d="M12.1550388,10.4186047 L1.73643411,10.4186047 C1.25631008,10.4186047 0.868217054,10.8075659 0.868217054,11.2868217 C0.868217054,11.7660775 1.25631008,12.1550388 1.73643411,12.1550388 L12.1550388,12.1550388 C12.6351628,12.1550388 13.0232558,11.7660775 13.0232558,11.2868217 C13.0232558,10.8075659 12.6351628,10.4186047 12.1550388,10.4186047 Z" id="Shape"></path>
                    <path d="M2.60465116,0 C2.12452713,0 1.73643411,0.38896124 1.73643411,0.868217054 L1.73643411,11.2868217 C1.73643411,11.7660775 2.12452713,12.1550388 2.60465116,12.1550388 C3.08477519,12.1550388 3.47286822,11.7660775 3.47286822,11.2868217 L3.47286822,0.868217054 C3.47286822,0.38896124 3.08477519,0 2.60465116,0 Z" id="Shape"></path>
                    <path d="M11.2868217,3.1004031 C10.8066977,3.1004031 10.4186047,3.48936434 10.4186047,3.96862016 L10.4186047,11.2868217 C10.4186047,11.7660775 10.8066977,12.1550388 11.2868217,12.1550388 C11.7669457,12.1550388 12.1550388,11.7660775 12.1550388,11.2868217 L12.1550388,3.96862016 C12.1550388,3.48936434 11.7669457,3.1004031 11.2868217,3.1004031 Z" id="Shape"></path>
                    <path d="M7.65246512,0.363782946 C7.37289922,-0.0269147287 6.83026357,-0.116341085 6.44130233,0.161488372 L0.363782946,4.50257364 C-0.0260465116,4.78127132 -0.116341085,5.32390698 0.162356589,5.71373643 C0.331658915,5.95075969 0.597333333,6.07751938 0.869085271,6.07751938 C1.0435969,6.07751938 1.21984496,6.02455814 1.37351938,5.91603101 L7.45103876,1.57494574 C7.84086822,1.29624806 7.93116279,0.753612403 7.65246512,0.363782946 Z" id="Shape"></path>
                    <path d="M13.5285581,4.50257364 L7.45103876,0.161488372 C7.0612093,-0.116341085 6.51857364,-0.0260465116 6.23987597,0.363782946 C5.96031008,0.753612403 6.05147287,1.29624806 6.44130233,1.57494574 L12.5188217,5.91603101 C12.6716279,6.02455814 12.847876,6.07751938 13.0223876,6.07751938 C13.2941395,6.07751938 13.559814,5.95075969 13.7299845,5.71373643 C14.0095504,5.32390698 13.9183876,4.78127132 13.5285581,4.50257364 Z" id="Shape"></path>
                    <path d="M6.94573643,7.81395349 C6.4656124,7.81395349 6.07751938,8.20291473 6.07751938,8.68217054 L6.07751938,11.2868217 C6.07751938,11.7660775 6.4656124,12.1550388 6.94573643,12.1550388 C7.42586047,12.1550388 7.81395349,11.7660775 7.81395349,11.2868217 L7.81395349,8.68217054 C7.81395349,8.20291473 7.42586047,7.81395349 6.94573643,7.81395349 Z" id="Shape"></path>
                </g>
            </g>
        </g>
    </g>
</svg>