<?xml version="1.0" encoding="UTF-8"?>
<svg width="14px" height="13px" viewBox="0 0 14 13" version="1.1" xmlns="http://www.w3.org/2000/svg" xmlns:xlink="http://www.w3.org/1999/xlink">
    <!-- Generator: sketchtool 51.1 (57501) - http://www.bohemiancoding.com/sketch -->
    <title>8C44DDA1-7D19-4DA0-8C31-35C6E8AB0DCD</title>
    <desc>Created with sketchtool.</desc>
    <defs></defs>
    <g id="Page-1" stroke="none" stroke-width="1" fill="none" fill-rule="evenodd">
        <g id="Rent-details-7b_-Installment-(pop-up-i-icon)" transform="translate(-512.000000, -647.000000)">
            <g id="Group-28" transform="translate(511.000000, 643.000000)">
                <g id="Group-2" transform="translate(0.000000, 2.000000)">
                    <rect id="Rectangle-4" x="0" y="0" width="16" height="16"></rect>
                    <g id="005-calendar-2" transform="translate(1.000000, 2.000000)">
                        <rect id="Rectangle-6" fill="#6DC7BE" x="1" y="1" width="12" height="3"></rect>
                        <path d="M0.536697248,12.8926606 L13.4055046,12.8926606 C13.6798165,12.8926606 13.8944954,12.6779817 13.8944954,12.4036697 L13.8944954,1.49082569 C13.8944954,1.21651376 13.6798165,1.00183486 13.4055046,1.00183486 L10.9844037,1.00183486 L10.9844037,0.58440367 C10.9844037,0.310091743 10.7697248,0.095412844 10.4954128,0.095412844 C10.2211009,0.095412844 10.006422,0.310091743 10.006422,0.58440367 L10.006422,1.00183486 L4.01926606,1.00183486 L4.01926606,0.58440367 C4.01926606,0.310091743 3.80458716,0.095412844 3.53027523,0.095412844 C3.2559633,0.095412844 3.0412844,0.310091743 3.0412844,0.58440367 L3.0412844,1.00183486 L0.536697248,1.00183486 C0.262385321,1.00183486 0.047706422,1.21651376 0.047706422,1.49082569 L0.047706422,12.4155963 C0.047706422,12.6779817 0.274311927,12.8926606 0.536697248,12.8926606 Z M1.02568807,1.97981651 L3.0412844,1.97981651 L3.0412844,2.24220183 C3.0412844,2.51651376 3.2559633,2.73119266 3.53027523,2.73119266 C3.80458716,2.73119266 4.01926606,2.51651376 4.01926606,2.24220183 L4.01926606,1.97981651 L10.006422,1.97981651 L10.006422,2.24220183 C10.006422,2.51651376 10.2211009,2.73119266 10.4954128,2.73119266 C10.7697248,2.73119266 10.9844037,2.51651376 10.9844037,2.24220183 L10.9844037,1.97981651 L12.9284404,1.97981651 L12.9284404,3.2440367 L1.02568807,3.2440367 L1.02568807,1.97981651 Z M1.02568807,4.22201835 L12.9165138,4.22201835 L12.9165138,11.9266055 L1.02568807,11.9266055 L1.02568807,4.22201835 Z" id="Shape" fill="#013240" fill-rule="nonzero"></path>
                        <path d="M10.4954128,6.46422018 L3.4587156,6.46422018 C3.18440367,6.46422018 2.96972477,6.67889908 2.96972477,6.95321101 C2.96972477,7.22752294 3.18440367,7.44220183 3.4587156,7.44220183 L10.4954128,7.44220183 C10.7697248,7.44220183 10.9844037,7.22752294 10.9844037,6.95321101 C10.9844037,6.67889908 10.7697248,6.46422018 10.4954128,6.46422018 Z" id="Shape" fill="#6DC7BE" fill-rule="nonzero"></path>
                        <path d="M6.97706422,8.82568807 L3.4587156,8.82568807 C3.18440367,8.82568807 2.96972477,9.04036697 2.96972477,9.3146789 C2.96972477,9.58899083 3.18440367,9.80366972 3.4587156,9.80366972 L6.97706422,9.80366972 C7.25137615,9.80366972 7.46605505,9.58899083 7.46605505,9.3146789 C7.46605505,9.04036697 7.25137615,8.82568807 6.97706422,8.82568807 Z" id="Shape" fill="#6DC7BE" fill-rule="nonzero"></path>
                    </g>
                </g>
            </g>
        </g>
    </g>
</svg>