<?xml version="1.0" encoding="UTF-8"?>
<svg width="16px" height="16px" viewBox="0 0 16 16" version="1.1" xmlns="http://www.w3.org/2000/svg" xmlns:xlink="http://www.w3.org/1999/xlink">
    <!-- Generator: sketchtool 51.1 (57501) - http://www.bohemiancoding.com/sketch -->
    <title>BC6114B5-6652-454A-ADCB-C9C643A7232F</title>
    <desc>Created with sketchtool.</desc>
    <defs></defs>
    <g id="Page-1" stroke="none" stroke-width="1" fill="none" fill-rule="evenodd">
        <g id="Dashboard_renter_MBL" transform="translate(-300.000000, -3116.000000)">
            <g id="Group-52" transform="translate(24.000000, 2162.000000)">
                <g id="Group-47-Copy" transform="translate(0.000000, 567.000000)">
                    <g id="TwoColored/Edit" transform="translate(274.000000, 385.000000)">
                        <rect id="Background" x="0" y="0" width="20" height="20"></rect>
                        <g id="Paxel_Icons_16x16px_Two-Colors-Add-Details" fill-rule="nonzero">
                            <rect id="Rectangle-path" x="0.0025" y="0" width="19.9975" height="20"></rect>
                            <g id="Group" transform="translate(1.250000, 2.500000)">
                                <path d="M6.62844134,6.3075 C6.59094134,6.27125 6.54219134,6.25 6.48969134,6.25 C6.43594134,6.25 6.38594134,6.2725 6.35094134,6.30875 L5.38695044,8.92430305 C5.30945044,9.00180305 5.31195044,9.12430305 5.38695044,9.20055305 L6.15315633,10.9432723 C6.18940633,10.9795223 7.00139342,10.9105361 7.05264342,10.9105361 C8.00809284,10.8186696 8.49790088,10.7606531 8.52206755,10.7364864 L9.60344134,9.5625 C9.68094134,9.485 9.67969134,9.3625 9.60344134,9.28625 L6.62844134,6.3075 Z" id="Shape" fill="#6DC7BE"></path>
                                <path d="M15.925,14.6425 L1.5775,14.6425 C1.265,14.6425 1.01375,14.39 1.01375,14.07875 C1.01375,13.7675 1.265,13.515 1.5775,13.515 L15.925,13.515 C16.2375,13.515 16.48875,13.7675 16.48875,14.07875 C16.48875,14.39 16.2375,14.6425 15.925,14.6425 Z" id="Shape" fill="#013240"></path>
                                <path d="M4.90125,11.2 C4.79,11.09 4.72875,10.9375 4.73625,10.78 L4.85625,7.68375 C4.86125,7.54125 4.92,7.405 5.02,7.305 L11.80375,0.5225 C11.91,0.41625 12.05375,0.3575 12.2025,0.3575 C12.35375,0.3575 12.495,0.41625 12.6,0.5225 L15.57875,3.50125 C15.79875,3.72125 15.79875,4.0775 15.57875,4.29875 L10.9745416,8.91131349 C10.7545416,9.13256349 10.3982916,9.13256349 10.1770416,8.91131349 C9.95579157,8.69131349 9.95579157,8.33381349 10.1770416,8.11381349 L14.38125,3.89875 L12.2025,1.72 L5.9775,7.94625 L5.8875,10.2125 L8.155,10.12625 L10.67,7.6125 C10.89,7.39125 11.24625,7.39125 11.4675,7.6125 C11.68875,7.83375 11.68875,8.19 11.4675,8.41125 L8.7975,11.08125 C8.6975,11.1825 8.5625,11.24125 8.42,11.24625 L5.3225,11.365 C5.15125,11.36625 5.0075,11.3075 4.90125,11.2 Z" id="Shape" fill="#013240"></path>
                            </g>
                        </g>
                    </g>
                </g>
            </g>
        </g>
    </g>
</svg>