<?xml version="1.0" encoding="UTF-8"?>
<svg width="16px" height="11px" viewBox="0 0 16 11" version="1.1" xmlns="http://www.w3.org/2000/svg" xmlns:xlink="http://www.w3.org/1999/xlink">
    <!-- Generator: sketchtool 51.2 (57519) - http://www.bohemiancoding.com/sketch -->
    <title>AFAEA01D-3293-4EF2-9DAC-BACD6520EA93</title>
    <desc>Created with sketchtool.</desc>
    <defs></defs>
    <g id="Page-1" stroke="none" stroke-width="1" fill="none" fill-rule="evenodd">
        <g id="Dashboard---Edit-profile-(Add-emergency-contact)" transform="translate(-457.000000, -1162.000000)">
            <g id="pop-up" transform="translate(368.000000, 884.000000)">
                <g id="Group-34-Copy-14" transform="translate(69.000000, 256.000000)">
                    <g id="TwoColored/Email" transform="translate(20.000000, 20.000000)">
                        <rect id="Background" x="0" y="0" width="16" height="16"></rect>
                        <g id="Paxel_Icons_16x16px_Two-Colors-Email" fill-rule="nonzero">
                            <rect id="Rectangle-path" x="0.001" y="0" width="15.999" height="16"></rect>
                            <g id="Group" transform="translate(0.000000, 2.000000)">
                                <polygon id="Shape" fill="#6DC7BE" points="8.00114286 7.84228571 5.81485714 5.71314286 1.25942857 10.144 14.744 10.144 10.1897143 5.71542857"></polygon>
                                <g fill="#013240" id="Shape">
                                    <path d="M14.744,10.6594286 L1.25942857,10.6594286 C0.973714286,10.6594286 0.742857143,10.4285714 0.742857143,10.144 L0.742857143,4.896 C0.742857143,4.61028571 0.973714286,4.37942857 1.25942857,4.37942857 C1.544,4.37942857 1.77485714,4.61028571 1.77485714,4.896 L1.77485714,9.62857143 L14.2274286,9.62857143 L14.2274286,1.80114286 L1.77485714,1.80114286 L1.77485714,5.07885714 C1.77485714,5.36342857 1.544,5.59428571 1.25942857,5.59428571 C0.973714286,5.59428571 0.742857143,5.36342857 0.742857143,5.07885714 L0.742857143,1.28571429 C0.742857143,1 0.973714286,0.769142857 1.25942857,0.769142857 L14.744,0.769142857 C15.0285714,0.769142857 15.2594286,1 15.2594286,1.28571429 L15.2594286,10.144 C15.2594286,10.4285714 15.0285714,10.6594286 14.744,10.6594286 Z"></path>
                                    <path d="M8.00114286,8.35771429 C7.87085714,8.35771429 7.74057143,8.30971429 7.64114286,8.21257143 L0.899428571,1.65485714 C0.694857143,1.456 0.690285714,1.12914286 0.889142857,0.925714286 C1.08685714,0.721142857 1.41485714,0.716571429 1.61828571,0.916571429 L8.00114286,7.12342857 L14.3828571,0.915428571 C14.5874286,0.716571429 14.9142857,0.721142857 15.1131429,0.925714286 C15.3108571,1.13028571 15.3062857,1.45714286 15.1028571,1.656 L8.36114286,8.21371429 C8.26171429,8.30971429 8.13142857,8.35771429 8.00114286,8.35771429 Z"></path>
                                </g>
                            </g>
                        </g>
                    </g>
                </g>
            </g>
        </g>
    </g>
</svg>