<?xml version="1.0" encoding="UTF-8"?>
<svg width="14px" height="18px" viewBox="0 0 14 18" version="1.1" xmlns="http://www.w3.org/2000/svg" xmlns:xlink="http://www.w3.org/1999/xlink">
    <!-- Generator: sketchtool 51.2 (57519) - http://www.bohemiancoding.com/sketch -->
    <title>F8334D18-F79C-41E0-9BFA-84592B23E6B5</title>
    <desc>Created with sketchtool.</desc>
    <defs></defs>
    <g id="Page-1" stroke="none" stroke-width="1" fill="none" fill-rule="evenodd">
        <g id="Reset-password" transform="translate(-572.000000, -443.000000)">
            <g id="Group-8" transform="translate(479.000000, 268.000000)">
                <g id="Group-7" transform="translate(70.000000, 36.000000)">
                    <g id="Group-34-Copy" transform="translate(0.000000, 124.000000)">
                        <g id="Group-2" transform="translate(22.000000, 16.000000)">
                            <rect id="Rectangle-4" x="0" y="0" width="16" height="16"></rect>
                            <g id="002-padlock" transform="translate(2.000000, 0.000000)">
                                <path d="M11.0889796,6.08326531 L10.5012245,6.08326531 L10.5012245,4.43102041 C10.5012245,1.98857143 8.51591837,2.84217094e-14 6.07346939,2.84217094e-14 C3.63102041,2.84217094e-14 1.64571429,1.98857143 1.64571429,4.4277551 L1.64571429,6.08 L1.06122449,6.08 C0.483265306,6.08 0.0130612245,6.55020408 0.0130612245,7.12816327 L0.0130612245,14.9518367 C0.0130612245,15.5297959 0.483265306,16 1.06122449,16 L11.0922449,16 C11.6702041,16 12.1404082,15.5297959 12.1404082,14.9518367 L12.1404082,7.12816327 C12.1371429,6.55346939 11.6669388,6.08326531 11.0889796,6.08326531 Z M2.97795918,4.4277551 C2.97795918,2.72 4.36571429,1.3322449 6.07346939,1.3322449 C7.78122449,1.3322449 9.16897959,2.72 9.16897959,4.4277551 L9.16897959,6.07673469 L2.97795918,6.07673469 L2.97795918,4.4277551 Z M10.8016327,14.6677551 L1.34530612,14.6677551 L1.34530612,7.4155102 L10.804898,7.4155102 L10.804898,14.6677551 L10.8016327,14.6677551 Z" id="Shape" stroke="#F7F9FA" stroke-width="0.2" fill="#013240" fill-rule="nonzero"></path>
                                <path d="M6.73959184,13.0057143 L6.73959184,11.2881633 C6.73959184,10.9191837 6.44244898,10.6220408 6.07346939,10.6220408 C5.7044898,10.6220408 5.40734694,10.9191837 5.40734694,11.2881633 L5.40734694,13.0057143 C5.40734694,13.3714286 5.7044898,13.6718367 6.07346939,13.6718367 C6.44244898,13.6718367 6.73959184,13.3746939 6.73959184,13.0057143 Z" id="Shape" fill="#6DC7BE" fill-rule="nonzero"></path>
                                <circle id="Oval-3" fill="#6DC7BE" cx="6" cy="11" r="1"></circle>
                            </g>
                        </g>
                    </g>
                </g>
            </g>
        </g>
    </g>
</svg>