<?xml version="1.0" encoding="UTF-8"?>
<svg width="14px" height="14px" viewBox="0 0 14 14" version="1.1" xmlns="http://www.w3.org/2000/svg" xmlns:xlink="http://www.w3.org/1999/xlink">
    <!-- Generator: sketchtool 51.2 (57519) - http://www.bohemiancoding.com/sketch -->
    <title>E027281C-4D1C-4446-A0C6-44A2876AC94A</title>
    <desc>Created with sketchtool.</desc>
    <defs></defs>
    <g id="Page-1" stroke="none" stroke-width="1" fill="none" fill-rule="evenodd">
        <g id="Dashboard---Edit-profile-(Add-emergency-contact)" transform="translate(-460.000000, -1009.000000)">
            <g id="pop-up" transform="translate(368.000000, 884.000000)">
                <g id="Group-34" transform="translate(71.000000, 104.000000)">
                    <g id="TwoColored/Profile" transform="translate(20.000000, 20.000000)">
                        <rect id="Background" x="0" y="0" width="16" height="16"></rect>
                        <g id="Paxel_Icons_16x16px_Two-Colors-Profile" fill-rule="nonzero">
                            <rect id="Rectangle-path" x="0.001" y="0" width="15.999" height="16"></rect>
                            <g id="Group" transform="translate(1.000000, 1.000000)">
                                <path d="M6.99935515,9 C5.11639529,9 3.53393519,10.263986 3,12 L11,12 C10.4660648,10.263986 8.88231501,9 6.99935515,9 Z" id="Shape" fill="#6DC7BE"></path>
                                <g fill="#013240" id="Shape">
                                    <path d="M7.00233333,8.204 C4.92916667,8.204 3.24216667,6.51816667 3.24216667,4.44616667 C3.24216667,2.373 4.928,0.686 7.00233333,0.686 C9.07316667,0.686 10.7601667,2.37183333 10.7601667,4.44616667 C10.7601667,6.51816667 9.07433333,8.204 7.00233333,8.204 Z M7.00233333,1.74066667 C5.51016667,1.74066667 4.29683333,2.954 4.29683333,4.44616667 C4.29683333,5.936 5.51016667,7.14933333 7.00233333,7.14933333 C8.49216667,7.14933333 9.7055,5.936 9.7055,4.44616667 C9.70666667,2.954 8.49333333,1.74066667 7.00233333,1.74066667 Z"></path>
                                    <path d="M12.9068333,13.3128333 L7.93916667,13.3128333 C7.64866667,13.3128333 7.413,13.0771667 7.413,12.7855 C7.413,12.495 7.64866667,12.2593333 7.93916667,12.2593333 L12.2616667,12.2593333 C11.6386667,9.90966667 9.47683333,8.204 7,8.204 C4.5255,8.204 2.3625,9.90966667 1.73833333,12.2593333 L8.13053516,12.2593333 C8.42103516,12.2593333 8.65670183,12.495 8.65670183,12.7855 C8.65670183,13.0771667 8.42103516,13.3128333 8.13053516,13.3128333 L1.0955,13.3128333 C0.9415,13.3128333 0.795666667,13.2451667 0.6965,13.1308333 C0.596166667,13.0141667 0.551833333,12.8613333 0.574,12.7108333 C1.036,9.541 3.79866667,7.1505 7,7.1505 C10.2013333,7.1505 12.964,9.541 13.4283333,12.7108333 C13.4505,12.8613333 13.405,13.0153333 13.3058333,13.1308333 C13.2055,13.2463333 13.0596667,13.3128333 12.9068333,13.3128333 Z"></path>
                                </g>
                            </g>
                        </g>
                    </g>
                </g>
            </g>
        </g>
    </g>
</svg>