<?xml version="1.0" encoding="UTF-8"?>
<svg width="15px" height="14px" viewBox="0 0 15 14" version="1.1" xmlns="http://www.w3.org/2000/svg" xmlns:xlink="http://www.w3.org/1999/xlink">
    <!-- Generator: sketchtool 51.2 (57519) - http://www.bohemiancoding.com/sketch -->
    <title>D43CA07B-07E9-4678-8FE8-B66B746E9EE4</title>
    <desc>Created with sketchtool.</desc>
    <defs></defs>
    <g id="Page-1" stroke="none" stroke-width="1" fill="none" fill-rule="evenodd">
        <g id="Dashboard---Edit-profile-(Add-emergency-contact)" transform="translate(-458.000000, -1237.000000)">
            <g id="pop-up" transform="translate(368.000000, 884.000000)">
                <g id="Group-34-Copy-15" transform="translate(69.000000, 332.000000)">
                    <g id="Group-12" transform="translate(20.000000, 20.000000)">
                        <rect id="Rectangle-5" x="0" y="0" width="16" height="16"></rect>
                        <g id="Group" transform="translate(1.000000, 1.000000)" fill-rule="nonzero">
                            <path d="M4.49958545,5.78571429 C3.28911126,5.78571429 2.27181548,6.59827672 1.92857143,7.71428571 L7.07142857,7.71428571 C6.72818452,6.59827672 5.71005965,5.78571429 4.49958545,5.78571429 Z" id="Shape" fill="#6DC7BE"></path>
                            <g fill="#013240" id="Shape">
                                <path d="M4.5015,5.274 C3.16875,5.274 2.08425,4.19025 2.08425,2.85825 C2.08425,1.5255 3.168,0.441 4.5015,0.441 C5.83275,0.441 6.91725,1.52475 6.91725,2.85825 C6.91725,4.19025 5.8335,5.274 4.5015,5.274 Z M4.5015,1.119 C3.54225,1.119 2.76225,1.899 2.76225,2.85825 C2.76225,3.816 3.54225,4.596 4.5015,4.596 C5.45925,4.596 6.23925,3.816 6.23925,2.85825 C6.24,1.899 5.46,1.119 4.5015,1.119 Z"></path>
                                <path d="M8.29725,8.55825 L5.10375,8.55825 C4.917,8.55825 4.7655,8.40675 4.7655,8.21925 C4.7655,8.0325 4.917,7.881 5.10375,7.881 L7.8825,7.881 C7.482,6.3705 6.09225,5.274 4.5,5.274 C2.90925,5.274 1.51875,6.3705 1.1175,7.881 L5.22677261,7.881 C5.41352261,7.881 5.56502261,8.0325 5.56502261,8.21925 C5.56502261,8.40675 5.41352261,8.55825 5.22677261,8.55825 L0.70425,8.55825 C0.60525,8.55825 0.5115,8.51475 0.44775,8.44125 C0.38325,8.36625 0.35475,8.268 0.369,8.17125 C0.666,6.1335 2.442,4.59675 4.5,4.59675 C6.558,4.59675 8.334,6.1335 8.6325,8.17125 C8.64675,8.268 8.6175,8.367 8.55375,8.44125 C8.48925,8.5155 8.3955,8.55825 8.29725,8.55825 Z"></path>
                            </g>
                        </g>
                        <g id="Group-Copy" transform="translate(7.000000, 6.000000)" fill-rule="nonzero">
                            <path d="M4.49958545,5.78571429 C3.28911126,5.78571429 2.27181548,6.59827672 1.92857143,7.71428571 L7.07142857,7.71428571 C6.72818452,6.59827672 5.71005965,5.78571429 4.49958545,5.78571429 Z" id="Shape" fill="#6DC7BE"></path>
                            <g id="Group" fill="#013240">
                                <path d="M4.5015,5.624 C2.97547408,5.624 1.73425,4.38357345 1.73425,2.85825 C1.73425,1.3319582 2.97494241,0.091 4.5015,0.091 C6.02655753,0.091 7.26725,1.33195831 7.26725,2.85825 C7.26725,4.38354966 6.02679966,5.624 4.5015,5.624 Z M4.5015,1.469 C3.73554966,1.469 3.11225,2.09229966 3.11225,2.85825 C3.11225,3.62288587 3.73573536,4.246 4.5015,4.246 C5.26595034,4.246 5.88925,3.62270034 5.88925011,2.85797635 C5.8898487,2.0923796 5.26684027,1.469 4.5015,1.469 Z" id="Shape" stroke="#F7F9FA" stroke-width="0.7"></path>
                                <path d="M8.29725,8.55825 L5.10375,8.55825 C4.917,8.55825 4.7655,8.40675 4.7655,8.21925 C4.7655,8.0325 4.917,7.881 5.10375,7.881 L7.8825,7.881 C7.482,6.3705 6.09225,5.274 4.5,5.274 C2.90925,5.274 1.51875,6.3705 1.1175,7.881 L5.22677261,7.881 C5.41352261,7.881 5.56502261,8.0325 5.56502261,8.21925 C5.56502261,8.40675 5.41352261,8.55825 5.22677261,8.55825 L0.70425,8.55825 C0.60525,8.55825 0.5115,8.51475 0.44775,8.44125 C0.38325,8.36625 0.35475,8.268 0.369,8.17125 C0.666,6.1335 2.442,4.59675 4.5,4.59675 C6.558,4.59675 8.334,6.1335 8.6325,8.17125 C8.64675,8.268 8.6175,8.367 8.55375,8.44125 C8.48925,8.5155 8.3955,8.55825 8.29725,8.55825 Z" id="Shape"></path>
                            </g>
                        </g>
                    </g>
                </g>
            </g>
        </g>
    </g>
</svg>