<?xml version="1.0" encoding="UTF-8"?>
<svg width="48px" height="40px" viewBox="0 0 48 40" version="1.1" xmlns="http://www.w3.org/2000/svg" xmlns:xlink="http://www.w3.org/1999/xlink">
    <!-- Generator: sketchtool 51.1 (57501) - http://www.bohemiancoding.com/sketch -->
    <title>7FED265A-FFF7-4A10-B3FE-78E789FF13FB</title>
    <desc>Created with sketchtool.</desc>
    <defs></defs>
    <g id="Page-1" stroke="none" stroke-width="1" fill="none" fill-rule="evenodd">
        <g id="List-Your-Property---Step-1-(Bed&amp;Bathroom)---Bedroom-1-type" transform="translate(-336.000000, -507.000000)">
            <g id="bedroom-1" transform="translate(288.000000, 342.000000)">
                <g id="bedroom-type" transform="translate(24.000000, 62.000000)">
                    <g id="drop-down" transform="translate(0.000000, 71.000000)">
                        <g id="Hover_Master-Bedroom">
                            <g id="master-bedroom" transform="translate(24.000000, 32.000000)">
                                <circle id="Oval-4-Copy-3" fill="#F5F5F5" cx="23" cy="20" r="20"></circle>
                                <g id="Group-3" transform="translate(7.000000, 9.000000)">
                                    <path d="M3.46153846,0 L3.46153846,0 C5.37329336,-3.51183678e-16 6.92307692,1.54978356 6.92307692,3.46153846 L6.92307692,10.7692308 L0,10.7692308 L-8.8817842e-16,3.46153846 C-1.12230087e-15,1.54978356 1.54978356,3.51183678e-16 3.46153846,0 Z" id="Rectangle-31" fill="#F4B895"></path>
                                    <rect id="Rectangle-3" fill="#F5F5F5" x="3.07692308" y="0" width="1" height="10.7692308"></rect>
                                    <polygon id="Rectangle-3" fill="#F5F5F5" points="6.92307692 3.84615385 6.92307692 4.61538462 0 4.61538462 0 3.84615385"></polygon>
                                    <polygon id="Rectangle-3-Copy" fill="#F5F5F5" points="6.92307692 7.69230769 6.92307692 8.46153846 0 8.46153846 0 7.69230769"></polygon>
                                </g>
                                <g id="Group-18" transform="translate(0.000000, 18.000000)">
                                    <path d="M0.271028683,7.53846154 L23.8461538,7.53846154 L23.8461538,13.6923077 L2.27102868,13.6923077 C1.16645918,13.6923077 0.271028683,12.7968772 0.271028683,11.6923077 L0.271028683,7.53846154 Z" id="Rectangle-26" fill="#EE9866"></path>
                                    <path d="M28.2624786,0 L33.9443305,0 C35.0489,-2.02906125e-16 35.9443305,0.8954305 35.9443305,2 L35.9443305,8.46153846 L26.2624786,8.46153846 L26.2624786,2 C26.2624786,0.8954305 27.1579091,2.02906125e-16 28.2624786,0 Z" id="Rectangle-28" fill="#F4B895"></path>
                                    <path d="M20,0 L26.0825974,0 C27.1871669,-2.02906125e-16 28.0825974,0.8954305 28.0825974,2 L28.0825974,8.46153846 L18,8.46153846 L18,2 C18,0.8954305 18.8954305,2.02906125e-16 20,0 Z" id="Rectangle-28-Copy-2" fill="#F4B895"></path>
                                    <path d="M28.2624786,0 L32.2790123,0 C33.3835818,-2.02906125e-16 34.2790123,0.8954305 34.2790123,2 L34.2790123,8.46153846 L26.2624786,8.46153846 L26.2624786,2 C26.2624786,0.8954305 27.1579091,2.02906125e-16 28.2624786,0 Z" id="Rectangle-28-Copy" fill="#EE9866"></path>
                                    <path d="M20,0 L24.3483493,0 C25.4529188,-2.02906125e-16 26.3483493,0.8954305 26.3483493,2 L26.3483493,8.46153846 L18,8.46153846 L18,2 C18,0.8954305 18.8954305,2.02906125e-16 20,0 Z" id="Rectangle-28-Copy-3" fill="#EE9866"></path>
                                    <path d="M17,7.53846154 L36.1538462,7.53846154 L36.1538462,11.6923077 C36.1538462,12.7968772 35.2584157,13.6923077 34.1538462,13.6923077 L17,13.6923077 L17,7.53846154 Z" id="Rectangle-26-Copy" fill="#F4B895"></path>
                                    <path d="M5.07692308,6 L34.1538462,6 C35.2584157,6 36.1538462,6.8954305 36.1538462,8 L36.1538462,10.6153846 L3.07692308,10.6153846 L3.07692308,8 C3.07692308,6.8954305 3.97235358,6 5.07692308,6 Z" id="Rectangle-27" fill="#50ACA3"></path>
                                    <path d="M2.27102868,6 L14.8609316,6 C15.9655011,6 16.8609316,6.8954305 16.8609316,8 L16.8609316,10.6153846 L0.271028683,10.6153846 L0.271028683,8 C0.271028683,6.8954305 1.16645918,6 2.27102868,6 Z" id="Rectangle-27" fill="#1D5060"></path>
                                    <path d="M2.61538462,13.6923077 L2.61538462,15.8672375" id="Path-87" stroke="#1D5060"></path>
                                    <path d="M16.1730769,13.6923077 L16.1730769,15.8672375" id="Path-87-Copy" stroke="#1D5060"></path>
                                    <path d="M19.0192308,13.6923077 L19.0192308,15.8672375" id="Path-87-Copy-2" stroke="#1D5060"></path>
                                    <path d="M34.0961538,13.6923077 L34.0961538,15.8672375" id="Path-87-Copy-3" stroke="#1D5060"></path>
                                    <path d="M26.85266,4 L31.5538763,4 C31.9996185,4 32.3609638,4.36134539 32.3609638,4.80708752 C32.3609638,5.00090345 32.2912176,5.18824716 32.1644729,5.33487729 L31.3097523,6.32369822 C31.1197997,6.54345312 30.8436813,6.66975457 30.553209,6.66975457 L25.8519926,6.66975457 C25.4062505,6.66975457 25.0449051,6.30840918 25.0449051,5.86266705 C25.0449051,5.66885113 25.1146513,5.48150741 25.241396,5.33487729 L26.0961167,4.34605635 C26.2860693,4.12630145 26.5621876,4 26.85266,4 Z" id="Rectangle-30" fill="#FFFFFF"></path>
                                    <path d="M19.85266,4 L24.5538763,4 C24.9996185,4 25.3609638,4.36134539 25.3609638,4.80708752 C25.3609638,5.00090345 25.2912176,5.18824716 25.1644729,5.33487729 L24.3097523,6.32369822 C24.1197997,6.54345312 23.8436813,6.66975457 23.553209,6.66975457 L18.8519926,6.66975457 C18.4062505,6.66975457 18.0449051,6.30840918 18.0449051,5.86266705 C18.0449051,5.66885113 18.1146513,5.48150741 18.241396,5.33487729 L19.0961167,4.34605635 C19.2860693,4.12630145 19.5621876,4 19.85266,4 Z" id="Rectangle-30-Copy" fill="#FFFFFF"></path>
                                </g>
                                <path d="M41.6732766,29 L40,33.6583544" id="Path-87-Copy-3" stroke="#1D5060" stroke-linecap="round"></path>
                                <path d="M46.6732766,29 L45,33.6583544" id="Path-87-Copy-4" stroke="#1D5060" stroke-linecap="round" transform="translate(45.836638, 31.329177) scale(-1, 1) translate(-45.836638, -31.329177) "></path>
                                <rect id="Rectangle" fill="#50ACA3" x="39" y="27" width="9" height="2"></rect>
                                <path d="M42.6883645,23.0257859 C42.7857014,22.9701517 42.9033373,23.0070732 42.9635445,23.1121547 C43.0299047,23.2279754 43.0031465,23.3845692 42.9037782,23.4619167 C42.7698527,23.5661741 42.6556987,23.7989168 42.5613205,24.1601521 C42.3303612,25.0441552 42.8818977,25.2320507 42.8818977,26.0287414 C42.8818977,26.5598685 42.6681795,26.8836213 42.2407433,27 L41.7592569,27 C41.3318207,26.8836213 41.1181025,26.5598685 41.1181025,26.0287414 C41.1181025,25.2320507 41.669639,25.0441552 41.4386797,24.1601521 C41.3443015,23.7989168 41.2301475,23.5661741 41.0962178,23.4619241 C40.9968537,23.3845692 40.9700955,23.2279754 41.0364558,23.1121547 C41.0966629,23.0070732 41.2142988,22.9701517 41.3116357,23.0257859 C41.4936056,23.1297933 41.7230604,23.1863616 42.0000001,23.1954907 C42.2769398,23.1863616 42.5063946,23.1297933 42.6883645,23.0257859 Z" id="Combined-Shape" fill="#EE9866"></path>
                            </g>
                        </g>
                    </g>
                </g>
            </g>
        </g>
    </g>
</svg>