<?xml version="1.0" encoding="UTF-8"?>
<svg width="47px" height="40px" viewBox="0 0 47 40" version="1.1" xmlns="http://www.w3.org/2000/svg" xmlns:xlink="http://www.w3.org/1999/xlink">
    <!-- Generator: sketchtool 51.1 (57501) - http://www.bohemiancoding.com/sketch -->
    <title>0F95BBEA-E1F4-438C-9591-5BA3116D38DB</title>
    <desc>Created with sketchtool.</desc>
    <defs>
        <circle id="path-1" cx="20" cy="20" r="20"></circle>
    </defs>
    <g id="Page-1" stroke="none" stroke-width="1" fill="none" fill-rule="evenodd">
        <g id="List-Your-Property---Step-1-(Bed&amp;Bathroom)---Bedroom-1-type" transform="translate(-337.000000, -609.000000)">
            <g id="bedroom-1" transform="translate(288.000000, 342.000000)">
                <g id="bedroom-type" transform="translate(24.000000, 62.000000)">
                    <g id="drop-down" transform="translate(0.000000, 71.000000)">
                        <g id="Standard-Bedroom" transform="translate(0.000000, 122.000000)">
                            <g id="standard-bedroom" transform="translate(25.000000, 12.000000)">
                                <g id="Group-4" transform="translate(7.000000, 0.000000)">
                                    <mask id="mask-2" fill="white">
                                        <use xlink:href="#path-1"></use>
                                    </mask>
                                    <use id="Oval-4-Copy-4" fill="#F5F5F5" xlink:href="#path-1"></use>
                                    <g id="Group-2" mask="url(#mask-2)">
                                        <g transform="translate(25.000000, 0.000000)">
                                            <path d="M6.25,0 L6.25,13" id="Path-95" stroke="#1D5060" stroke-width="0.5" fill="none"></path>
                                            <circle id="Oval" stroke="none" fill="#F4B895" fill-rule="evenodd" cx="6.5" cy="15.5" r="2.5"></circle>
                                            <path d="M0,16 C0.293401982,13.1940711 2.86769495,11 6,11 C9.13230505,11 11.706598,13.1940711 12,16 L0,16 Z" id="Combined-Shape" stroke="none" fill="#50ACA3" fill-rule="evenodd"></path>
                                        </g>
                                    </g>
                                </g>
                                <g id="Group-18" transform="translate(0.000000, 18.000000)">
                                    <path d="M0.0769230769,7.53846154 L20.8461538,7.53846154 L20.8461538,13.6923077 L2.07692308,13.6923077 C0.972353577,13.6923077 0.0769230769,12.7968772 0.0769230769,11.6923077 L0.0769230769,7.53846154 Z" id="Rectangle-26" fill="#EE9866"></path>
                                    <path d="M22.0769231,0.615384615 L31.1538462,0.615384615 C32.2584157,0.615384615 33.1538462,1.51081512 33.1538462,2.61538462 L33.1538462,9.07692308 L20.0769231,9.07692308 L20.0769231,2.61538462 C20.0769231,1.51081512 20.9723536,0.615384615 22.0769231,0.615384615 Z" id="Rectangle-28" fill="#F4B895"></path>
                                    <path d="M19,0.615384615 L29.6153846,0.615384615 C30.7199541,0.615384615 31.6153846,1.51081512 31.6153846,2.61538462 L31.6153846,9.07692308 L17,9.07692308 L17,2.61538462 C17,1.51081512 17.8954305,0.615384615 19,0.615384615 Z" id="Rectangle-28-Copy" fill="#EE9866"></path>
                                    <path d="M14.6923077,7.53846154 L33.1538462,7.53846154 L33.1538462,11.6923077 C33.1538462,12.7968772 32.2584157,13.6923077 31.1538462,13.6923077 L14.6923077,13.6923077 L14.6923077,7.53846154 Z" id="Rectangle-26-Copy" fill="#F4B895"></path>
                                    <path d="M2.07692308,6 L31.1538462,6 C32.2584157,6 33.1538462,6.8954305 33.1538462,8 L33.1538462,10.6153846 L0.0769230769,10.6153846 L0.0769230769,8 C0.0769230769,6.8954305 0.972353577,6 2.07692308,6 Z" id="Rectangle-27" fill="#50ACA3"></path>
                                    <path d="M2.07692308,6 L12.6923077,6 C13.7968772,6 14.6923077,6.8954305 14.6923077,8 L14.6923077,10.6153846 L0.0769230769,10.6153846 L0.0769230769,8 C0.0769230769,6.8954305 0.972353577,6 2.07692308,6 Z" id="Rectangle-27" fill="#1D5060"></path>
                                    <path d="M1.61538462,13.6923077 L1.61538462,15.8672375" id="Path-87" stroke="#1D5060"></path>
                                    <path d="M14.1730769,13.6923077 L14.1730769,15.8672375" id="Path-87-Copy" stroke="#1D5060"></path>
                                    <path d="M18.0192308,13.6923077 L18.0192308,15.8672375" id="Path-87-Copy-2" stroke="#1D5060"></path>
                                    <path d="M31.0961538,13.6923077 L31.0961538,15.8672375" id="Path-87-Copy-3" stroke="#1D5060"></path>
                                    <path d="M21.8861557,3.69230769 L26.5873721,3.69230769 C27.0331142,3.69230769 27.3944596,4.05365308 27.3944596,4.49939522 C27.3944596,4.69321114 27.3247134,4.88055485 27.1979687,5.02718498 L26.343248,6.01600592 C26.1532955,6.23576081 25.8771771,6.36206226 25.5867048,6.36206226 L20.8854884,6.36206226 C20.4397463,6.36206226 20.0784009,6.00071687 20.0784009,5.55497474 C20.0784009,5.36115882 20.1481471,5.17381511 20.2748918,5.02718498 L21.1296125,4.03836404 C21.319565,3.81860914 21.5956834,3.69230769 21.8861557,3.69230769 Z" id="Rectangle-30" fill="#FFFFFF"></path>
                                </g>
                            </g>
                        </g>
                    </g>
                </g>
            </g>
        </g>
    </g>
</svg>