<?xml version="1.0" encoding="UTF-8"?>
<svg width="48px" height="40px" viewBox="0 0 48 40" version="1.1" xmlns="http://www.w3.org/2000/svg" xmlns:xlink="http://www.w3.org/1999/xlink">
    <!-- Generator: sketchtool 51.1 (57501) - http://www.bohemiancoding.com/sketch -->
    <title>49573382-87E8-4668-9E6E-5F729D1E9A54</title>
    <desc>Created with sketchtool.</desc>
    <defs></defs>
    <g id="Page-1" stroke="none" stroke-width="1" fill="none" fill-rule="evenodd">
        <g id="List-Your-Property---Step-1-(Bed&amp;Bathroom)---Bedroom-1-type" transform="translate(-336.000000, -711.000000)">
            <g id="bedroom-1" transform="translate(288.000000, 342.000000)">
                <g id="bedroom-type" transform="translate(24.000000, 62.000000)">
                    <g id="drop-down" transform="translate(0.000000, 71.000000)">
                        <g id="Shared-Bedroom" transform="translate(24.000000, 224.000000)">
                            <g id="shared-bedroom" transform="translate(0.000000, 12.000000)">
                                <circle id="Oval-4-Copy-5" fill="#F5F5F5" cx="28" cy="20" r="20"></circle>
                                <g id="Group-18-Copy" transform="translate(0.000000, 15.000000)">
                                    <path d="M1.61538462,9.69230769 L1.61538462,11.8672375" id="Path-87" stroke="#1D5060"></path>
                                    <path d="M10.1730769,9.69230769 L10.1730769,11.8672375" id="Path-87-Copy" stroke="#1D5060"></path>
                                    <path d="M15.0192308,9.69230769 L15.0192308,11.8672375" id="Path-87-Copy-2" stroke="#1D5060"></path>
                                    <path d="M0.0769230769,7.82470104 L14.6923077,7.82470104 L14.6923077,10.4944556 L2.07692308,10.4944556 C0.972353577,10.4944556 0.0769230769,9.59902511 0.0769230769,8.49445561 L0.0769230769,7.82470104 Z" id="Rectangle-26" fill="#1D5060"></path>
                                    <path d="M16.6923077,0 L24.0769231,0 C25.1814926,-2.02906125e-16 26.0769231,0.8954305 26.0769231,2 L26.0769231,8.46153846 L14.6923077,8.46153846 L14.6923077,2 C14.6923077,0.8954305 15.5877382,2.02906125e-16 16.6923077,0 Z" id="Rectangle-28" fill="#50ACA3"></path>
                                    <path d="M16.2307692,0 L22.6153846,0 C23.7199541,-2.02906125e-16 24.6153846,0.8954305 24.6153846,2 L24.6153846,8.46153846 L14.2307692,8.46153846 L14.2307692,2 C14.2307692,0.8954305 15.1261997,2.02906125e-16 16.2307692,0 Z" id="Rectangle-28-Copy" fill="#1D5060"></path>
                                    <path d="M10.4615385,7.19778225 L26.1926744,7.19778225 L26.1926744,8.49445561 C26.1926744,9.59902511 25.2972439,10.4944556 24.1926744,10.4944556 L10.4615385,10.4944556 L10.4615385,7.19778225 Z" id="Rectangle-26-Copy" fill="#50ACA3"></path>
                                    <path d="M9,5 L24.1926744,5 C25.2972439,5 26.1926744,5.8954305 26.1926744,7 L26.1926744,8.29667337 L7,8.29667337 L7,7 C7,5.8954305 7.8954305,5 9,5 Z" id="Rectangle-27" fill="#50ACA3"></path>
                                    <path d="M2.07692308,5 L8.46153846,5 C9.56610796,5 10.4615385,5.8954305 10.4615385,7 L10.4615385,8.29667337 L0.0769230769,8.29667337 L0.0769230769,7 C0.0769230769,5.8954305 0.972353577,5 2.07692308,5 Z" id="Rectangle-27" fill="#1D5060"></path>
                                    <path d="M24.0961538,9.69230769 L24.0961538,11.8672375" id="Path-87-Copy-3" stroke="#1D5060"></path>
                                    <path d="M17.5279842,3 L20.4516049,3 C20.9323208,3 21.3220179,3.38969718 21.3220179,3.87041301 C21.3220179,4.03480864 21.2754617,4.19584324 21.1877379,4.33487729 L20.6397621,5.20336824 C20.4565872,5.49368354 20.1373063,5.66975457 19.7940338,5.66975457 L16.870413,5.66975457 C16.3896972,5.66975457 16,5.28005739 16,4.79934156 C16,4.63494593 16.0465563,4.47391133 16.13428,4.33487729 L16.6822558,3.46638633 C16.8654307,3.17607103 17.1847116,3 17.5279842,3 Z" id="Rectangle-30" fill="#FFFFFF"></path>
                                </g>
                                <g id="Group-18-Copy-2" transform="translate(18.000000, 15.000000)">
                                    <path d="M10.6203704,10 L10.6203704,12.1749298" id="Path-87-Copy" stroke="#1D5060"></path>
                                    <path d="M15.8055556,10 L15.8055556,12.1749298" id="Path-87-Copy-2" stroke="#1D5060"></path>
                                    <path d="M25.1388889,10 L25.1388889,12.1749298" id="Path-87-Copy-3" stroke="#1D5060"></path>
                                    <path d="M1.83475783,10 L1.83475783,12.1749298" id="Path-87" stroke="#1D5060"></path>
                                    <path d="M0.0797720798,8.31952582 L15.2364672,8.31952582 L15.2364672,10.4944556 L2.07977208,10.4944556 C0.97520258,10.4944556 0.0797720798,9.59902511 0.0797720798,8.49445561 L0.0797720798,8.31952582 Z" id="Rectangle-26" fill="#EE9866"></path>
                                    <path d="M17.2364672,0 L25.042735,0 C26.1473045,-1.18396092e-15 27.042735,0.8954305 27.042735,2 L27.042735,8.46153846 L15.2364672,8.46153846 L15.2364672,2 C15.2364672,0.8954305 16.1318977,2.02906125e-16 17.2364672,0 Z" id="Rectangle-28" fill="#F4B895"></path>
                                    <path d="M16.7578348,0 L23.5270655,0 C24.631635,7.78148667e-16 25.5270655,0.8954305 25.5270655,2 L25.5270655,8.46153846 L14.7578348,8.46153846 L14.7578348,2 C14.7578348,0.8954305 15.6532653,2.02906125e-16 16.7578348,0 Z" id="Rectangle-28-Copy" fill="#EE9866"></path>
                                    <path d="M10.8490028,7.19778225 L27.1627735,7.19778225 L27.1627735,8.49445561 C27.1627735,9.59902511 26.267343,10.4944556 25.1627735,10.4944556 L10.8490028,10.4944556 L10.8490028,7.19778225 Z" id="Rectangle-26-Copy" fill="#F4B895"></path>
                                    <path d="M2.07977208,5 L25.1627735,5 C26.267343,5 27.1627735,5.8954305 27.1627735,7 L27.1627735,8.29667337 L0.0797720798,8.29667337 L0.0797720798,7 C0.0797720798,5.8954305 0.97520258,5 2.07977208,5 Z" id="Rectangle-27" fill="#F4B895"></path>
                                    <path d="M2.07977208,5 L8.84900285,5 C9.95357235,5 10.8490028,5.8954305 10.8490028,7 L10.8490028,8.29667337 L0.0797720798,8.29667337 L0.0797720798,7 C0.0797720798,5.8954305 0.97520258,5 2.07977208,5 Z" id="Rectangle-27" fill="#EE9866"></path>
                                    <path d="M18.1460089,3 L21.2506663,3 C21.7270601,3 22.1132536,3.38619348 22.1132536,3.86258728 C22.1132536,4.03035848 22.0643282,4.19448838 21.9724689,4.33487729 L21.3950939,5.21728178 C21.2103579,5.4996144 20.8957064,5.66975457 20.558306,5.66975457 L17.4536486,5.66975457 C16.9772548,5.66975457 16.5910613,5.28356109 16.5910613,4.80716729 C16.5910613,4.6393961 16.6399867,4.47526619 16.731846,4.33487729 L17.309221,3.45247279 C17.493957,3.17014017 17.8086085,3 18.1460089,3 Z" id="Rectangle-30" fill="#FFFFFF"></path>
                                </g>
                                <g id="Group-3" transform="translate(5.000000, 4.000000)">
                                    <path d="M3.46153846,0 L3.46153846,0 C5.37329336,-3.51183678e-16 6.92307692,1.54978356 6.92307692,3.46153846 L6.92307692,10.7692308 L0,10.7692308 L-8.8817842e-16,3.46153846 C-1.12230087e-15,1.54978356 1.54978356,3.51183678e-16 3.46153846,0 Z" id="Rectangle-31" fill="#F4B895"></path>
                                    <rect id="Rectangle-3" fill="#F5F5F5" x="3.07692308" y="0" width="1" height="10.7692308"></rect>
                                    <polygon id="Rectangle-3" fill="#F5F5F5" points="6.92307692 3.84615385 6.92307692 4.61538462 0 4.61538462 0 3.84615385"></polygon>
                                    <polygon id="Rectangle-3-Copy" fill="#F5F5F5" points="6.92307692 7.69230769 6.92307692 8.46153846 0 8.46153846 0 7.69230769"></polygon>
                                </g>
                            </g>
                        </g>
                    </g>
                </g>
            </g>
        </g>
    </g>
</svg>