<?xml version="1.0" encoding="UTF-8"?>
<svg width="16px" height="16px" viewBox="0 0 16 16" version="1.1" xmlns="http://www.w3.org/2000/svg" xmlns:xlink="http://www.w3.org/1999/xlink">
    <!-- Generator: sketchtool 51.2 (57519) - http://www.bohemiancoding.com/sketch -->
    <title>BD010B3A-6643-40DE-A380-B7E0F2817A46</title>
    <desc>Created with sketchtool.</desc>
    <defs>
        <path d="M7.1038,15.7657952 C7.4166,16.0780683 7.923,16.0780683 8.235,15.7657952 C8.5478,15.4535222 8.5478,14.9479753 8.235,14.6365009 L3.083,9.49318026 C2.831,9.24160479 3.0094,8.81192987 3.3654,8.81192987 L15.1998,8.81192987 C15.6414,8.81192987 15.9998,8.44694578 15.9998,8.00608972 L15.9998,8.00289511 C15.9998,7.56203906 15.6414,7.21462532 15.1998,7.21462532 L3.3654,7.21462532 C3.0094,7.21462532 2.831,6.78415174 3.083,6.53257628 L8.2598,1.36369876 C8.5726,1.05142572 8.5726,0.545878829 8.2598,0.23360579 L8.2598,0.23360579 C7.9478,-0.0778685967 7.4414,-0.0778685967 7.1286,0.23360579 L0.4686,6.88318463 C-0.1562,7.50693205 -0.1562,8.51802583 0.4686,9.14177326 C0.631,9.30389967 7.2326,15.8943782 7.1038,15.7657952" id="path-1"></path>
    </defs>
    <g id="Page-1" stroke="none" stroke-width="1" fill="none" fill-rule="evenodd">
        <g id="Search-Result-Page-(Co-Living)---Card-View" transform="translate(-343.000000, -304.000000)">
            <g id="listings" transform="translate(64.000000, 217.000000)">
                <g id="hover_standard-card">
                    <g id="arrow-button" transform="translate(10.000000, 87.000000)">
                        <g id="Right-Arrow" transform="translate(277.000000, 8.000000) scale(-1, 1) translate(-277.000000, -8.000000) translate(269.000000, 0.000000)">
                            <g id="Group-2">
                                <mask id="mask-2" fill="white">
                                    <use xlink:href="#path-1"></use>
                                </mask>
                                <use id="arrow_left-[#361]" fill="#ffffff" xlink:href="#path-1"></use>
                            </g>
                        </g>
                    </g>
                </g>
            </g>
        </g>
    </g>
</svg>
