<?xml version="1.0" encoding="utf-8"?>
<!-- Generator: Adobe Illustrator 16.0.2, SVG Export Plug-In . SVG Version: 6.00 Build 0)  -->
<!DOCTYPE svg PUBLIC "-//W3C//DTD SVG 1.1//EN" "http://www.w3.org/Graphics/SVG/1.1/DTD/svg11.dtd">
<svg version="1.1" id="Layer_1" xmlns="http://www.w3.org/2000/svg" xmlns:xlink="http://www.w3.org/1999/xlink" x="0px" y="0px"
	 width="45.3px" height="45.3px" viewBox="308.5 471.6 45.3 45.3" enable-background="new 308.5 471.6 45.3 45.3"
	 xml:space="preserve">
<g>
	<path fill="#FFFFFF" d="M308.5,494.3c-0.1-12.3,10.1-22.6,22.3-22.7c12.5-0.1,22.8,9.9,23,22.3c0.2,12.7-10,22.7-22.1,23
		C319,517.2,308.6,507,308.5,494.3z M320.8,486.3c-0.2-0.1-0.4-0.2-0.5,0.1c0,0,0,0-0.1,0c-0.2-0.1-0.4-0.1-0.5,0.1c0,0,0,0-0.1,0
		c-0.1-0.1-0.1-0.1-0.2,0c-0.4,0.1-0.7,0.3-1.1,0.4c-2.2,0.8-4.2,1.7-6,3.2c-0.7,0.6-1.3,1.3-1.7,2.1c-0.9,1.7-0.6,3.5,0.8,5.1
		c1.1,1.3,2.5,2.2,3.9,2.9c1.6,0.8,3.2,1.4,4.9,1.9c0.1,0.2,0.3,0.2,0.5,0.1c0.2-0.1,0.1-0.4,0.1-0.5c-0.1-0.4-0.2-0.8-0.2-1.2
		c-0.1-0.8-0.2-1.7-0.2-2.5c-0.1-0.9-0.1-1.9-0.1-2.8c0-1,0-2,0-3c0-0.5,0.1-1,0-1.4c0-0.1,0-0.2,0-0.2c0.2-0.2,0.1-0.5,0.2-0.8
		c0.1-0.8,0.2-1.6,0.3-2.5c0-0.2,0.2-0.5,0-0.8C320.8,486.5,320.8,486.4,320.8,486.3z M331.1,485c-2.7,0-5.4,0.3-8.1,0.8
		c-0.2,0-0.3,0.1-0.4,0.4c-0.2,1-0.3,2-0.5,3c-0.5,4.4-0.4,8.8,0.5,13.2c0.1,0.3,0.1,0.4,0.4,0.4c1.3,0.2,2.6,0.4,3.9,0.5
		c4.1,0.4,8.1,0.2,12.1-0.5c0.4-0.1,0.5-0.2,0.6-0.6c0.6-3.1,0.8-6.2,0.7-9.3c-0.1-2.3-0.3-4.5-0.7-6.8c0-0.2-0.1-0.4-0.4-0.4
		C336.6,485.3,333.9,485,331.1,485z M352,494.4c0-0.8-0.2-1.4-0.4-1.9c-0.6-1.2-1.5-2.1-2.5-2.9c-2.2-1.6-4.7-2.6-7.4-3.3
		c-0.4-0.1-0.2,0.2-0.2,0.3c0.8,5.1,0.8,10.2,0,15.2c-0.1,0.4-0.1,0.4,0.4,0.3c1.5-0.4,3-0.9,4.4-1.6c1.6-0.8,3.1-1.6,4.3-3
		C351.4,496.7,352,495.6,352,494.4z M338.9,483.9c0.4,0,0.2-0.2,0.1-0.3c-0.5-1.9-1.2-3.8-2.1-5.5c-0.7-1.3-1.6-2.6-2.8-3.6
		c-1.6-1.3-3.4-1.5-5.1-0.5c-1,0.6-1.9,1.4-2.5,2.4c-1.5,2.1-2.5,4.5-3.2,7c-0.1,0.5-0.1,0.5,0.4,0.4c3.6-0.6,7.2-0.7,10.9-0.5
		C336,483.5,337.4,483.7,338.9,483.9z M323.2,504.6c0.3,1.7,1.5,4.6,2.4,6.2c0.7,1.2,1.6,2.4,2.7,3.3c1.2,0.9,2.6,1.3,4.1,0.8
		c1-0.3,1.8-0.9,2.5-1.7c1.1-1.1,1.9-2.5,2.6-3.9c0.7-1.5,1.2-3.1,1.7-4.7C333.8,505.5,328.5,505.5,323.2,504.6z M336.2,514.6
		c3.8-1,7-2.8,9.7-5.5c2.6-2.6,5.4-7.5,5.4-9.7c-0.6,0.5-1.1,1-1.7,1.4c-2.2,1.5-4.7,2.5-7.3,3.2c-0.4,0.1-0.9,0.1-1.2,0.4
		c-0.3,0.3-0.3,0.8-0.4,1.2c-0.8,2.7-1.8,5.4-3.5,7.7C336.9,513.6,336.6,514,336.2,514.6z M326.1,474.1c-4,1-7.4,3-10.2,6
		c-2.4,2.6-4.1,5.6-4.9,9.1c0.5-0.4,1-0.8,1.5-1.2c2.6-1.8,5.4-2.8,8.4-3.6c0.3-0.1,0.4-0.2,0.4-0.4c0.6-2.6,1.5-5.1,2.9-7.4
		C324.7,475.7,325.4,474.8,326.1,474.1z M310.9,499.4c0,0.1,0.1,0.3,0.1,0.4c1.7,5.7,5.2,10,10.4,12.9c1.4,0.7,2.8,1.3,4.3,1.7
		c0.1,0,0.2,0.2,0.3,0.1c0.1-0.1-0.1-0.2-0.1-0.3c-1.1-1.3-2-2.7-2.7-4.3c-0.8-1.8-1.4-3.6-1.9-5.5c-0.1-0.2-0.1-0.3-0.4-0.4
		c-0.5-0.1-0.9-0.2-1.4-0.4c-3.1-0.9-5.9-2.1-8.4-4.2C311.1,499.5,311,499.4,310.9,499.4z M351.3,489.1c0,0,0.1,0,0.1-0.1
		c-1.1-4.2-3.3-7.8-6.7-10.6c-2.4-2.1-5.2-3.6-8.4-4.3c1,1.2,1.8,2.4,2.5,3.8c1,1.9,1.7,4,2.2,6.1c0.1,0.3,0.2,0.4,0.4,0.4
		c0.6,0.1,1.2,0.3,1.8,0.5c2.5,0.8,5,1.8,7.1,3.4C350.6,488.6,350.9,488.9,351.3,489.1z"/>
	<path fill="#808080" d="M320.3,502.2C320.4,502.2,320.4,502.2,320.3,502.2c0.4,0.1,0.5,0.1,0.4-0.3c-0.2-1.3-0.4-2.6-0.5-3.8
		c-0.2-2.4-0.2-4.7,0-7.1c0-0.1,0-0.1,0-0.1c0.1,0.5,0,1,0,1.4c0,1,0,2,0,3c0,0.9,0.1,1.9,0.1,2.8c0,0.8,0.2,1.7,0.2,2.5
		c0,0.4,0.1,0.8,0.2,1.2c0.1,0.2,0.1,0.4-0.1,0.5C320.6,502.4,320.5,502.3,320.3,502.2z"/>
	<path fill="#808080" d="M320.3,490.6c0.1-1.4,0.2-2.7,0.5-4c0.2,0.3,0,0.6,0,0.8c-0.1,0.8-0.2,1.6-0.3,2.5
		C320.4,490,320.5,490.3,320.3,490.6z"/>
	<path fill="#808080" d="M320.3,486.4c-0.2,0.1-0.3,0.1-0.5,0.1C319.9,486.3,320.1,486.3,320.3,486.4z"/>
	<path fill="#808080" d="M320.8,486.3c-0.2,0-0.3,0.1-0.5,0.1C320.5,486.1,320.6,486.2,320.8,486.3z"/>
	<path fill="#808080" d="M319.7,486.6c0,0.1-0.1,0.1-0.2,0C319.6,486.5,319.6,486.4,319.7,486.6z"/>
	<path fill="#ED8D5A" d="M336.7,492c1.7,0,3.1,1.4,3.1,3.1c0,1.7-1.4,3.1-3.1,3.1c-1.8,0-3.1-1.4-3.1-3.2
		C333.6,493.4,335,492,336.7,492z M339.1,495.1c0-1.3-1.1-2.4-2.4-2.4c-1.4,0-2.4,1.1-2.4,2.5c0,1.3,1.1,2.4,2.4,2.4
		C338,497.6,339.1,496.5,339.1,495.1z"/>
	<path fill="#ED8D5A" d="M330.4,493.6c0.8,0,1.4,0.2,1.9,0.7c0.8,0.8,0.9,2.1,0.2,3c-0.7,0.9-2,1.2-3,0.7c-1-0.6-1.5-1.7-1.1-2.8
		c0.1-0.4,0.3-0.7,0.6-1c0.5-0.6,1.1-1.3,1.7-1.9c0.1-0.1,0.2-0.2,0.4-0.2c0.1,0,0.3-0.1,0.4,0.1c0.1,0.2,0,0.3-0.1,0.4
		C331,492.9,330.8,493.2,330.4,493.6z M330.6,497.6c0.9,0,1.6-0.8,1.6-1.7c0-0.9-0.8-1.7-1.6-1.7c-0.9,0-1.6,0.8-1.6,1.7
		C329,496.8,329.7,497.6,330.6,497.6z"/>
	<path fill="#ED8D5A" d="M325.5,492c1.2,0,2,1.1,1.5,2.3c-0.1,0.2,0,0.3,0.1,0.4c0.6,0.7,0.7,1.6,0.3,2.3c-0.4,0.8-1.3,1.3-2.2,1.2
		c-0.9-0.1-1.7-0.7-1.9-1.6c0-0.2,0-0.3-0.1-0.5c0-0.2,0.1-0.4,0.3-0.4c0.3,0,0.4,0.1,0.4,0.4c0,0.7,0.4,1.2,1.1,1.3
		c0.6,0.2,1.2-0.1,1.6-0.6c0.3-0.5,0.2-1.2-0.1-1.7c-0.1-0.1-0.3-0.3-0.4-0.3c-0.4-0.2-0.4-0.3-0.1-0.6c0.4-0.4,0.4-0.8,0.1-1.2
		c-0.2-0.3-0.6-0.4-0.9-0.3c-0.4,0.1-0.7,0.4-0.7,0.8c0,0.3-0.1,0.4-0.4,0.4c-0.3,0-0.4-0.1-0.3-0.4
		C323.9,492.7,324.6,492,325.5,492z"/>
</g>
</svg>
