<?xml version="1.0" encoding="utf-8"?>
<!-- Generator: Adobe Illustrator 16.0.2, SVG Export Plug-In . SVG Version: 6.00 Build 0)  -->
<!DOCTYPE svg PUBLIC "-//W3C//DTD SVG 1.1//EN" "http://www.w3.org/Graphics/SVG/1.1/DTD/svg11.dtd">
<svg version="1.1" id="Layer_1" xmlns="http://www.w3.org/2000/svg" xmlns:xlink="http://www.w3.org/1999/xlink" x="0px" y="0px"
	 width="45.3px" height="45.3px" viewBox="275 398.4 45.3 45.3" enable-background="new 275 398.4 45.3 45.3" xml:space="preserve">
<path fill="#1C4C5C" d="M275,421.1c-0.1-12.3,10.1-22.6,22.3-22.7c12.5-0.1,22.8,9.9,23,22.3c0.2,12.7-10,22.7-22.1,23
	C285.6,444,275.1,433.8,275,421.1z M287.3,413.1c-0.2-0.1-0.4-0.2-0.5,0.1c0,0,0,0-0.1,0c-0.2-0.1-0.4-0.1-0.5,0.1c0,0,0,0-0.1,0
	c-0.1-0.1-0.1-0.1-0.2,0c-0.4,0.1-0.7,0.3-1.1,0.4c-2.2,0.8-4.2,1.7-6,3.2c-0.7,0.6-1.3,1.3-1.7,2.1c-0.9,1.7-0.6,3.5,0.8,5.1
	c1.1,1.3,2.5,2.2,3.9,2.9c1.6,0.8,3.2,1.4,4.9,1.9c0.1,0.2,0.3,0.2,0.5,0.1c0.2-0.1,0.1-0.4,0.1-0.5c-0.1-0.4-0.2-0.8-0.2-1.2
	c-0.1-0.8-0.2-1.7-0.2-2.5c-0.1-0.9-0.1-1.9-0.1-2.8c0-1,0-2,0-3c0-0.5,0.1-1,0-1.4c0-0.1,0-0.2,0-0.2c0.2-0.2,0.1-0.5,0.2-0.8
	c0.1-0.8,0.2-1.6,0.3-2.5c0-0.2,0.2-0.5,0-0.8C287.3,413.2,287.3,413.2,287.3,413.1z M297.7,411.8c-2.7,0-5.4,0.3-8.1,0.8
	c-0.2,0-0.3,0.1-0.4,0.4c-0.2,1-0.3,2-0.5,3c-0.5,4.4-0.4,8.8,0.5,13.2c0.1,0.3,0.1,0.4,0.4,0.4c1.3,0.2,2.6,0.4,3.9,0.5
	c4.1,0.4,8.1,0.2,12.1-0.5c0.4-0.1,0.5-0.2,0.6-0.6c0.6-3.1,0.8-6.2,0.7-9.3c-0.1-2.3-0.3-4.5-0.7-6.8c0-0.2-0.1-0.4-0.4-0.4
	C303.1,412.1,300.4,411.8,297.7,411.8z M318.6,421.2c0-0.8-0.1-1.4-0.4-1.9c-0.6-1.2-1.5-2.1-2.5-2.9c-2.2-1.6-4.7-2.6-7.4-3.3
	c-0.4-0.1-0.2,0.2-0.2,0.3c0.8,5.1,0.8,10.2,0,15.2c-0.1,0.4-0.1,0.4,0.4,0.3c1.5-0.4,3-0.9,4.4-1.6c1.6-0.8,3.1-1.6,4.3-3
	C317.9,423.5,318.5,422.4,318.6,421.2z M305.4,410.7c0.4,0,0.2-0.2,0.1-0.3c-0.5-1.9-1.2-3.8-2.1-5.5c-0.7-1.3-1.6-2.6-2.8-3.6
	c-1.6-1.3-3.4-1.5-5.1-0.5c-1,0.6-1.9,1.4-2.5,2.4c-1.5,2.1-2.5,4.5-3.2,7c-0.1,0.5-0.1,0.5,0.4,0.4c3.6-0.6,7.2-0.7,10.9-0.5
	C302.5,410.3,304,410.5,305.4,410.7z M289.7,431.4c0.3,1.7,1.5,4.6,2.4,6.2c0.7,1.2,1.6,2.4,2.7,3.3c1.2,0.9,2.6,1.3,4.1,0.8
	c1-0.3,1.8-0.9,2.5-1.7c1.1-1.1,1.9-2.5,2.6-3.9c0.7-1.5,1.2-3.1,1.7-4.7C300.3,432.3,295,432.3,289.7,431.4z M302.7,441.3
	c3.8-1,7-2.8,9.7-5.5c2.6-2.6,5.4-7.5,5.4-9.7c-0.6,0.5-1.1,1-1.7,1.4c-2.2,1.5-4.7,2.5-7.3,3.2c-0.4,0.1-0.9,0.1-1.2,0.4
	c-0.3,0.3-0.3,0.8-0.4,1.2c-0.8,2.7-1.8,5.4-3.5,7.7C303.5,440.4,303.1,440.8,302.7,441.3z M292.6,400.8c-4,1-7.4,3-10.2,6
	c-2.4,2.6-4.1,5.6-4.9,9.1c0.5-0.4,1-0.8,1.5-1.2c2.6-1.8,5.4-2.8,8.4-3.6c0.3-0.1,0.4-0.2,0.4-0.4c0.6-2.6,1.5-5.1,2.9-7.4
	C291.3,402.5,291.9,401.6,292.6,400.8z M277.4,426.2c0,0.1,0.1,0.3,0.1,0.4c1.7,5.7,5.2,10,10.4,12.9c1.4,0.7,2.8,1.3,4.3,1.7
	c0.1,0,0.2,0.2,0.3,0.1c0.1-0.1-0.1-0.2-0.1-0.3c-1.1-1.3-2-2.7-2.7-4.3c-0.8-1.8-1.4-3.6-1.9-5.5c-0.1-0.2-0.1-0.3-0.4-0.4
	c-0.5-0.1-0.9-0.2-1.4-0.4c-3.1-0.9-5.9-2.1-8.4-4.2C277.6,426.3,277.6,426.2,277.4,426.2z M317.8,415.9c0,0,0.1,0,0.1-0.1
	c-1.1-4.2-3.3-7.8-6.7-10.6c-2.4-2.1-5.2-3.6-8.4-4.3c1,1.2,1.8,2.4,2.5,3.8c1,1.9,1.7,4,2.2,6.1c0.1,0.3,0.2,0.4,0.4,0.4
	c0.6,0.1,1.2,0.3,1.8,0.5c2.5,0.8,5,1.8,7.1,3.4C317.1,415.4,317.5,415.6,317.8,415.9z"/>
<path fill="#808080" d="M286.9,429C286.9,429,286.9,429,286.9,429c0.4,0.1,0.5,0.1,0.4-0.3c-0.2-1.3-0.4-2.6-0.5-3.8
	c-0.2-2.4-0.2-4.7,0-7.1c0,0,0-0.1,0-0.1c0.1,0.5,0,1,0,1.4c0,1,0,2,0,3c0,0.9,0.1,1.9,0.1,2.8c0,0.8,0.2,1.7,0.2,2.5
	c0,0.4,0.1,0.8,0.2,1.2c0,0.2,0.1,0.4-0.1,0.5C287.2,429.2,287,429.1,286.9,429z"/>
<path fill="#808080" d="M286.8,417.4c0.1-1.4,0.2-2.7,0.5-4c0.2,0.3,0,0.6,0,0.8c-0.1,0.8-0.2,1.6-0.3,2.5
	C287,416.8,287.1,417.1,286.8,417.4z"/>
<path fill="#808080" d="M286.8,413.2c-0.2,0.1-0.3,0.1-0.5,0.1C286.4,413.1,286.6,413.1,286.8,413.2z"/>
<path fill="#808080" d="M287.3,413.1c-0.2,0-0.3,0.1-0.5,0.1C287,412.9,287.2,413,287.3,413.1z"/>
<path fill="#808080" d="M286.3,413.4c0,0.1-0.1,0.1-0.2,0C286.1,413.3,286.2,413.2,286.3,413.4z"/>
<path fill="#ED8D5A" d="M303.2,418.8c1.7,0,3.1,1.4,3.1,3.1c0,1.7-1.4,3.1-3.1,3.1c-1.8,0-3.1-1.4-3.1-3.2
	C300.1,420.2,301.5,418.8,303.2,418.8z M305.6,421.9c0-1.3-1.1-2.4-2.4-2.4c-1.3,0-2.4,1.1-2.4,2.5c0,1.3,1.1,2.4,2.4,2.4
	C304.5,424.4,305.6,423.3,305.6,421.9z"/>
<path fill="#ED8D5A" d="M297,420.4c0.8,0,1.4,0.2,1.9,0.7c0.8,0.8,0.9,2.1,0.2,3c-0.7,0.9-2,1.2-3,0.7c-1-0.6-1.5-1.7-1.1-2.8
	c0.1-0.4,0.3-0.7,0.6-1c0.5-0.6,1.1-1.3,1.6-1.9c0.1-0.1,0.2-0.2,0.4-0.2c0.1,0,0.3-0.1,0.4,0.1c0.1,0.2,0,0.3-0.1,0.4
	C297.5,419.7,297.3,420,297,420.4z M297.1,424.4c0.9,0,1.6-0.8,1.6-1.7c0-0.9-0.8-1.7-1.6-1.7c-0.9,0-1.6,0.8-1.6,1.7
	C295.5,423.6,296.2,424.4,297.1,424.4z"/>
<path fill="#ED8D5A" d="M292,418.8c1.2,0,2,1.1,1.5,2.3c-0.1,0.2,0,0.3,0.1,0.4c0.6,0.7,0.7,1.6,0.3,2.3c-0.4,0.8-1.3,1.3-2.2,1.2
	c-0.9-0.1-1.7-0.7-1.9-1.6c0-0.2,0-0.3-0.1-0.5c0-0.2,0.1-0.4,0.3-0.4c0.3,0,0.4,0.1,0.4,0.4c0,0.7,0.4,1.2,1.1,1.3
	c0.6,0.2,1.2-0.1,1.6-0.6c0.3-0.5,0.2-1.2-0.1-1.7c-0.1-0.1-0.3-0.3-0.4-0.3c-0.4-0.2-0.4-0.3-0.1-0.6c0.4-0.4,0.4-0.8,0.1-1.2
	c-0.2-0.3-0.6-0.4-0.9-0.3c-0.4,0.1-0.7,0.4-0.7,0.8c0,0.3-0.1,0.4-0.4,0.4c-0.3,0-0.4-0.1-0.3-0.4
	C290.4,419.5,291.1,418.8,292,418.8z"/>
</svg>
