<?xml version="1.0" encoding="UTF-8"?>
<svg width="21px" height="20px" viewBox="0 0 21 20" version="1.1" xmlns="http://www.w3.org/2000/svg" xmlns:xlink="http://www.w3.org/1999/xlink">
    <!-- Generator: sketchtool 51.1 (57501) - http://www.bohemiancoding.com/sketch -->
    <title>A3AFE92D-9376-431B-81E1-7E5F267D1FDA@1x</title>
    <desc>Created with sketchtool.</desc>
    <defs></defs>
    <g id="Page-1" stroke="none" stroke-width="1" fill="none" fill-rule="evenodd">
        <g id="Listing-Details-page-" transform="translate(-1130.000000, -1061.000000)">
            <g id="Group-36-Copy" transform="translate(927.000000, 646.000000)">
                <g id="Favorites" transform="translate(201.000000, 410.000000)">
                    <g id="Heart" transform="translate(0.000000, 2.000000)">
                        <rect id="Rectangle-39" x="0" y="0" width="24" height="24"></rect>
                        <g id="baseline-favorite_border-24px" transform="translate(2.000000, 3.000000)" fill="#6DC7BE" fill-rule="nonzero">
                            <path d="M15.225,0 C13.398,0 11.6445,0.8505 10.5,2.1945 C9.3555,0.8505 7.602,0 5.775,0 C2.541,0 0,2.541 0,5.775 C0,9.744 3.57,12.978 8.9775,17.892 L10.5,19.2675 L12.0225,17.8815 C17.43,12.978 21,9.744 21,5.775 C21,2.541 18.459,0 15.225,0 Z M10.505,16.2275 L10.4,16.3325 L10.295,16.2275 C5.297,11.702 2,8.7095 2,5.675 C2,3.575 3.575,2 5.675,2 C7.292,2 8.867,3.0395 9.4235,4.478 L11.387,4.478 C11.933,3.0395 13.508,2 15.125,2 C17.225,2 18.8,3.575 18.8,5.675 C18.8,8.7095 15.503,11.702 10.505,16.2275 Z" id="Shape"></path>
                        </g>
                    </g>
                </g>
            </g>
        </g>
    </g>
</svg>