<?xml version="1.0" encoding="UTF-8"?>
<svg width="13px" height="16px" viewBox="0 0 13 16" version="1.1" xmlns="http://www.w3.org/2000/svg" xmlns:xlink="http://www.w3.org/1999/xlink">
    <!-- Generator: sketchtool 51.2 (57519) - http://www.bohemiancoding.com/sketch -->
    <title>DED3A20E-FF24-4CEA-958E-5C4EFED3102D@2x</title>
    <desc>Created with sketchtool.</desc>
    <defs></defs>
    <g id="Page-1" stroke="none" stroke-width="1" fill="none" fill-rule="evenodd">
        <g id="Homepage_Filter-(Co-living-&amp;-Entire-place-selected)" transform="translate(-482.000000, -748.000000)">
            <g id="commute-time" transform="translate(289.000000, 685.000000)">
                <g id="Group-11" transform="translate(177.000000, 43.000000)">
                    <g id="ic_location" transform="translate(16.524590, 20.000000)">
                        <path d="M6.19672131,15.5 C6.11256305,15.5 6.21318594,15.4349728 6.33902199,15.3220961 C6.54119955,15.1407399 6.80136918,14.8698815 7.09700554,14.5318158 C7.72963327,13.8083943 8.46864992,12.8433932 9.15577937,11.8329189 C10.8227478,9.38151948 11.8934426,7.12256692 11.8934426,5.81818182 C11.8934426,2.88832203 9.34973284,0.5 6.19672131,0.5 C3.04370978,0.5 0.5,2.88832203 0.5,5.81818182 C0.5,7.12256692 1.57069485,9.38151948 3.23766325,11.8329189 C3.92479271,12.8433932 4.66380935,13.8083943 5.29643708,14.5318158 C5.59207344,14.8698815 5.85224308,15.1407399 6.05442063,15.3220961 C6.18025668,15.4349728 6.28087957,15.5 6.19672131,15.5 Z" id="Oval" stroke="#242C3D"></path>
                        <ellipse id="Oval-2" fill="#65B8AF" cx="6.19672131" cy="6" rx="2.06557377" ry="2"></ellipse>
                    </g>
                </g>
            </g>
        </g>
    </g>
</svg>