<?xml version="1.0" encoding="UTF-8"?>
<svg width="17px" height="20px" viewBox="0 0 17 20" version="1.1" xmlns="http://www.w3.org/2000/svg" xmlns:xlink="http://www.w3.org/1999/xlink">
    <!-- Generator: sketchtool 51.1 (57501) - http://www.bohemiancoding.com/sketch -->
    <title>54FC1AC3-B268-48A5-A43A-B1D2AFF94135</title>
    <desc>Created with sketchtool.</desc>
    <defs></defs>
    <g id="Page-1" stroke="none" stroke-width="1" fill="none" fill-rule="evenodd">
        <g id="Listing-Details-page-" transform="translate(-960.000000, -1060.000000)">
            <g id="Group-36-Copy" transform="translate(927.000000, 646.000000)">
                <g id="Share-it" transform="translate(29.000000, 410.000000)">
                    <g id="ic_logout" transform="translate(12.000000, 14.000000) rotate(-90.000000) translate(-12.000000, -14.000000) translate(0.000000, 2.000000)">
                        <rect id="Background" x="0" y="0" width="24" height="24"></rect>
                        <g id="logout" stroke="#FFD1B6" stroke-linecap="round" stroke-linejoin="round" stroke-width="2">
                            <g transform="translate(12.000000, 12.500000) rotate(90.000000) translate(-12.000000, -12.500000) translate(5.000000, 4.000000)">
                                <path d="M7,10 L7,0" id="Stroke-345"></path>
                                <path d="M9,2 L7,0" id="Stroke-346"></path>
                                <path d="M7,0 L5,2" id="Stroke-347"></path>
                                <path d="M13,3 C13.553,3 14,3.56890909 14,4.27272727 L14,15.7272727 C14,16.4310909 13.553,17 13,17 L1,17 C0.447,17 0,16.4310909 0,15.7272727 L0,4.27272727 C0,3.56890909 0.447,3 1,3" id="Stroke-348"></path>
                            </g>
                        </g>
                    </g>
                </g>
            </g>
        </g>
    </g>
</svg>