<?xml version="1.0" encoding="utf-8"?>
<!-- Generator: Adobe Illustrator 16.0.2, SVG Export Plug-In . SVG Version: 6.00 Build 0)  -->
<!DOCTYPE svg PUBLIC "-//W3C//DTD SVG 1.1//EN" "http://www.w3.org/Graphics/SVG/1.1/DTD/svg11.dtd">
<svg version="1.1" id="Layer_1" xmlns="http://www.w3.org/2000/svg" xmlns:xlink="http://www.w3.org/1999/xlink" x="0px" y="0px"
	 width="27.4px" height="54.9px" viewBox="336.4 485.7 27.4 54.9" enable-background="new 336.4 485.7 27.4 54.9"
	 xml:space="preserve">
<g>
	<path fill="#42A399" d="M359.1,508.3c0,0.6-0.1,1-0.5,1.3c-3.2,3.2-6.3,6.3-9.5,9.5c-0.2,0.2-0.4,0.3-0.6,0.5
		c-0.7,0.5-1.2,0.5-1.9,0c-0.8-0.6-1.5-1.4-2.2-2.1c-1-1-1.9-1.9-2.9-2.9c-0.6-0.6-0.6-1.8,0.1-2.6c0.5-0.6,1.3-0.7,2.1-0.2
		c0.3,0.2,0.6,0.5,0.9,0.7c0.9,0.9,1.7,1.7,2.6,2.6c0.4,0.4,0.5,0.3,0.9,0c2.5-2.5,5-5,7.5-7.5c0.2-0.2,0.5-0.5,0.8-0.7
		c0.5-0.4,1.2-0.7,1.8-0.4C358.8,506.9,359,507.6,359.1,508.3z"/>
	<g>
		<path fill="#1C4C5C" d="M340.6,540.6c-0.4-0.3-0.9-0.3-1.3-0.5c-1.6-0.7-2.5-1.9-2.8-3.6c-0.1-0.4-0.1-0.9-0.1-1.3
			c0-14.7,0-29.4,0-44.1c0-1,0.1-1.9,0.5-2.8c0.6-1.3,1.7-2,3.1-2.4c0.2-0.1,0.4,0,0.6-0.2c6.3,0,12.6,0,18.9,0
			c0.5,0.2,1,0.3,1.5,0.5c1.7,0.7,2.6,1.9,2.8,3.7c0,0.4,0.1,0.8,0.1,1.2c0,14.7,0,29.4,0,44.1c0,0.7,0,1.5-0.3,2.2
			c-0.6,1.9-2,2.8-3.8,3.1c-0.1,0-0.2,0-0.3,0.1C353.1,540.6,346.9,540.6,340.6,540.6z M361.3,511.9c0-6.4,0-12.9,0-19.3
			c0-0.4-0.1-0.6-0.6-0.6c-7.1,0-14.2,0-21.3,0c-0.4,0-0.6,0.1-0.6,0.5c0,12.9,0,25.8,0,38.8c0,0.5,0.1,0.5,0.6,0.5
			c7.1,0,14.2,0,21.3,0c0.5,0,0.6-0.1,0.6-0.6C361.3,524.8,361.3,518.3,361.3,511.9z M352.6,536.1c0-1.4-1.1-2.5-2.5-2.5
			c-1.4,0-2.5,1.1-2.5,2.5c0,1.4,1.1,2.5,2.5,2.5C351.4,538.5,352.6,537.4,352.6,536.1z M350.1,488.2c-1,0-2.1,0-3.1,0
			c-0.5,0-0.6,0.2-0.6,0.6c0,0.4,0.2,0.6,0.6,0.6c2.1,0,4.1,0,6.2,0c0.5,0,0.6-0.2,0.6-0.6c0-0.4-0.2-0.7-0.6-0.6
			C352.2,488.2,351.1,488.2,350.1,488.2z"/>
	</g>
</g>
</svg>
