<?xml version="1.0" encoding="utf-8"?>
<!-- Generator: Adobe Illustrator 16.0.2, SVG Export Plug-In . SVG Version: 6.00 Build 0)  -->
<!DOCTYPE svg PUBLIC "-//W3C//DTD SVG 1.1//EN" "http://www.w3.org/Graphics/SVG/1.1/DTD/svg11.dtd">
<svg version="1.1" id="Layer_1" xmlns="http://www.w3.org/2000/svg" xmlns:xlink="http://www.w3.org/1999/xlink" x="0px" y="0px"
	 width="65.1px" height="34.1px" viewBox="299.1 478 65.1 34.1" enable-background="new 299.1 478 65.1 34.1" xml:space="preserve">
<g>
	<path fill="#C7C8C9" d="M364.2,495.5c-0.1,5.5-1.9,10.8-5.5,15.4c-0.5,0.7-1.1,1.7-2.1,0.9c-1-0.8-0.3-1.5,0.2-2.3
		c6.8-8.9,6.7-20.1-0.2-28.9c-0.6-0.8-1.1-1.5-0.1-2.3c1-0.7,1.5,0.1,2,0.8C362.1,483.5,364.2,489.4,364.2,495.5z"/>
	<path fill="#C7C8C9" d="M299.1,495c0.1-6,2-11.3,5.7-15.9c0.3-0.4,0.6-1,1.3-1.1c0.5-0.1,0.9,0.1,1.2,0.5c0.4,0.7,0.1,1.2-0.3,1.7
		c-2.6,3.1-4.3,6.5-5.1,10.5c-1.3,6.9,0.3,13.1,4.4,18.6c0.2,0.3,0.4,0.5,0.6,0.7c0.5,0.6,0.5,1.3-0.1,1.8c-0.7,0.5-1.3,0.3-1.8-0.3
		c-2.3-2.8-4-5.9-5-9.3C299.4,499.8,299.1,497.5,299.1,495z"/>
	<path fill="#C7C8C9" d="M307.7,494.6c0.1-3.2,1.1-6.5,3.4-9.4c0.5-0.7,1.1-1.4,2.1-0.7c1,0.7,0.4,1.4-0.1,2.1
		c-3.8,5.2-3.9,11.5-0.2,16.9c0.5,0.8,1.1,1.6,0,2.3c-1,0.6-1.5-0.2-2-0.9C308.8,502.1,307.7,498.6,307.7,494.6z"/>
	<path fill="#C7C8C9" d="M355.5,495.2c0,3.5-1,6.7-3,9.6c-0.5,0.7-1.1,1.5-2,0.9c-1-0.6-0.5-1.4,0-2.2c3.7-5.6,3.6-11.3-0.3-17
		c-0.5-0.7-0.8-1.5,0-2c0.8-0.6,1.5,0,2,0.7C354.4,488.2,355.6,491.5,355.5,495.2z"/>
	<g>
		<path fill="#1C4C5C" d="M316,496c0-1.5,0-2.9,0-4.4c0-1.2,0.4-2.1,1.2-2.9c1.2-1.1,2.7-1.8,4.2-2.3c1-0.3,1.9,0.4,1.9,1.6
			c0,1.3,0,2.7,0,4c0,0.5,0,1,0,1.5c0,1.3,0,1.3,1.3,1.5c4.9,1,9.7,0.9,14.6-0.1c0.5-0.1,0.6-0.3,0.6-0.8c0-1.9,0-3.8,0-5.6
			c0-0.4,0-0.8,0.1-1.2c0.2-1,0.9-1.4,1.9-1.1c1.6,0.5,3.1,1.2,4.3,2.3c0.9,0.8,1.3,1.8,1.3,3c0,2.8-0.1,5.7,0,8.5
			c0,1.7-0.7,2.9-2,3.8c-1.4,1-3,1.6-4.6,2c-6.4,1.6-12.8,1.6-19.2-0.3c-1.6-0.5-3.1-1.2-4.4-2.3c-0.9-0.8-1.3-1.8-1.3-3
			C316,498.9,316,497.5,316,496C316,496,316,496,316,496z M317.9,494.5c0,2,0,3.9,0,5.7c0,0.9,0.3,1.5,1,2.1c0.9,0.7,1.9,1.2,3,1.5
			c5.9,1.8,11.8,1.9,17.7,0.6c1.7-0.4,3.3-0.9,4.7-1.9c0.8-0.6,1.3-1.3,1.2-2.3c-0.1-1.7,0-3.4,0-5.1c0-0.2,0.1-0.4-0.1-0.5
			C339.4,498.6,324.3,498.8,317.9,494.5z M341.6,488.3c0,1.9,0,3.8,0,5.6c0,0.3,0.2,0.4,0.4,0.3c1-0.4,2.1-0.9,2.9-1.7
			c0.8-0.8,0.8-1.5,0-2.3C344,489.2,342.9,488.7,341.6,488.3z M321.5,491.3c0-0.8,0-1.6,0-2.4c0-0.4-0.1-0.5-0.5-0.3
			c-1,0.4-1.9,0.9-2.6,1.7c-0.7,0.8-0.7,1.5,0,2.2c0.7,0.8,1.7,1.2,2.6,1.7c0.4,0.2,0.4,0,0.4-0.4
			C321.5,492.9,321.5,492.1,321.5,491.3z"/>
		<path fill="#ED8D5A" d="M329.9,488.2c0-0.6,0-1.2,0-1.8c0.1-0.7,0.6-1.3,1.3-1.5c0.7-0.2,1.4,0,1.9,0.6c0.2,0.2,0.5,0.6,0.3,0.8
			c-0.2,0.2-0.7,0.3-1-0.1c-0.2-0.3-0.5-0.4-0.8-0.3c-0.6,0-1.1,0.9-0.8,1.5c0.1,0.2,0.3,0.1,0.4,0.1c0.4-0.1,0.8-0.2,1.2,0
			c0.6,0.2,1,0.6,1.1,1.2c0.1,0.5,0.1,1,0,1.5c-0.1,1-0.9,1.6-1.9,1.6c-1,0-1.7-0.7-1.8-1.7C329.8,489.4,329.8,488.8,329.9,488.2
			C329.8,488.2,329.8,488.2,329.9,488.2z M332.6,489.5c0-1-0.3-1.3-1-1.3c-0.7,0-0.9,0.4-1,1.3s0.3,1.3,0.9,1.3
			C332.3,490.7,332.6,490.4,332.6,489.5z"/>
		<path fill="#ED8D5A" d="M337.6,488.3c0,0.5,0,1.1,0,1.6c0,1-0.7,1.6-1.7,1.7c-0.9,0.1-1.8-0.5-1.9-1.4c-0.2-1.3-0.2-2.6,0-3.9
			c0.1-1,1-1.5,2-1.4c0.9,0.1,1.5,0.8,1.6,1.7C337.6,487.2,337.6,487.7,337.6,488.3z M334.8,488.2
			C334.8,488.2,334.8,488.2,334.8,488.2c0,0.5,0,1.1,0,1.6c0,0.6,0.3,0.9,0.9,0.9c0.6,0,0.9-0.3,0.9-0.9c0-1,0-2,0-3
			c0-0.6-0.3-1-0.9-1c-0.7,0-0.9,0.4-0.9,1C334.8,487.3,334.8,487.7,334.8,488.2z"/>
		<path fill="#ED8D5A" d="M325.5,490c0.4-0.1,0.8-0.1,1.1,0.4c0.3,0.4,0.7,0.5,1.2,0.3c0.5-0.2,0.6-0.7,0.5-1.2
			c-0.1-0.5-0.3-0.7-0.8-0.8c-0.3,0-0.6,0.1-0.6-0.4c0-0.5,0.3-0.5,0.6-0.5c0.4,0,0.7-0.3,0.7-0.8c0.1-0.5-0.1-0.8-0.5-1
			c-0.4-0.2-0.8-0.1-1.1,0.3c-0.1,0.1-0.1,0.2-0.1,0.3c-0.2,0.3-0.6,0.2-0.8,0.1c-0.4-0.1-0.1-0.4,0-0.6c0.3-0.7,0.8-1.1,1.6-1.1
			c0.7,0,1.3,0.3,1.7,0.9c0.4,0.7,0.4,1.4-0.1,2c-0.3,0.3-0.2,0.4,0,0.7c0.5,0.6,0.5,1.6,0.1,2.3c-0.4,0.6-1.2,1-2,0.9
			C326.2,491.5,325.7,490.9,325.5,490z"/>
		<path fill="#ED8D5A" d="M339.9,484.1c0,0.6-0.6,1.2-1.2,1.2c-0.6,0-1.2-0.5-1.2-1.1c0-0.7,0.5-1.2,1.1-1.3
			C339.3,482.9,339.9,483.5,339.9,484.1z M338.7,483.7c-0.3,0-0.4,0.2-0.4,0.4c0,0.2,0.1,0.4,0.4,0.4c0.3,0,0.4-0.1,0.4-0.4
			C339.1,483.9,339,483.8,338.7,483.7z"/>
		<path fill="#1C4C5C" d="M338.2,502.9c-0.4,0.4-0.7,0.8-1.2,1.1c-0.3,0.2-0.5-0.3-0.7-0.5c-0.7-0.7-1.4-1.4-2.1-2.1
			c-0.3-0.4-0.6-0.4-0.9,0c-0.8,0.8-1.7,1.5-2.5,2.3c-0.4,0.3-0.6,0.4-0.9,0c-0.2-0.2-0.4-0.4-0.6-0.6c-0.2-0.2-0.2-0.4,0-0.5
			c0.2-0.2,0.3-0.3,0-0.6c-0.3-0.2-0.4-0.2-0.7,0c-0.6,0.6-1.3,1.1-1.9,1.7c-0.3,0.3-0.5,0.3-0.8,0c-0.9-1-0.9-1,0-1.8
			c0.8-0.8,1.7-1.5,2.5-2.3c0.3-0.3,0.5-0.3,0.8,0c0.4,0.4,0.9,0.8,1.3,1.2c0.3,0.3,0.5,0.2,0.7,0c0.7-0.7,1.4-1.3,2.1-1.9
			c0.2-0.2,0.4-0.3,0.7,0c1.3,1.3,2.6,2.6,3.8,3.8C338.1,502.6,338.1,502.8,338.2,502.9z"/>
		<path fill="#1C4C5C" d="M338.3,499.5c-0.1,0.5-0.4,0.9-1,0.9c-0.5,0-0.9-0.4-0.9-1c0-0.6,0.4-0.9,1-0.8
			C338,498.5,338.3,498.9,338.3,499.5z"/>
	</g>
</g>
</svg>
