<?xml version="1.0" encoding="utf-8"?>
<!-- Generator: Adobe Illustrator 16.0.2, SVG Export Plug-In . SVG Version: 6.00 Build 0)  -->
<!DOCTYPE svg PUBLIC "-//W3C//DTD SVG 1.1//EN" "http://www.w3.org/Graphics/SVG/1.1/DTD/svg11.dtd">
<svg version="1.1" id="Layer_1" xmlns="http://www.w3.org/2000/svg" xmlns:xlink="http://www.w3.org/1999/xlink" x="0px" y="0px"
	 width="65.1px" height="34.1px" viewBox="317.7 495.7 65.1 34.1" enable-background="new 317.7 495.7 65.1 34.1"
	 xml:space="preserve">
<g>
	<path fill="#FFFFFF" d="M382.8,513.2c-0.1,5.5-1.9,10.8-5.5,15.4c-0.5,0.7-1.1,1.7-2.1,0.9c-1-0.8-0.3-1.5,0.2-2.3
		c6.8-8.9,6.7-20.1-0.2-28.9c-0.6-0.8-1.1-1.5-0.1-2.3c1-0.7,1.5,0.1,2,0.8C380.7,501.2,382.8,507.1,382.8,513.2z"/>
	<path fill="#FFFFFF" d="M317.7,512.7c0.1-6,2-11.3,5.7-15.9c0.4-0.4,0.6-1,1.3-1.1c0.5-0.1,0.9,0.1,1.2,0.5
		c0.4,0.7,0.1,1.2-0.3,1.7c-2.6,3.1-4.3,6.5-5.1,10.5c-1.3,6.9,0.3,13.1,4.4,18.6c0.2,0.3,0.4,0.5,0.6,0.7c0.5,0.6,0.5,1.3-0.1,1.8
		c-0.6,0.5-1.3,0.3-1.8-0.3c-2.3-2.8-4-5.9-5-9.3C318.1,517.5,317.7,515.2,317.7,512.7z"/>
	<path fill="#FFFFFF" d="M326.3,512.3c0.1-3.2,1.1-6.5,3.4-9.4c0.5-0.7,1.1-1.4,2.1-0.7c1,0.7,0.4,1.4-0.1,2.1
		c-3.8,5.2-3.9,11.5-0.2,16.9c0.5,0.8,1.1,1.6,0,2.3c-1,0.6-1.5-0.2-2-0.9C327.4,519.8,326.3,516.3,326.3,512.3z"/>
	<path fill="#FFFFFF" d="M374.2,512.9c0,3.5-1,6.7-3,9.6c-0.5,0.7-1.1,1.5-2,0.9c-1-0.6-0.5-1.4,0-2.2c3.7-5.6,3.6-11.3-0.3-17
		c-0.5-0.7-0.8-1.5,0-2c0.8-0.6,1.5,0,2,0.7C373,505.9,374.2,509.2,374.2,512.9z"/>
	<path fill="#FFFFFF" d="M334.6,513.7c0-1.5,0-2.9,0-4.4c0-1.2,0.4-2.1,1.2-2.9c1.2-1.1,2.7-1.8,4.2-2.3c1-0.3,1.9,0.4,1.9,1.6
		c0,1.3,0,2.7,0,4c0,0.5,0,1,0,1.5c0,1.3,0,1.3,1.3,1.5c4.9,1,9.7,0.9,14.6-0.1c0.5-0.1,0.6-0.3,0.6-0.8c0-1.9,0-3.8,0-5.6
		c0-0.4,0-0.8,0.1-1.2c0.2-1,0.9-1.4,1.9-1.1c1.6,0.5,3.1,1.1,4.3,2.3c0.9,0.8,1.3,1.8,1.3,3.1c0,2.8-0.1,5.7,0,8.5
		c0,1.7-0.7,2.9-2,3.8c-1.4,1-3,1.6-4.6,2c-6.4,1.6-12.8,1.6-19.2-0.3c-1.6-0.5-3.1-1.2-4.4-2.3c-0.9-0.8-1.3-1.8-1.3-3
		C334.6,516.6,334.6,515.2,334.6,513.7C334.6,513.7,334.6,513.7,334.6,513.7z M336.5,512.2c0,2,0,3.9,0,5.7c0,0.9,0.3,1.5,1,2.1
		c0.9,0.7,1.9,1.2,3,1.5c5.9,1.8,11.8,1.9,17.7,0.6c1.7-0.4,3.3-0.9,4.7-1.9c0.8-0.6,1.3-1.3,1.2-2.3c-0.1-1.7,0-3.4,0-5.1
		c0-0.2,0.1-0.4-0.1-0.5C358.1,516.3,342.9,516.5,336.5,512.2z M360.2,506c0,1.9,0,3.8,0,5.6c0,0.3,0.2,0.4,0.4,0.3
		c1-0.4,2.1-0.9,2.9-1.7c0.8-0.8,0.8-1.5,0-2.3C362.6,506.9,361.5,506.4,360.2,506z M340.1,509c0-0.8,0-1.6,0-2.4
		c0-0.4-0.1-0.5-0.5-0.4c-1,0.4-1.9,0.9-2.6,1.7c-0.7,0.8-0.7,1.5,0,2.2c0.7,0.8,1.7,1.2,2.6,1.7c0.4,0.2,0.4,0,0.4-0.4
		C340.1,510.6,340.1,509.8,340.1,509z"/>
	<path fill="#ED8D5A" d="M348.5,505.9c0-0.6,0-1.2,0-1.8c0.1-0.7,0.6-1.3,1.3-1.5c0.7-0.2,1.4,0,1.9,0.6c0.2,0.2,0.5,0.6,0.3,0.8
		c-0.2,0.2-0.7,0.3-1-0.1c-0.2-0.3-0.5-0.4-0.8-0.3c-0.6,0-1.1,0.9-0.8,1.5c0.1,0.2,0.3,0.1,0.4,0.1c0.4-0.1,0.8-0.2,1.2,0
		c0.6,0.2,1,0.6,1.1,1.2c0.1,0.5,0.1,1,0,1.5c-0.1,1-0.9,1.6-1.9,1.6c-1,0-1.7-0.7-1.8-1.7C348.4,507.1,348.5,506.5,348.5,505.9
		C348.5,505.9,348.5,505.9,348.5,505.9z M351.2,507.2c0-1-0.3-1.3-1-1.3c-0.7,0-0.9,0.4-0.9,1.3c0,0.9,0.3,1.3,0.9,1.3
		C350.9,508.4,351.2,508.1,351.2,507.2z"/>
	<path fill="#ED8D5A" d="M356.2,506c0,0.5,0,1.1,0,1.6c0,1-0.7,1.6-1.7,1.7c-0.9,0.1-1.8-0.5-1.9-1.4c-0.2-1.3-0.2-2.6,0-3.9
		c0.1-1,1-1.5,2-1.4c0.9,0.1,1.5,0.8,1.6,1.7C356.2,504.9,356.2,505.4,356.2,506z M353.4,505.9C353.4,505.9,353.4,505.9,353.4,505.9
		c0,0.5,0,1.1,0,1.6c0,0.6,0.4,0.9,0.9,0.9c0.6,0,0.9-0.3,0.9-0.9c0-1,0-2,0-3c0-0.6-0.3-1-0.9-1c-0.7,0-0.9,0.4-0.9,1
		C353.4,505,353.4,505.4,353.4,505.9z"/>
	<path fill="#ED8D5A" d="M344.1,507.7c0.4-0.1,0.8-0.1,1.1,0.4c0.3,0.4,0.7,0.5,1.2,0.3c0.5-0.2,0.6-0.7,0.5-1.2
		c-0.1-0.5-0.3-0.7-0.8-0.8c-0.3,0-0.6,0.1-0.6-0.4c0-0.5,0.3-0.5,0.6-0.5c0.4,0,0.7-0.3,0.7-0.8c0.1-0.5-0.1-0.8-0.5-1
		c-0.4-0.2-0.8-0.1-1.1,0.3c-0.1,0.1-0.1,0.2-0.1,0.3c-0.2,0.3-0.6,0.2-0.8,0.1c-0.4-0.1-0.1-0.4,0-0.6c0.3-0.7,0.8-1.1,1.6-1.1
		c0.7,0,1.3,0.3,1.7,0.9c0.4,0.7,0.4,1.4-0.1,2c-0.3,0.3-0.2,0.4,0,0.7c0.5,0.6,0.5,1.6,0.1,2.3c-0.4,0.6-1.2,1-2,0.9
		C344.8,509.2,344.3,508.6,344.1,507.7z"/>
	<path fill="#ED8D5A" d="M358.6,501.8c0,0.6-0.6,1.2-1.2,1.2c-0.6,0-1.2-0.5-1.2-1.1c0-0.7,0.5-1.2,1.1-1.3
		C358,500.6,358.5,501.2,358.6,501.8z M357.4,501.4c-0.3,0-0.4,0.2-0.4,0.4c0,0.3,0.1,0.4,0.4,0.4c0.3,0,0.4-0.1,0.4-0.4
		C357.8,501.6,357.6,501.5,357.4,501.4z"/>
	<path fill="#FFFFFF" d="M356.9,520.6c-0.4,0.4-0.7,0.8-1.2,1.1c-0.3,0.2-0.5-0.3-0.7-0.5c-0.7-0.7-1.4-1.4-2.1-2.1
		c-0.3-0.4-0.6-0.4-0.9,0c-0.8,0.8-1.7,1.5-2.5,2.3c-0.3,0.3-0.6,0.4-0.9,0c-0.2-0.2-0.4-0.4-0.6-0.6c-0.2-0.2-0.2-0.4,0-0.5
		c0.2-0.2,0.3-0.3,0-0.6c-0.3-0.2-0.4-0.2-0.7,0c-0.6,0.6-1.3,1.1-1.9,1.7c-0.3,0.3-0.5,0.3-0.8,0c-0.9-1-0.9-1,0-1.8
		c0.8-0.8,1.7-1.5,2.5-2.3c0.3-0.3,0.5-0.3,0.8,0c0.4,0.4,0.9,0.8,1.3,1.2c0.3,0.3,0.5,0.2,0.7,0c0.7-0.7,1.4-1.3,2.1-1.9
		c0.2-0.2,0.4-0.3,0.7,0c1.3,1.3,2.6,2.6,3.8,3.8C356.7,520.3,356.7,520.5,356.9,520.6z"/>
	<path fill="#FFFFFF" d="M356.9,517.2c-0.1,0.5-0.4,0.9-1,0.9c-0.5,0-0.9-0.4-0.9-1c0-0.6,0.4-0.9,1-0.9
		C356.6,516.2,356.9,516.6,356.9,517.2z"/>
</g>
</svg>
