<?xml version="1.0" encoding="utf-8"?>
<!-- Generator: Adobe Illustrator 16.0.2, SVG Export Plug-In . SVG Version: 6.00 Build 0)  -->
<!DOCTYPE svg PUBLIC "-//W3C//DTD SVG 1.1//EN" "http://www.w3.org/Graphics/SVG/1.1/DTD/svg11.dtd">
<svg version="1.1" id="Layer_1" xmlns="http://www.w3.org/2000/svg" xmlns:xlink="http://www.w3.org/1999/xlink" x="0px" y="0px"
	 width="44.7px" height="28.2px" viewBox="327.3 498.4 44.7 28.2" enable-background="new 327.3 498.4 44.7 28.2"
	 xml:space="preserve">
<path fill="#1C4C5C" d="M349.7,498.4c6.4,0,12.7,0,19.1,0c1.6,0,2.7,0.8,3.1,2.1c0.1,0.3,0.1,0.7,0.1,1c0,7.3,0,14.6,0,21.9
	c0,1.9-1.3,3.2-3.2,3.2c-3.5,0-7,0-10.6,0c-1,0-1.7-0.5-2-1.3c-1.1-2.5-2.2-5-3.1-7.6c-0.5-1.5-1.9-2.5-3.5-2.5
	c-1.6,0-2.9,1-3.4,2.5c-0.9,2.6-2,5.1-3.1,7.6c-0.3,0.8-1,1.3-2,1.3c-3.5,0-7,0-10.6,0c-2.1,0-3.4-1.2-3.4-3.3c0-7.2,0-14.4,0-21.6
	c0-2,1.3-3.3,3.3-3.3C337,498.4,343.3,498.4,349.7,498.4z M344.4,512.5c0-2.7-2.2-4.9-4.9-4.9c-2.7,0-4.9,2.2-4.9,4.9
	c0,2.7,2.2,4.9,4.9,4.9C342.3,517.5,344.4,515.3,344.4,512.5z M360,517.5c2.7,0,4.9-2.2,4.9-4.9c0-2.7-2.2-5-4.9-5
	c-2.7,0-4.9,2.2-4.9,4.9C355,515.3,357.2,517.4,360,517.5z"/>
</svg>
