<?xml version="1.0" encoding="UTF-8"?>
<svg width="271px" height="183px" viewBox="0 0 271 183" version="1.1" xmlns="http://www.w3.org/2000/svg" xmlns:xlink="http://www.w3.org/1999/xlink">
    <!-- Generator: sketchtool 51.1 (57501) - http://www.bohemiancoding.com/sketch -->
    <title>84E16C63-56C3-42C6-9933-9FF2832E2F2F</title>
    <desc>Created with sketchtool.</desc>
    <defs></defs>
    <g id="Page-1" stroke="none" stroke-width="1" fill="none" fill-rule="evenodd">
        <g id="Negotiate-Copy-2" transform="translate(-585.000000, -230.000000)">
            <g id="Group-20" transform="translate(479.000000, 186.000000)">
                <g id="Group-10" transform="translate(106.000000, 43.000000)">
                    <g id="Group-9" transform="translate(0.000000, 93.000000)" fill="#FFD1B6" fill-opacity="0.436933877">
                        <path d="M2.37026239,0 L4.74052478,1.73596838 L4.74052478,4.52490119 L2.37026239,6.26086957 L0,4.52490119 L0,1.73596838 L2.37026239,0 Z M136.685131,0 L139.055394,1.73596838 L139.055394,4.52490119 L136.685131,6.26086957 L134.314869,4.52490119 L134.314869,1.73596838 L136.685131,0 Z M2.37026239,28.173913 L4.74052478,29.9098814 L4.74052478,32.6988142 L2.37026239,34.4347826 L0,32.6988142 L0,29.9098814 L2.37026239,28.173913 Z M136.685131,28.173913 L139.055394,29.9098814 L139.055394,32.6988142 L136.685131,34.4347826 L134.314869,32.6988142 L134.314869,29.9098814 L136.685131,28.173913 Z M2.37026239,13.3043478 L4.74052478,15.0403162 L4.74052478,17.829249 L2.37026239,19.5652174 L0,17.829249 L0,15.0403162 L2.37026239,13.3043478 Z M136.685131,13.3043478 L139.055394,15.0403162 L139.055394,17.829249 L136.685131,19.5652174 L134.314869,17.829249 L134.314869,15.0403162 L136.685131,13.3043478 Z M2.37026239,39.9130435 L4.74052478,41.6490119 L4.74052478,44.4379447 L2.37026239,46.173913 L0,44.4379447 L0,41.6490119 L2.37026239,39.9130435 Z M136.685131,39.9130435 L139.055394,41.6490119 L139.055394,44.4379447 L136.685131,46.173913 L134.314869,44.4379447 L134.314869,41.6490119 L136.685131,39.9130435 Z M7.11078717,7.04347826 L9.48104956,8.77944664 L9.48104956,11.5683794 L7.11078717,13.3043478 L4.74052478,11.5683794 L4.74052478,8.77944664 L7.11078717,7.04347826 Z M141.425656,7.04347826 L143.795918,8.77944664 L143.795918,11.5683794 L141.425656,13.3043478 L139.055394,11.5683794 L139.055394,8.77944664 L141.425656,7.04347826 Z M7.11078717,33.6521739 L9.48104956,35.3881423 L9.48104956,38.1770751 L7.11078717,39.9130435 L4.74052478,38.1770751 L4.74052478,35.3881423 L7.11078717,33.6521739 Z M141.425656,33.6521739 L143.795918,35.3881423 L143.795918,38.1770751 L141.425656,39.9130435 L139.055394,38.1770751 L139.055394,35.3881423 L141.425656,33.6521739 Z M7.11078717,21.1304348 L9.48104956,22.8664032 L9.48104956,25.655336 L7.11078717,27.3913043 L4.74052478,25.655336 L4.74052478,22.8664032 L7.11078717,21.1304348 Z M141.425656,21.1304348 L143.795918,22.8664032 L143.795918,25.655336 L141.425656,27.3913043 L139.055394,25.655336 L139.055394,22.8664032 L141.425656,21.1304348 Z M7.11078717,47.7391304 L9.48104956,49.4750988 L9.48104956,52.2640316 L7.11078717,54 L4.74052478,52.2640316 L4.74052478,49.4750988 L7.11078717,47.7391304 Z M141.425656,47.7391304 L143.795918,49.4750988 L143.795918,52.2640316 L141.425656,54 L139.055394,52.2640316 L139.055394,49.4750988 L141.425656,47.7391304 Z M35.5539359,0 L37.9241983,1.73596838 L37.9241983,4.52490119 L35.5539359,6.26086957 L33.1836735,4.52490119 L33.1836735,1.73596838 L35.5539359,0 Z M171.44898,0 L173.819242,1.73596838 L173.819242,4.52490119 L171.44898,6.26086957 L169.078717,4.52490119 L169.078717,1.73596838 L171.44898,0 Z M35.5539359,28.173913 L37.9241983,29.9098814 L37.9241983,32.6988142 L35.5539359,34.4347826 L33.1836735,32.6988142 L33.1836735,29.9098814 L35.5539359,28.173913 Z M171.44898,28.173913 L173.819242,29.9098814 L173.819242,32.6988142 L171.44898,34.4347826 L169.078717,32.6988142 L169.078717,29.9098814 L171.44898,28.173913 Z M35.5539359,13.3043478 L37.9241983,15.0403162 L37.9241983,17.829249 L35.5539359,19.5652174 L33.1836735,17.829249 L33.1836735,15.0403162 L35.5539359,13.3043478 Z M171.44898,13.3043478 L173.819242,15.0403162 L173.819242,17.829249 L171.44898,19.5652174 L169.078717,17.829249 L169.078717,15.0403162 L171.44898,13.3043478 Z M35.5539359,39.9130435 L37.9241983,41.6490119 L37.9241983,44.4379447 L35.5539359,46.173913 L33.1836735,44.4379447 L33.1836735,41.6490119 L35.5539359,39.9130435 Z M171.44898,39.9130435 L173.819242,41.6490119 L173.819242,44.4379447 L171.44898,46.173913 L169.078717,44.4379447 L169.078717,41.6490119 L171.44898,39.9130435 Z M41.0845481,7.04347826 L43.4548105,8.77944664 L43.4548105,11.5683794 L41.0845481,13.3043478 L38.7142857,11.5683794 L38.7142857,8.77944664 L41.0845481,7.04347826 Z M175.399417,7.04347826 L177.769679,8.77944664 L177.769679,11.5683794 L175.399417,13.3043478 L173.029155,11.5683794 L173.029155,8.77944664 L175.399417,7.04347826 Z M41.0845481,33.6521739 L43.4548105,35.3881423 L43.4548105,38.1770751 L41.0845481,39.9130435 L38.7142857,38.1770751 L38.7142857,35.3881423 L41.0845481,33.6521739 Z M175.399417,33.6521739 L177.769679,35.3881423 L177.769679,38.1770751 L175.399417,39.9130435 L173.029155,38.1770751 L173.029155,35.3881423 L175.399417,33.6521739 Z M41.0845481,21.1304348 L43.4548105,22.8664032 L43.4548105,25.655336 L41.0845481,27.3913043 L38.7142857,25.655336 L38.7142857,22.8664032 L41.0845481,21.1304348 Z M175.399417,21.1304348 L177.769679,22.8664032 L177.769679,25.655336 L175.399417,27.3913043 L173.029155,25.655336 L173.029155,22.8664032 L175.399417,21.1304348 Z M41.0845481,47.7391304 L43.4548105,49.4750988 L43.4548105,52.2640316 L41.0845481,54 L38.7142857,52.2640316 L38.7142857,49.4750988 L41.0845481,47.7391304 Z M175.399417,47.7391304 L177.769679,49.4750988 L177.769679,52.2640316 L175.399417,54 L173.029155,52.2640316 L173.029155,49.4750988 L175.399417,47.7391304 Z M71.1078717,0 L73.4781341,1.73596838 L73.4781341,4.52490119 L71.1078717,6.26086957 L68.7376093,4.52490119 L68.7376093,1.73596838 L71.1078717,0 Z M204.632653,0 L207.002915,1.73596838 L207.002915,4.52490119 L204.632653,6.26086957 L202.262391,4.52490119 L202.262391,1.73596838 L204.632653,0 Z M71.1078717,28.173913 L73.4781341,29.9098814 L73.4781341,32.6988142 L71.1078717,34.4347826 L68.7376093,32.6988142 L68.7376093,29.9098814 L71.1078717,28.173913 Z M204.632653,28.173913 L207.002915,29.9098814 L207.002915,32.6988142 L204.632653,34.4347826 L202.262391,32.6988142 L202.262391,29.9098814 L204.632653,28.173913 Z M71.1078717,13.3043478 L73.4781341,15.0403162 L73.4781341,17.829249 L71.1078717,19.5652174 L68.7376093,17.829249 L68.7376093,15.0403162 L71.1078717,13.3043478 Z M204.632653,13.3043478 L207.002915,15.0403162 L207.002915,17.829249 L204.632653,19.5652174 L202.262391,17.829249 L202.262391,15.0403162 L204.632653,13.3043478 Z M71.1078717,39.9130435 L73.4781341,41.6490119 L73.4781341,44.4379447 L71.1078717,46.173913 L68.7376093,44.4379447 L68.7376093,41.6490119 L71.1078717,39.9130435 Z M204.632653,39.9130435 L207.002915,41.6490119 L207.002915,44.4379447 L204.632653,46.173913 L202.262391,44.4379447 L202.262391,41.6490119 L204.632653,39.9130435 Z M74.2682216,7.04347826 L76.638484,8.77944664 L76.638484,11.5683794 L74.2682216,13.3043478 L71.8979592,11.5683794 L71.8979592,8.77944664 L74.2682216,7.04347826 Z M209.373178,7.04347826 L211.74344,8.77944664 L211.74344,11.5683794 L209.373178,13.3043478 L207.002915,11.5683794 L207.002915,8.77944664 L209.373178,7.04347826 Z M74.2682216,33.6521739 L76.638484,35.3881423 L76.638484,38.1770751 L74.2682216,39.9130435 L71.8979592,38.1770751 L71.8979592,35.3881423 L74.2682216,33.6521739 Z M209.373178,33.6521739 L211.74344,35.3881423 L211.74344,38.1770751 L209.373178,39.9130435 L207.002915,38.1770751 L207.002915,35.3881423 L209.373178,33.6521739 Z M74.2682216,21.1304348 L76.638484,22.8664032 L76.638484,25.655336 L74.2682216,27.3913043 L71.8979592,25.655336 L71.8979592,22.8664032 L74.2682216,21.1304348 Z M209.373178,21.1304348 L211.74344,22.8664032 L211.74344,25.655336 L209.373178,27.3913043 L207.002915,25.655336 L207.002915,22.8664032 L209.373178,21.1304348 Z M74.2682216,47.7391304 L76.638484,49.4750988 L76.638484,52.2640316 L74.2682216,54 L71.8979592,52.2640316 L71.8979592,49.4750988 L74.2682216,47.7391304 Z M209.373178,47.7391304 L211.74344,49.4750988 L211.74344,52.2640316 L209.373178,54 L207.002915,52.2640316 L207.002915,49.4750988 L209.373178,47.7391304 Z M103.501458,0 L105.87172,1.73596838 L105.87172,4.52490119 L103.501458,6.26086957 L101.131195,4.52490119 L101.131195,1.73596838 L103.501458,0 Z M238.606414,0 L240.976676,1.73596838 L240.976676,4.52490119 L238.606414,6.26086957 L236.236152,4.52490119 L236.236152,1.73596838 L238.606414,0 Z M103.501458,28.173913 L105.87172,29.9098814 L105.87172,32.6988142 L103.501458,34.4347826 L101.131195,32.6988142 L101.131195,29.9098814 L103.501458,28.173913 Z M238.606414,28.173913 L240.976676,29.9098814 L240.976676,32.6988142 L238.606414,34.4347826 L236.236152,32.6988142 L236.236152,29.9098814 L238.606414,28.173913 Z M103.501458,13.3043478 L105.87172,15.0403162 L105.87172,17.829249 L103.501458,19.5652174 L101.131195,17.829249 L101.131195,15.0403162 L103.501458,13.3043478 Z M238.606414,13.3043478 L240.976676,15.0403162 L240.976676,17.829249 L238.606414,19.5652174 L236.236152,17.829249 L236.236152,15.0403162 L238.606414,13.3043478 Z M103.501458,39.9130435 L105.87172,41.6490119 L105.87172,44.4379447 L103.501458,46.173913 L101.131195,44.4379447 L101.131195,41.6490119 L103.501458,39.9130435 Z M238.606414,39.9130435 L240.976676,41.6490119 L240.976676,44.4379447 L238.606414,46.173913 L236.236152,44.4379447 L236.236152,41.6490119 L238.606414,39.9130435 Z M108.241983,7.04347826 L110.612245,8.77944664 L110.612245,11.5683794 L108.241983,13.3043478 L105.87172,11.5683794 L105.87172,8.77944664 L108.241983,7.04347826 Z M243.346939,7.04347826 L245.717201,8.77944664 L245.717201,11.5683794 L243.346939,13.3043478 L240.976676,11.5683794 L240.976676,8.77944664 L243.346939,7.04347826 Z M108.241983,33.6521739 L110.612245,35.3881423 L110.612245,38.1770751 L108.241983,39.9130435 L105.87172,38.1770751 L105.87172,35.3881423 L108.241983,33.6521739 Z M243.346939,33.6521739 L245.717201,35.3881423 L245.717201,38.1770751 L243.346939,39.9130435 L240.976676,38.1770751 L240.976676,35.3881423 L243.346939,33.6521739 Z M108.241983,21.1304348 L110.612245,22.8664032 L110.612245,25.655336 L108.241983,27.3913043 L105.87172,25.655336 L105.87172,22.8664032 L108.241983,21.1304348 Z M243.346939,21.1304348 L245.717201,22.8664032 L245.717201,25.655336 L243.346939,27.3913043 L240.976676,25.655336 L240.976676,22.8664032 L243.346939,21.1304348 Z M108.241983,47.7391304 L110.612245,49.4750988 L110.612245,52.2640316 L108.241983,54 L105.87172,52.2640316 L105.87172,49.4750988 L108.241983,47.7391304 Z M243.346939,47.7391304 L245.717201,49.4750988 L245.717201,52.2640316 L243.346939,54 L240.976676,52.2640316 L240.976676,49.4750988 L243.346939,47.7391304 Z M19.7521866,0 L22.122449,1.73596838 L22.122449,4.52490119 L19.7521866,6.26086957 L17.3819242,4.52490119 L17.3819242,1.73596838 L19.7521866,0 Z M154.857143,0 L157.227405,1.73596838 L157.227405,4.52490119 L154.857143,6.26086957 L152.48688,4.52490119 L152.48688,1.73596838 L154.857143,0 Z M19.7521866,28.173913 L22.122449,29.9098814 L22.122449,32.6988142 L19.7521866,34.4347826 L17.3819242,32.6988142 L17.3819242,29.9098814 L19.7521866,28.173913 Z M154.857143,28.173913 L157.227405,29.9098814 L157.227405,32.6988142 L154.857143,34.4347826 L152.48688,32.6988142 L152.48688,29.9098814 L154.857143,28.173913 Z M19.7521866,13.3043478 L22.122449,15.0403162 L22.122449,17.829249 L19.7521866,19.5652174 L17.3819242,17.829249 L17.3819242,15.0403162 L19.7521866,13.3043478 Z M154.857143,13.3043478 L157.227405,15.0403162 L157.227405,17.829249 L154.857143,19.5652174 L152.48688,17.829249 L152.48688,15.0403162 L154.857143,13.3043478 Z M19.7521866,39.9130435 L22.122449,41.6490119 L22.122449,44.4379447 L19.7521866,46.173913 L17.3819242,44.4379447 L17.3819242,41.6490119 L19.7521866,39.9130435 Z M154.857143,39.9130435 L157.227405,41.6490119 L157.227405,44.4379447 L154.857143,46.173913 L152.48688,44.4379447 L152.48688,41.6490119 L154.857143,39.9130435 Z M23.7026239,7.04347826 L26.0728863,8.77944664 L26.0728863,11.5683794 L23.7026239,13.3043478 L21.3323615,11.5683794 L21.3323615,8.77944664 L23.7026239,7.04347826 Z M158.80758,7.04347826 L161.177843,8.77944664 L161.177843,11.5683794 L158.80758,13.3043478 L156.437318,11.5683794 L156.437318,8.77944664 L158.80758,7.04347826 Z M23.7026239,33.6521739 L26.0728863,35.3881423 L26.0728863,38.1770751 L23.7026239,39.9130435 L21.3323615,38.1770751 L21.3323615,35.3881423 L23.7026239,33.6521739 Z M158.80758,33.6521739 L161.177843,35.3881423 L161.177843,38.1770751 L158.80758,39.9130435 L156.437318,38.1770751 L156.437318,35.3881423 L158.80758,33.6521739 Z M23.7026239,21.1304348 L26.0728863,22.8664032 L26.0728863,25.655336 L23.7026239,27.3913043 L21.3323615,25.655336 L21.3323615,22.8664032 L23.7026239,21.1304348 Z M158.80758,21.1304348 L161.177843,22.8664032 L161.177843,25.655336 L158.80758,27.3913043 L156.437318,25.655336 L156.437318,22.8664032 L158.80758,21.1304348 Z M23.7026239,47.7391304 L26.0728863,49.4750988 L26.0728863,52.2640316 L23.7026239,54 L21.3323615,52.2640316 L21.3323615,49.4750988 L23.7026239,47.7391304 Z M158.80758,47.7391304 L161.177843,49.4750988 L161.177843,52.2640316 L158.80758,54 L156.437318,52.2640316 L156.437318,49.4750988 L158.80758,47.7391304 Z M52.9358601,0 L55.3061224,1.73596838 L55.3061224,4.52490119 L52.9358601,6.26086957 L50.5655977,4.52490119 L50.5655977,1.73596838 L52.9358601,0 Z M188.830904,0 L191.201166,1.73596838 L191.201166,4.52490119 L188.830904,6.26086957 L186.460641,4.52490119 L186.460641,1.73596838 L188.830904,0 Z M52.9358601,28.173913 L55.3061224,29.9098814 L55.3061224,32.6988142 L52.9358601,34.4347826 L50.5655977,32.6988142 L50.5655977,29.9098814 L52.9358601,28.173913 Z M188.830904,28.173913 L191.201166,29.9098814 L191.201166,32.6988142 L188.830904,34.4347826 L186.460641,32.6988142 L186.460641,29.9098814 L188.830904,28.173913 Z M52.9358601,13.3043478 L55.3061224,15.0403162 L55.3061224,17.829249 L52.9358601,19.5652174 L50.5655977,17.829249 L50.5655977,15.0403162 L52.9358601,13.3043478 Z M188.830904,13.3043478 L191.201166,15.0403162 L191.201166,17.829249 L188.830904,19.5652174 L186.460641,17.829249 L186.460641,15.0403162 L188.830904,13.3043478 Z M52.9358601,39.9130435 L55.3061224,41.6490119 L55.3061224,44.4379447 L52.9358601,46.173913 L50.5655977,44.4379447 L50.5655977,41.6490119 L52.9358601,39.9130435 Z M188.830904,39.9130435 L191.201166,41.6490119 L191.201166,44.4379447 L188.830904,46.173913 L186.460641,44.4379447 L186.460641,41.6490119 L188.830904,39.9130435 Z M56.8862974,7.04347826 L59.2565598,8.77944664 L59.2565598,11.5683794 L56.8862974,13.3043478 L54.516035,11.5683794 L54.516035,8.77944664 L56.8862974,7.04347826 Z M192.781341,7.04347826 L195.151603,8.77944664 L195.151603,11.5683794 L192.781341,13.3043478 L190.411079,11.5683794 L190.411079,8.77944664 L192.781341,7.04347826 Z M56.8862974,33.6521739 L59.2565598,35.3881423 L59.2565598,38.1770751 L56.8862974,39.9130435 L54.516035,38.1770751 L54.516035,35.3881423 L56.8862974,33.6521739 Z M192.781341,33.6521739 L195.151603,35.3881423 L195.151603,38.1770751 L192.781341,39.9130435 L190.411079,38.1770751 L190.411079,35.3881423 L192.781341,33.6521739 Z M56.8862974,21.1304348 L59.2565598,22.8664032 L59.2565598,25.655336 L56.8862974,27.3913043 L54.516035,25.655336 L54.516035,22.8664032 L56.8862974,21.1304348 Z M192.781341,21.1304348 L195.151603,22.8664032 L195.151603,25.655336 L192.781341,27.3913043 L190.411079,25.655336 L190.411079,22.8664032 L192.781341,21.1304348 Z M56.8862974,47.7391304 L59.2565598,49.4750988 L59.2565598,52.2640316 L56.8862974,54 L54.516035,52.2640316 L54.516035,49.4750988 L56.8862974,47.7391304 Z M192.781341,47.7391304 L195.151603,49.4750988 L195.151603,52.2640316 L192.781341,54 L190.411079,52.2640316 L190.411079,49.4750988 L192.781341,47.7391304 Z M86.909621,0 L89.2798834,1.73596838 L89.2798834,4.52490119 L86.909621,6.26086957 L84.5393586,4.52490119 L84.5393586,1.73596838 L86.909621,0 Z M222.014577,0 L224.38484,1.73596838 L224.38484,4.52490119 L222.014577,6.26086957 L219.644315,4.52490119 L219.644315,1.73596838 L222.014577,0 Z M86.909621,28.173913 L89.2798834,29.9098814 L89.2798834,32.6988142 L86.909621,34.4347826 L84.5393586,32.6988142 L84.5393586,29.9098814 L86.909621,28.173913 Z M222.014577,28.173913 L224.38484,29.9098814 L224.38484,32.6988142 L222.014577,34.4347826 L219.644315,32.6988142 L219.644315,29.9098814 L222.014577,28.173913 Z M86.909621,13.3043478 L89.2798834,15.0403162 L89.2798834,17.829249 L86.909621,19.5652174 L84.5393586,17.829249 L84.5393586,15.0403162 L86.909621,13.3043478 Z M222.014577,13.3043478 L224.38484,15.0403162 L224.38484,17.829249 L222.014577,19.5652174 L219.644315,17.829249 L219.644315,15.0403162 L222.014577,13.3043478 Z M86.909621,39.9130435 L89.2798834,41.6490119 L89.2798834,44.4379447 L86.909621,46.173913 L84.5393586,44.4379447 L84.5393586,41.6490119 L86.909621,39.9130435 Z M222.014577,39.9130435 L224.38484,41.6490119 L224.38484,44.4379447 L222.014577,46.173913 L219.644315,44.4379447 L219.644315,41.6490119 L222.014577,39.9130435 Z M90.0699708,7.04347826 L92.4402332,8.77944664 L92.4402332,11.5683794 L90.0699708,13.3043478 L87.6997085,11.5683794 L87.6997085,8.77944664 L90.0699708,7.04347826 Z M225.965015,7.04347826 L228.335277,8.77944664 L228.335277,11.5683794 L225.965015,13.3043478 L223.594752,11.5683794 L223.594752,8.77944664 L225.965015,7.04347826 Z M90.0699708,33.6521739 L92.4402332,35.3881423 L92.4402332,38.1770751 L90.0699708,39.9130435 L87.6997085,38.1770751 L87.6997085,35.3881423 L90.0699708,33.6521739 Z M225.965015,33.6521739 L228.335277,35.3881423 L228.335277,38.1770751 L225.965015,39.9130435 L223.594752,38.1770751 L223.594752,35.3881423 L225.965015,33.6521739 Z M90.0699708,21.1304348 L92.4402332,22.8664032 L92.4402332,25.655336 L90.0699708,27.3913043 L87.6997085,25.655336 L87.6997085,22.8664032 L90.0699708,21.1304348 Z M225.965015,21.1304348 L228.335277,22.8664032 L228.335277,25.655336 L225.965015,27.3913043 L223.594752,25.655336 L223.594752,22.8664032 L225.965015,21.1304348 Z M90.0699708,47.7391304 L92.4402332,49.4750988 L92.4402332,52.2640316 L90.0699708,54 L87.6997085,52.2640316 L87.6997085,49.4750988 L90.0699708,47.7391304 Z M225.965015,47.7391304 L228.335277,49.4750988 L228.335277,52.2640316 L225.965015,54 L223.594752,52.2640316 L223.594752,49.4750988 L225.965015,47.7391304 Z M120.883382,0 L123.253644,1.73596838 L123.253644,4.52490119 L120.883382,6.26086957 L118.51312,4.52490119 L118.51312,1.73596838 L120.883382,0 Z M255.988338,0 L258.358601,1.73596838 L258.358601,4.52490119 L255.988338,6.26086957 L253.618076,4.52490119 L253.618076,1.73596838 L255.988338,0 Z M120.883382,28.173913 L123.253644,29.9098814 L123.253644,32.6988142 L120.883382,34.4347826 L118.51312,32.6988142 L118.51312,29.9098814 L120.883382,28.173913 Z M255.988338,28.173913 L258.358601,29.9098814 L258.358601,32.6988142 L255.988338,34.4347826 L253.618076,32.6988142 L253.618076,29.9098814 L255.988338,28.173913 Z M120.883382,13.3043478 L123.253644,15.0403162 L123.253644,17.829249 L120.883382,19.5652174 L118.51312,17.829249 L118.51312,15.0403162 L120.883382,13.3043478 Z M255.988338,13.3043478 L258.358601,15.0403162 L258.358601,17.829249 L255.988338,19.5652174 L253.618076,17.829249 L253.618076,15.0403162 L255.988338,13.3043478 Z M120.883382,39.9130435 L123.253644,41.6490119 L123.253644,44.4379447 L120.883382,46.173913 L118.51312,44.4379447 L118.51312,41.6490119 L120.883382,39.9130435 Z M255.988338,39.9130435 L258.358601,41.6490119 L258.358601,44.4379447 L255.988338,46.173913 L253.618076,44.4379447 L253.618076,41.6490119 L255.988338,39.9130435 Z M124.043732,7.04347826 L126.413994,8.77944664 L126.413994,11.5683794 L124.043732,13.3043478 L121.673469,11.5683794 L121.673469,8.77944664 L124.043732,7.04347826 Z M259.938776,7.04347826 L262.309038,8.77944664 L262.309038,11.5683794 L259.938776,13.3043478 L257.568513,11.5683794 L257.568513,8.77944664 L259.938776,7.04347826 Z M124.043732,33.6521739 L126.413994,35.3881423 L126.413994,38.1770751 L124.043732,39.9130435 L121.673469,38.1770751 L121.673469,35.3881423 L124.043732,33.6521739 Z M259.938776,33.6521739 L262.309038,35.3881423 L262.309038,38.1770751 L259.938776,39.9130435 L257.568513,38.1770751 L257.568513,35.3881423 L259.938776,33.6521739 Z M124.043732,21.1304348 L126.413994,22.8664032 L126.413994,25.655336 L124.043732,27.3913043 L121.673469,25.655336 L121.673469,22.8664032 L124.043732,21.1304348 Z M259.938776,21.1304348 L262.309038,22.8664032 L262.309038,25.655336 L259.938776,27.3913043 L257.568513,25.655336 L257.568513,22.8664032 L259.938776,21.1304348 Z M124.043732,47.7391304 L126.413994,49.4750988 L126.413994,52.2640316 L124.043732,54 L121.673469,52.2640316 L121.673469,49.4750988 L124.043732,47.7391304 Z M259.938776,47.7391304 L262.309038,49.4750988 L262.309038,52.2640316 L259.938776,54 L257.568513,52.2640316 L257.568513,49.4750988 L259.938776,47.7391304 Z M10.271137,0 L12.6413994,1.73596838 L12.6413994,4.52490119 L10.271137,6.26086957 L7.90087464,4.52490119 L7.90087464,1.73596838 L10.271137,0 Z M146.166181,0 L148.536443,1.73596838 L148.536443,4.52490119 L146.166181,6.26086957 L143.795918,4.52490119 L143.795918,1.73596838 L146.166181,0 Z M10.271137,28.173913 L12.6413994,29.9098814 L12.6413994,32.6988142 L10.271137,34.4347826 L7.90087464,32.6988142 L7.90087464,29.9098814 L10.271137,28.173913 Z M146.166181,28.173913 L148.536443,29.9098814 L148.536443,32.6988142 L146.166181,34.4347826 L143.795918,32.6988142 L143.795918,29.9098814 L146.166181,28.173913 Z M10.271137,13.3043478 L12.6413994,15.0403162 L12.6413994,17.829249 L10.271137,19.5652174 L7.90087464,17.829249 L7.90087464,15.0403162 L10.271137,13.3043478 Z M146.166181,13.3043478 L148.536443,15.0403162 L148.536443,17.829249 L146.166181,19.5652174 L143.795918,17.829249 L143.795918,15.0403162 L146.166181,13.3043478 Z M10.271137,39.9130435 L12.6413994,41.6490119 L12.6413994,44.4379447 L10.271137,46.173913 L7.90087464,44.4379447 L7.90087464,41.6490119 L10.271137,39.9130435 Z M146.166181,39.9130435 L148.536443,41.6490119 L148.536443,44.4379447 L146.166181,46.173913 L143.795918,44.4379447 L143.795918,41.6490119 L146.166181,39.9130435 Z M15.8017493,7.04347826 L18.1720117,8.77944664 L18.1720117,11.5683794 L15.8017493,13.3043478 L13.4314869,11.5683794 L13.4314869,8.77944664 L15.8017493,7.04347826 Z M150.906706,7.04347826 L153.276968,8.77944664 L153.276968,11.5683794 L150.906706,13.3043478 L148.536443,11.5683794 L148.536443,8.77944664 L150.906706,7.04347826 Z M15.8017493,33.6521739 L18.1720117,35.3881423 L18.1720117,38.1770751 L15.8017493,39.9130435 L13.4314869,38.1770751 L13.4314869,35.3881423 L15.8017493,33.6521739 Z M150.906706,33.6521739 L153.276968,35.3881423 L153.276968,38.1770751 L150.906706,39.9130435 L148.536443,38.1770751 L148.536443,35.3881423 L150.906706,33.6521739 Z M15.8017493,21.1304348 L18.1720117,22.8664032 L18.1720117,25.655336 L15.8017493,27.3913043 L13.4314869,25.655336 L13.4314869,22.8664032 L15.8017493,21.1304348 Z M150.906706,21.1304348 L153.276968,22.8664032 L153.276968,25.655336 L150.906706,27.3913043 L148.536443,25.655336 L148.536443,22.8664032 L150.906706,21.1304348 Z M15.8017493,47.7391304 L18.1720117,49.4750988 L18.1720117,52.2640316 L15.8017493,54 L13.4314869,52.2640316 L13.4314869,49.4750988 L15.8017493,47.7391304 Z M150.906706,47.7391304 L153.276968,49.4750988 L153.276968,52.2640316 L150.906706,54 L148.536443,52.2640316 L148.536443,49.4750988 L150.906706,47.7391304 Z M44.244898,0 L46.6151603,1.73596838 L46.6151603,4.52490119 L44.244898,6.26086957 L41.8746356,4.52490119 L41.8746356,1.73596838 L44.244898,0 Z M179.349854,0 L181.720117,1.73596838 L181.720117,4.52490119 L179.349854,6.26086957 L176.979592,4.52490119 L176.979592,1.73596838 L179.349854,0 Z M44.244898,28.173913 L46.6151603,29.9098814 L46.6151603,32.6988142 L44.244898,34.4347826 L41.8746356,32.6988142 L41.8746356,29.9098814 L44.244898,28.173913 Z M179.349854,28.173913 L181.720117,29.9098814 L181.720117,32.6988142 L179.349854,34.4347826 L176.979592,32.6988142 L176.979592,29.9098814 L179.349854,28.173913 Z M44.244898,13.3043478 L46.6151603,15.0403162 L46.6151603,17.829249 L44.244898,19.5652174 L41.8746356,17.829249 L41.8746356,15.0403162 L44.244898,13.3043478 Z M179.349854,13.3043478 L181.720117,15.0403162 L181.720117,17.829249 L179.349854,19.5652174 L176.979592,17.829249 L176.979592,15.0403162 L179.349854,13.3043478 Z M44.244898,39.9130435 L46.6151603,41.6490119 L46.6151603,44.4379447 L44.244898,46.173913 L41.8746356,44.4379447 L41.8746356,41.6490119 L44.244898,39.9130435 Z M179.349854,39.9130435 L181.720117,41.6490119 L181.720117,44.4379447 L179.349854,46.173913 L176.979592,44.4379447 L176.979592,41.6490119 L179.349854,39.9130435 Z M48.9854227,7.04347826 L51.3556851,8.77944664 L51.3556851,11.5683794 L48.9854227,13.3043478 L46.6151603,11.5683794 L46.6151603,8.77944664 L48.9854227,7.04347826 Z M184.090379,7.04347826 L186.460641,8.77944664 L186.460641,11.5683794 L184.090379,13.3043478 L181.720117,11.5683794 L181.720117,8.77944664 L184.090379,7.04347826 Z M48.9854227,33.6521739 L51.3556851,35.3881423 L51.3556851,38.1770751 L48.9854227,39.9130435 L46.6151603,38.1770751 L46.6151603,35.3881423 L48.9854227,33.6521739 Z M184.090379,33.6521739 L186.460641,35.3881423 L186.460641,38.1770751 L184.090379,39.9130435 L181.720117,38.1770751 L181.720117,35.3881423 L184.090379,33.6521739 Z M48.9854227,21.1304348 L51.3556851,22.8664032 L51.3556851,25.655336 L48.9854227,27.3913043 L46.6151603,25.655336 L46.6151603,22.8664032 L48.9854227,21.1304348 Z M184.090379,21.1304348 L186.460641,22.8664032 L186.460641,25.655336 L184.090379,27.3913043 L181.720117,25.655336 L181.720117,22.8664032 L184.090379,21.1304348 Z M48.9854227,47.7391304 L51.3556851,49.4750988 L51.3556851,52.2640316 L48.9854227,54 L46.6151603,52.2640316 L46.6151603,49.4750988 L48.9854227,47.7391304 Z M184.090379,47.7391304 L186.460641,49.4750988 L186.460641,52.2640316 L184.090379,54 L181.720117,52.2640316 L181.720117,49.4750988 L184.090379,47.7391304 Z M77.4285714,0 L79.7988338,1.73596838 L79.7988338,4.52490119 L77.4285714,6.26086957 L75.058309,4.52490119 L75.058309,1.73596838 L77.4285714,0 Z M212.533528,0 L214.90379,1.73596838 L214.90379,4.52490119 L212.533528,6.26086957 L210.163265,4.52490119 L210.163265,1.73596838 L212.533528,0 Z M77.4285714,28.173913 L79.7988338,29.9098814 L79.7988338,32.6988142 L77.4285714,34.4347826 L75.058309,32.6988142 L75.058309,29.9098814 L77.4285714,28.173913 Z M212.533528,28.173913 L214.90379,29.9098814 L214.90379,32.6988142 L212.533528,34.4347826 L210.163265,32.6988142 L210.163265,29.9098814 L212.533528,28.173913 Z M77.4285714,13.3043478 L79.7988338,15.0403162 L79.7988338,17.829249 L77.4285714,19.5652174 L75.058309,17.829249 L75.058309,15.0403162 L77.4285714,13.3043478 Z M212.533528,13.3043478 L214.90379,15.0403162 L214.90379,17.829249 L212.533528,19.5652174 L210.163265,17.829249 L210.163265,15.0403162 L212.533528,13.3043478 Z M77.4285714,39.9130435 L79.7988338,41.6490119 L79.7988338,44.4379447 L77.4285714,46.173913 L75.058309,44.4379447 L75.058309,41.6490119 L77.4285714,39.9130435 Z M212.533528,39.9130435 L214.90379,41.6490119 L214.90379,44.4379447 L212.533528,46.173913 L210.163265,44.4379447 L210.163265,41.6490119 L212.533528,39.9130435 Z M82.9591837,7.04347826 L85.3294461,8.77944664 L85.3294461,11.5683794 L82.9591837,13.3043478 L80.5889213,11.5683794 L80.5889213,8.77944664 L82.9591837,7.04347826 Z M218.06414,7.04347826 L220.434402,8.77944664 L220.434402,11.5683794 L218.06414,13.3043478 L215.693878,11.5683794 L215.693878,8.77944664 L218.06414,7.04347826 Z M82.9591837,33.6521739 L85.3294461,35.3881423 L85.3294461,38.1770751 L82.9591837,39.9130435 L80.5889213,38.1770751 L80.5889213,35.3881423 L82.9591837,33.6521739 Z M218.06414,33.6521739 L220.434402,35.3881423 L220.434402,38.1770751 L218.06414,39.9130435 L215.693878,38.1770751 L215.693878,35.3881423 L218.06414,33.6521739 Z M82.9591837,21.1304348 L85.3294461,22.8664032 L85.3294461,25.655336 L82.9591837,27.3913043 L80.5889213,25.655336 L80.5889213,22.8664032 L82.9591837,21.1304348 Z M218.06414,21.1304348 L220.434402,22.8664032 L220.434402,25.655336 L218.06414,27.3913043 L215.693878,25.655336 L215.693878,22.8664032 L218.06414,21.1304348 Z M82.9591837,47.7391304 L85.3294461,49.4750988 L85.3294461,52.2640316 L82.9591837,54 L80.5889213,52.2640316 L80.5889213,49.4750988 L82.9591837,47.7391304 Z M218.06414,47.7391304 L220.434402,49.4750988 L220.434402,52.2640316 L218.06414,54 L215.693878,52.2640316 L215.693878,49.4750988 L218.06414,47.7391304 Z M112.19242,0 L114.562682,1.73596838 L114.562682,4.52490119 L112.19242,6.26086957 L109.822157,4.52490119 L109.822157,1.73596838 L112.19242,0 Z M248.087464,0 L250.457726,1.73596838 L250.457726,4.52490119 L248.087464,6.26086957 L245.717201,4.52490119 L245.717201,1.73596838 L248.087464,0 Z M112.19242,28.173913 L114.562682,29.9098814 L114.562682,32.6988142 L112.19242,34.4347826 L109.822157,32.6988142 L109.822157,29.9098814 L112.19242,28.173913 Z M248.087464,28.173913 L250.457726,29.9098814 L250.457726,32.6988142 L248.087464,34.4347826 L245.717201,32.6988142 L245.717201,29.9098814 L248.087464,28.173913 Z M112.19242,13.3043478 L114.562682,15.0403162 L114.562682,17.829249 L112.19242,19.5652174 L109.822157,17.829249 L109.822157,15.0403162 L112.19242,13.3043478 Z M248.087464,13.3043478 L250.457726,15.0403162 L250.457726,17.829249 L248.087464,19.5652174 L245.717201,17.829249 L245.717201,15.0403162 L248.087464,13.3043478 Z M112.19242,39.9130435 L114.562682,41.6490119 L114.562682,44.4379447 L112.19242,46.173913 L109.822157,44.4379447 L109.822157,41.6490119 L112.19242,39.9130435 Z M248.087464,39.9130435 L250.457726,41.6490119 L250.457726,44.4379447 L248.087464,46.173913 L245.717201,44.4379447 L245.717201,41.6490119 L248.087464,39.9130435 Z M116.932945,7.04347826 L119.303207,8.77944664 L119.303207,11.5683794 L116.932945,13.3043478 L114.562682,11.5683794 L114.562682,8.77944664 L116.932945,7.04347826 Z M251.247813,7.04347826 L253.618076,8.77944664 L253.618076,11.5683794 L251.247813,13.3043478 L248.877551,11.5683794 L248.877551,8.77944664 L251.247813,7.04347826 Z M116.932945,33.6521739 L119.303207,35.3881423 L119.303207,38.1770751 L116.932945,39.9130435 L114.562682,38.1770751 L114.562682,35.3881423 L116.932945,33.6521739 Z M251.247813,33.6521739 L253.618076,35.3881423 L253.618076,38.1770751 L251.247813,39.9130435 L248.877551,38.1770751 L248.877551,35.3881423 L251.247813,33.6521739 Z M116.932945,21.1304348 L119.303207,22.8664032 L119.303207,25.655336 L116.932945,27.3913043 L114.562682,25.655336 L114.562682,22.8664032 L116.932945,21.1304348 Z M251.247813,21.1304348 L253.618076,22.8664032 L253.618076,25.655336 L251.247813,27.3913043 L248.877551,25.655336 L248.877551,22.8664032 L251.247813,21.1304348 Z M116.932945,47.7391304 L119.303207,49.4750988 L119.303207,52.2640316 L116.932945,54 L114.562682,52.2640316 L114.562682,49.4750988 L116.932945,47.7391304 Z M251.247813,47.7391304 L253.618076,49.4750988 L253.618076,52.2640316 L251.247813,54 L248.877551,52.2640316 L248.877551,49.4750988 L251.247813,47.7391304 Z M26.8629738,0 L29.2332362,1.73596838 L29.2332362,4.52490119 L26.8629738,6.26086957 L24.4927114,4.52490119 L24.4927114,1.73596838 L26.8629738,0 Z M161.96793,0 L164.338192,1.73596838 L164.338192,4.52490119 L161.96793,6.26086957 L159.597668,4.52490119 L159.597668,1.73596838 L161.96793,0 Z M26.8629738,28.173913 L29.2332362,29.9098814 L29.2332362,32.6988142 L26.8629738,34.4347826 L24.4927114,32.6988142 L24.4927114,29.9098814 L26.8629738,28.173913 Z M161.96793,28.173913 L164.338192,29.9098814 L164.338192,32.6988142 L161.96793,34.4347826 L159.597668,32.6988142 L159.597668,29.9098814 L161.96793,28.173913 Z M26.8629738,13.3043478 L29.2332362,15.0403162 L29.2332362,17.829249 L26.8629738,19.5652174 L24.4927114,17.829249 L24.4927114,15.0403162 L26.8629738,13.3043478 Z M161.96793,13.3043478 L164.338192,15.0403162 L164.338192,17.829249 L161.96793,19.5652174 L159.597668,17.829249 L159.597668,15.0403162 L161.96793,13.3043478 Z M26.8629738,39.9130435 L29.2332362,41.6490119 L29.2332362,44.4379447 L26.8629738,46.173913 L24.4927114,44.4379447 L24.4927114,41.6490119 L26.8629738,39.9130435 Z M161.96793,39.9130435 L164.338192,41.6490119 L164.338192,44.4379447 L161.96793,46.173913 L159.597668,44.4379447 L159.597668,41.6490119 L161.96793,39.9130435 Z M32.393586,7.04347826 L34.7638484,8.77944664 L34.7638484,11.5683794 L32.393586,13.3043478 L30.0233236,11.5683794 L30.0233236,8.77944664 L32.393586,7.04347826 Z M167.498542,7.04347826 L169.868805,8.77944664 L169.868805,11.5683794 L167.498542,13.3043478 L165.12828,11.5683794 L165.12828,8.77944664 L167.498542,7.04347826 Z M32.393586,33.6521739 L34.7638484,35.3881423 L34.7638484,38.1770751 L32.393586,39.9130435 L30.0233236,38.1770751 L30.0233236,35.3881423 L32.393586,33.6521739 Z M167.498542,33.6521739 L169.868805,35.3881423 L169.868805,38.1770751 L167.498542,39.9130435 L165.12828,38.1770751 L165.12828,35.3881423 L167.498542,33.6521739 Z M32.393586,21.1304348 L34.7638484,22.8664032 L34.7638484,25.655336 L32.393586,27.3913043 L30.0233236,25.655336 L30.0233236,22.8664032 L32.393586,21.1304348 Z M167.498542,21.1304348 L169.868805,22.8664032 L169.868805,25.655336 L167.498542,27.3913043 L165.12828,25.655336 L165.12828,22.8664032 L167.498542,21.1304348 Z M32.393586,47.7391304 L34.7638484,49.4750988 L34.7638484,52.2640316 L32.393586,54 L30.0233236,52.2640316 L30.0233236,49.4750988 L32.393586,47.7391304 Z M167.498542,47.7391304 L169.868805,49.4750988 L169.868805,52.2640316 L167.498542,54 L165.12828,52.2640316 L165.12828,49.4750988 L167.498542,47.7391304 Z M60.8367347,0 L63.2069971,1.73596838 L63.2069971,4.52490119 L60.8367347,6.26086957 L58.4664723,4.52490119 L58.4664723,1.73596838 L60.8367347,0 Z M195.941691,0 L198.311953,1.73596838 L198.311953,4.52490119 L195.941691,6.26086957 L193.571429,4.52490119 L193.571429,1.73596838 L195.941691,0 Z M60.8367347,28.173913 L63.2069971,29.9098814 L63.2069971,32.6988142 L60.8367347,34.4347826 L58.4664723,32.6988142 L58.4664723,29.9098814 L60.8367347,28.173913 Z M195.941691,28.173913 L198.311953,29.9098814 L198.311953,32.6988142 L195.941691,34.4347826 L193.571429,32.6988142 L193.571429,29.9098814 L195.941691,28.173913 Z M60.8367347,13.3043478 L63.2069971,15.0403162 L63.2069971,17.829249 L60.8367347,19.5652174 L58.4664723,17.829249 L58.4664723,15.0403162 L60.8367347,13.3043478 Z M195.941691,13.3043478 L198.311953,15.0403162 L198.311953,17.829249 L195.941691,19.5652174 L193.571429,17.829249 L193.571429,15.0403162 L195.941691,13.3043478 Z M60.8367347,39.9130435 L63.2069971,41.6490119 L63.2069971,44.4379447 L60.8367347,46.173913 L58.4664723,44.4379447 L58.4664723,41.6490119 L60.8367347,39.9130435 Z M195.941691,39.9130435 L198.311953,41.6490119 L198.311953,44.4379447 L195.941691,46.173913 L193.571429,44.4379447 L193.571429,41.6490119 L195.941691,39.9130435 Z M66.3673469,7.04347826 L68.7376093,8.77944664 L68.7376093,11.5683794 L66.3673469,13.3043478 L63.9970845,11.5683794 L63.9970845,8.77944664 L66.3673469,7.04347826 Z M201.472303,7.04347826 L203.842566,8.77944664 L203.842566,11.5683794 L201.472303,13.3043478 L199.102041,11.5683794 L199.102041,8.77944664 L201.472303,7.04347826 Z M66.3673469,33.6521739 L68.7376093,35.3881423 L68.7376093,38.1770751 L66.3673469,39.9130435 L63.9970845,38.1770751 L63.9970845,35.3881423 L66.3673469,33.6521739 Z M201.472303,33.6521739 L203.842566,35.3881423 L203.842566,38.1770751 L201.472303,39.9130435 L199.102041,38.1770751 L199.102041,35.3881423 L201.472303,33.6521739 Z M66.3673469,21.1304348 L68.7376093,22.8664032 L68.7376093,25.655336 L66.3673469,27.3913043 L63.9970845,25.655336 L63.9970845,22.8664032 L66.3673469,21.1304348 Z M201.472303,21.1304348 L203.842566,22.8664032 L203.842566,25.655336 L201.472303,27.3913043 L199.102041,25.655336 L199.102041,22.8664032 L201.472303,21.1304348 Z M66.3673469,47.7391304 L68.7376093,49.4750988 L68.7376093,52.2640316 L66.3673469,54 L63.9970845,52.2640316 L63.9970845,49.4750988 L66.3673469,47.7391304 Z M201.472303,47.7391304 L203.842566,49.4750988 L203.842566,52.2640316 L201.472303,54 L199.102041,52.2640316 L199.102041,49.4750988 L201.472303,47.7391304 Z M95.6005831,0 L97.9708455,1.73596838 L97.9708455,4.52490119 L95.6005831,6.26086957 L93.2303207,4.52490119 L93.2303207,1.73596838 L95.6005831,0 Z M229.125364,0 L231.495627,1.73596838 L231.495627,4.52490119 L229.125364,6.26086957 L226.755102,4.52490119 L226.755102,1.73596838 L229.125364,0 Z M95.6005831,28.173913 L97.9708455,29.9098814 L97.9708455,32.6988142 L95.6005831,34.4347826 L93.2303207,32.6988142 L93.2303207,29.9098814 L95.6005831,28.173913 Z M229.125364,28.173913 L231.495627,29.9098814 L231.495627,32.6988142 L229.125364,34.4347826 L226.755102,32.6988142 L226.755102,29.9098814 L229.125364,28.173913 Z M95.6005831,13.3043478 L97.9708455,15.0403162 L97.9708455,17.829249 L95.6005831,19.5652174 L93.2303207,17.829249 L93.2303207,15.0403162 L95.6005831,13.3043478 Z M229.125364,13.3043478 L231.495627,15.0403162 L231.495627,17.829249 L229.125364,19.5652174 L226.755102,17.829249 L226.755102,15.0403162 L229.125364,13.3043478 Z M95.6005831,39.9130435 L97.9708455,41.6490119 L97.9708455,44.4379447 L95.6005831,46.173913 L93.2303207,44.4379447 L93.2303207,41.6490119 L95.6005831,39.9130435 Z M229.125364,39.9130435 L231.495627,41.6490119 L231.495627,44.4379447 L229.125364,46.173913 L226.755102,44.4379447 L226.755102,41.6490119 L229.125364,39.9130435 Z M99.5510204,7.04347826 L101.921283,8.77944664 L101.921283,11.5683794 L99.5510204,13.3043478 L97.180758,11.5683794 L97.180758,8.77944664 L99.5510204,7.04347826 Z M234.655977,7.04347826 L237.026239,8.77944664 L237.026239,11.5683794 L234.655977,13.3043478 L232.285714,11.5683794 L232.285714,8.77944664 L234.655977,7.04347826 Z M99.5510204,33.6521739 L101.921283,35.3881423 L101.921283,38.1770751 L99.5510204,39.9130435 L97.180758,38.1770751 L97.180758,35.3881423 L99.5510204,33.6521739 Z M234.655977,33.6521739 L237.026239,35.3881423 L237.026239,38.1770751 L234.655977,39.9130435 L232.285714,38.1770751 L232.285714,35.3881423 L234.655977,33.6521739 Z M99.5510204,21.1304348 L101.921283,22.8664032 L101.921283,25.655336 L99.5510204,27.3913043 L97.180758,25.655336 L97.180758,22.8664032 L99.5510204,21.1304348 Z M234.655977,21.1304348 L237.026239,22.8664032 L237.026239,25.655336 L234.655977,27.3913043 L232.285714,25.655336 L232.285714,22.8664032 L234.655977,21.1304348 Z M99.5510204,47.7391304 L101.921283,49.4750988 L101.921283,52.2640316 L99.5510204,54 L97.180758,52.2640316 L97.180758,49.4750988 L99.5510204,47.7391304 Z M234.655977,47.7391304 L237.026239,49.4750988 L237.026239,52.2640316 L234.655977,54 L232.285714,52.2640316 L232.285714,49.4750988 L234.655977,47.7391304 Z M128.784257,0 L131.154519,1.73596838 L131.154519,4.52490119 L128.784257,6.26086957 L126.413994,4.52490119 L126.413994,1.73596838 L128.784257,0 Z M264.6793,0 L267.049563,1.73596838 L267.049563,4.52490119 L264.6793,6.26086957 L262.309038,4.52490119 L262.309038,1.73596838 L264.6793,0 Z M128.784257,28.173913 L131.154519,29.9098814 L131.154519,32.6988142 L128.784257,34.4347826 L126.413994,32.6988142 L126.413994,29.9098814 L128.784257,28.173913 Z M264.6793,28.173913 L267.049563,29.9098814 L267.049563,32.6988142 L264.6793,34.4347826 L262.309038,32.6988142 L262.309038,29.9098814 L264.6793,28.173913 Z M128.784257,13.3043478 L131.154519,15.0403162 L131.154519,17.829249 L128.784257,19.5652174 L126.413994,17.829249 L126.413994,15.0403162 L128.784257,13.3043478 Z M264.6793,13.3043478 L267.049563,15.0403162 L267.049563,17.829249 L264.6793,19.5652174 L262.309038,17.829249 L262.309038,15.0403162 L264.6793,13.3043478 Z M128.784257,39.9130435 L131.154519,41.6490119 L131.154519,44.4379447 L128.784257,46.173913 L126.413994,44.4379447 L126.413994,41.6490119 L128.784257,39.9130435 Z M264.6793,39.9130435 L267.049563,41.6490119 L267.049563,44.4379447 L264.6793,46.173913 L262.309038,44.4379447 L262.309038,41.6490119 L264.6793,39.9130435 Z M132.734694,7.04347826 L135.104956,8.77944664 L135.104956,11.5683794 L132.734694,13.3043478 L130.364431,11.5683794 L130.364431,8.77944664 L132.734694,7.04347826 Z M268.629738,7.04347826 L271,8.77944664 L271,11.5683794 L268.629738,13.3043478 L266.259475,11.5683794 L266.259475,8.77944664 L268.629738,7.04347826 Z M132.734694,33.6521739 L135.104956,35.3881423 L135.104956,38.1770751 L132.734694,39.9130435 L130.364431,38.1770751 L130.364431,35.3881423 L132.734694,33.6521739 Z M268.629738,33.6521739 L271,35.3881423 L271,38.1770751 L268.629738,39.9130435 L266.259475,38.1770751 L266.259475,35.3881423 L268.629738,33.6521739 Z M132.734694,21.1304348 L135.104956,22.8664032 L135.104956,25.655336 L132.734694,27.3913043 L130.364431,25.655336 L130.364431,22.8664032 L132.734694,21.1304348 Z M268.629738,21.1304348 L271,22.8664032 L271,25.655336 L268.629738,27.3913043 L266.259475,25.655336 L266.259475,22.8664032 L268.629738,21.1304348 Z M132.734694,47.7391304 L135.104956,49.4750988 L135.104956,52.2640316 L132.734694,54 L130.364431,52.2640316 L130.364431,49.4750988 L132.734694,47.7391304 Z M268.629738,47.7391304 L271,49.4750988 L271,52.2640316 L268.629738,54 L266.259475,52.2640316 L266.259475,49.4750988 L268.629738,47.7391304 Z" id="Combined-Shape-Copy-6"></path>
                    </g>
                    <g id="payment-illustrations" transform="translate(1.000000, 0.000000)">
                        <rect id="Rectangle-3" fill="#A6B2B8" fill-rule="nonzero" x="54" y="53" width="159" height="108" rx="4"></rect>
                        <text id="$" font-family="Nunito-Black, Nunito" font-size="20" font-weight="700" letter-spacing="3.88000011" fill="#FFD1B6">
                            <tspan x="76" y="113">$</tspan>
                        </text>
                        <rect id="Rectangle-3" fill="#FFFFFF" fill-rule="nonzero" x="146" y="81" width="54" height="59" rx="2"></rect>
                        <path d="M148.454545,81 L197.545455,81 C198.901062,81 200,82.0944151 200,83.4444444 L200,114 L146,114 L146,83.4444444 C146,82.0944151 147.098938,81 148.454545,81 Z" id="Rectangle-3" fill="#F4B895" fill-rule="nonzero"></path>
                        <g id="building" transform="translate(162.000000, 91.000000)" fill="#E09467" fill-rule="nonzero">
                            <path d="M0,23 L11.5,23 L11.5,0 L0,0 L0,23 Z M7.1875,2.875 L10.0625,2.875 L10.0625,5.75 L7.1875,5.75 L7.1875,2.875 Z M7.1875,8.625 L10.0625,8.625 L10.0625,11.5 L7.1875,11.5 L7.1875,8.625 Z M7.1875,14.375 L10.0625,14.375 L10.0625,17.25 L7.1875,17.25 L7.1875,14.375 Z M1.4375,2.875 L4.3125,2.875 L4.3125,5.75 L1.4375,5.75 L1.4375,2.875 Z M1.4375,8.625 L4.3125,8.625 L4.3125,11.5 L1.4375,11.5 L1.4375,8.625 Z M1.4375,14.375 L4.3125,14.375 L4.3125,17.25 L1.4375,17.25 L1.4375,14.375 Z M12.9375,7.1875 L23,7.1875 L23,8.625 L12.9375,8.625 L12.9375,7.1875 Z M12.9375,23 L15.8125,23 L15.8125,17.25 L20.125,17.25 L20.125,23 L23,23 L23,10.0625 L12.9375,10.0625 L12.9375,23 Z" id="Shape"></path>
                        </g>
                        <rect id="Rectangle-4" fill="#DEE1E4" fill-rule="nonzero" x="151" y="119" width="36" height="2"></rect>
                        <rect id="Rectangle-4-Copy-2" fill="#DEE1E4" fill-rule="nonzero" x="74" y="122" width="55" height="6"></rect>
                        <rect id="Rectangle-4-Copy-2-Copy" fill="#DEE1E4" fill-rule="nonzero" x="93" y="110" width="36" height="6"></rect>
                        <rect id="Rectangle-4-Copy-2-Copy-2" fill="#DEE1E4" fill-rule="nonzero" x="93" y="98" width="36" height="6"></rect>
                        <rect id="Rectangle-4-Copy-3" fill="#DEE1E4" fill-rule="nonzero" x="74" y="134" width="55" height="6"></rect>
                        <rect id="Rectangle-4-Copy" fill="#DEE1E4" fill-rule="nonzero" x="151" y="125" width="16" height="2"></rect>
                        <path d="M58.9302326,53 L208.069767,53 C210.79266,53 213,55.2385763 213,58 L213,73 L54,73 L54,58 C54,55.2385763 56.2073403,53 58.9302326,53 Z" id="Rectangle-3" fill="#FFFFFF" fill-rule="nonzero"></path>
                        <circle id="Oval-3" fill="#FB8F8F" fill-rule="nonzero" cx="63.5" cy="62.5" r="3.5"></circle>
                        <circle id="Oval-3-Copy" fill="#FBB84E" fill-rule="nonzero" cx="75.5" cy="62.5" r="3.5"></circle>
                        <circle id="Oval-3-Copy-2" fill="#40A299" fill-rule="nonzero" cx="88.5" cy="62.5" r="3.5"></circle>
                        <g id="Group-15" transform="translate(171.000000, 133.000000)" stroke="#FFFFFF">
                            <circle id="Oval-5" stroke-width="4" fill="#40A299" fill-rule="nonzero" cx="24.5" cy="24.5" r="24.5"></circle>
                            <polyline id="Path-5" stroke-width="3" stroke-linejoin="round" points="13.475 23.6954503 21.7458004 31.85 36.75 17.15"></polyline>
                        </g>
                        <path d="M247.765738,98.3622363 L252.866029,101.539926 C253.571143,101.979241 254,102.753009 254,103.585905 L254,108.414095 C254,109.246991 253.571143,110.020759 252.866029,110.460074 L247.765738,113.637764 C246.990536,114.120745 246.009464,114.120745 245.234264,113.637764 L240.133971,110.460074 C239.428857,110.020759 239,109.246991 239,108.414095 L239,103.585905 C239,102.753009 239.428857,101.979241 240.133971,101.539926 L245.234264,98.3622363 C246.009464,97.8792546 246.990536,97.8792546 247.765738,98.3622363 Z" id="Polygon-2-Copy" fill="#F4B895" fill-rule="nonzero" transform="translate(246.500000, 106.000000) rotate(-15.000000) translate(-246.500000, -106.000000) "></path>
                        <path d="M12.7657371,101.362236 L17.8660296,104.539926 C18.5711442,104.979241 19,105.753009 19,106.585905 L19,111.414095 C19,112.246991 18.5711442,113.020759 17.8660296,113.460074 L12.7657371,116.637764 C11.9905362,117.120745 11.0094638,117.120745 10.2342628,116.637764 L5.13397039,113.460074 C4.42885572,113.020759 4,112.246991 4,111.414095 L4,106.585905 C4,105.753009 4.42885572,104.979241 5.13397039,104.539926 L10.2342628,101.362236 C11.0094638,100.879255 11.9905362,100.879255 12.7657371,101.362236 Z" id="Polygon-2-Copy-2" fill="#DEE1E4" fill-rule="nonzero" transform="translate(11.500000, 109.000000) rotate(34.000000) translate(-11.500000, -109.000000) "></path>
                        <path d="M228.860104,27.3741949 L231.781485,29.1239679 C232.539171,29.5777862 233,30.3770987 233,31.2374915 L233,33.7625086 C233,34.6229013 232.539171,35.4222138 231.781485,35.8760321 L228.860104,37.6258051 C228.027108,38.1247316 226.972892,38.1247316 226.139895,37.6258051 L223.218513,35.8760321 C222.460829,35.4222138 222,34.6229013 222,33.7625086 L222,31.2374915 C222,30.3770987 222.460829,29.5777862 223.218513,29.1239679 L226.139895,27.3741949 C226.972892,26.8752684 228.027108,26.8752684 228.860104,27.3741949 Z" id="Polygon-2-Copy-8" fill="#ECECEC" fill-rule="nonzero" transform="translate(227.500000, 32.500000) rotate(34.000000) translate(-227.500000, -32.500000) "></path>
                        <path d="M170.747046,31.3735135 L170.940767,31.4998325 C171.59941,31.9293109 172,32.6857532 172,33.5 C172,34.3142469 171.59941,35.0706892 170.940767,35.5001676 L170.747046,35.6264866 C169.983293,36.1245045 169.016708,36.1245045 168.252954,35.6264866 L168.059233,35.5001676 C167.400591,35.0706892 167,34.3142469 167,33.5 C167,32.6857532 167.400591,31.9293109 168.059233,31.4998325 L168.252954,31.3735135 C169.016708,30.8754955 169.983293,30.8754955 170.747046,31.3735135 Z" id="Polygon-2-Copy-9" fill="#ECECEC" fill-rule="nonzero" transform="translate(169.500000, 33.500000) rotate(34.000000) translate(-169.500000, -33.500000) "></path>
                        <path d="M23.7470461,27.3735135 L23.9407672,27.4998325 C24.5994092,27.9293109 25,28.6857532 25,29.5 C25,30.3142469 24.5994092,31.0706892 23.9407672,31.5001676 L23.7470461,31.6264866 C22.9832925,32.1245045 22.0167076,32.1245045 21.252954,31.6264866 L21.059233,31.5001676 C20.4005909,31.0706892 20,30.3142469 20,29.5 C20,28.6857532 20.4005909,27.9293109 21.059233,27.4998325 L21.252954,27.3735135 C22.0167076,26.8754955 22.9832925,26.8754955 23.7470461,27.3735135 Z" id="Polygon-2-Copy-10" fill="#ECECEC" fill-rule="nonzero" transform="translate(22.500000, 29.500000) rotate(34.000000) translate(-22.500000, -29.500000) "></path>
                        <path d="M23.820455,66.3624403 L26.817008,68.1530574 C27.5526049,68.5926199 28,69.3668235 28,70.2001888 L28,72.7998112 C28,73.6331765 27.5526049,74.4073802 26.817008,74.8469427 L23.820455,76.6375598 C23.0117421,77.1208134 21.9882579,77.1208134 21.179545,76.6375598 L18.182992,74.8469427 C17.4473951,74.4073802 17,73.6331765 17,72.7998112 L17,70.2001888 C17,69.3668235 17.4473951,68.5926199 18.182992,68.1530574 L21.179545,66.3624403 C21.9882579,65.8791866 23.0117421,65.8791866 23.820455,66.3624403 Z" id="Polygon-2-Copy-7" fill="#79CDC5" fill-rule="nonzero" transform="translate(22.500000, 71.500000) rotate(-15.000000) translate(-22.500000, -71.500000) "></path>
                        <path d="M137.293192,13.3570976 L139.841433,14.8890063 C140.561843,15.3220893 141,16.0848805 141,16.9059613 L141,19.0940387 C141,19.9151195 140.561843,20.6779108 139.841433,21.1109936 L137.293192,22.6429025 C136.501176,23.1190325 135.498824,23.1190325 134.70681,22.6429025 L132.158567,21.1109936 C131.438158,20.6779108 131,19.9151195 131,19.0940387 L131,16.9059613 C131,16.0848805 131.438158,15.3220893 132.158567,14.8890063 L134.70681,13.3570976 C135.498824,12.8809675 136.501176,12.8809675 137.293192,13.3570976 Z" id="Polygon-2-Copy-3" fill="#40A299" fill-rule="nonzero" transform="translate(136.000000, 18.000000) rotate(7.000000) translate(-136.000000, -18.000000) "></path>
                        <path d="M84.3119558,1.35763205 L87.8246224,3.44222908 C88.5554845,3.87596026 89,4.6398932 89,5.46220294 L89,8.53779709 C89,9.36010681 88.5554845,10.1240398 87.8246224,10.5577709 L84.3119558,12.6423679 C83.5084483,13.1192107 82.4915517,13.1192107 81.6880442,12.6423679 L78.1753776,10.5577709 C77.4445156,10.1240398 77,9.36010681 77,8.53779709 L77,5.46220294 C77,4.6398932 77.4445156,3.87596026 78.1753776,3.44222908 L81.6880442,1.35763205 C82.4915517,0.880789315 83.5084483,0.880789315 84.3119558,1.35763205 Z" id="Polygon-2-Copy-5" fill="#ECECEC" fill-rule="nonzero" transform="translate(83.000000, 7.000000) rotate(7.000000) translate(-83.000000, -7.000000) "></path>
                    </g>
                </g>
            </g>
        </g>
    </g>
</svg>