<?xml version="1.0" encoding="UTF-8"?>
<svg width="150px" height="144px" viewBox="0 0 150 144" version="1.1" xmlns="http://www.w3.org/2000/svg" xmlns:xlink="http://www.w3.org/1999/xlink">
    <!-- Generator: sketchtool 51.2 (57519) - http://www.bohemiancoding.com/sketch -->
    <title>A9791992-AF89-4233-B319-9447D08A495C</title>
    <desc>Created with sketchtool.</desc>
    <defs></defs>
    <g id="Page-1" stroke="none" stroke-width="1" fill="none" fill-rule="evenodd">
        <g id="Homepage---Sewagi-for-Property-Owner" transform="translate(-1078.000000, -330.000000)">
            <g id="how-swagi-works" transform="translate(0.000000, 165.000000)">
                <g id="illustrasi" transform="translate(196.000000, 164.000000)">
                    <g id="owner-4" transform="translate(881.000000, 0.000000)">
                        <path d="M85.2443444,104.109277 L108.074749,138.634444 C108.988635,140.016464 110.849834,140.395961 112.231854,139.482075 C112.798488,139.107378 113.221178,138.551462 113.430765,137.905284 L140.965037,53.0143091 L106.839332,53.0143091 L68.1358194,137.42452 C67.4452547,138.930603 65.6645199,139.591712 64.1584367,138.901147 C63.722472,138.70125 63.3407878,138.399741 63.0453877,138.021901 L36.532043,104.109277 L34.762991,138.870198 C34.6787794,140.524911 35.9519222,141.934587 37.6066349,142.018799 C37.6194976,142.019453 37.6323644,142.020025 37.6452344,142.020514 L82.1304653,143.710379 C83.7861254,143.773272 85.1792885,142.48208 85.2421822,140.82642 C85.2436236,140.788477 85.2443444,140.750511 85.2443444,140.712541 L85.2443444,104.109277 Z" id="Path-70" stroke="#30867E"></path>
                        <g id="Group-7" transform="translate(6.000000, 34.000000)">
                            <path d="M26,68.3936696 L65.0731416,68.3936696 C82.3888365,75 94.679407,76.6515826 101.944853,73.3484174 C105.808652,71.5917784 107.013066,73.858749 112.414216,63.105629 C116.828732,54.3167923 124.302327,39.7263389 134.835002,19.3342688 L134.835015,19.3342754 C135.240536,18.5491552 134.93281,17.5839496 134.14769,17.1784284 C133.920692,17.0611822 133.668917,17 133.413428,17 L100.690165,17.0000186 C100.020196,17.0000186 99.421172,17.4174367 99.1891736,18.0459548 C94.9600663,29.5032385 90.7015684,39.3521039 86.4136799,47.5925512 C79.7869521,60.3277709 69.9209037,73.3484174 48.8861551,73.3484174 C34.8629895,73.3484174 27.2342711,71.6968348 26,68.3936696 Z" id="Path-68" fill="#1D5060"></path>
                            <g id="Group-6">
                                <g id="Group-5" transform="translate(0.000000, 16.923995)">
                                    <path d="M15.119448,82.5370321 C27.2923181,58.7240129 35.1657897,45.5969207 38.7398627,43.1557557 C39.8752255,42.3802796 40.6203063,41.8861483 40.975105,41.6733617 C43.3028739,40.2773082 41.8821147,36.6220809 45.9067959,35.9506953 C47.2085365,35.7335427 50.4635306,35.6058839 52.7339659,35.9506953 C62.0240625,37.3615839 67.6712751,40.9355842 77.3978693,38.6687597 C87.1244635,36.4019353 91.9529221,37.4993575 94.0283148,39.5976407 C96.1037076,41.6959239 102.233584,49.804773 100.883891,53.2462583 C99.5341981,56.6877435 86.8455102,58.4566188 78.7802706,57.5721812 C70.7150311,56.6877435 50.1033411,49.8133062 48.8222484,49.8133062 C47.5411557,49.8133062 50.1957592,57.5268782 40.975105,64.3685173 C31.7544508,71.2101564 22.862627,84.3735889 21.7104499,84.3735889 C21.3087526,84.3735889 19.3157788,84.1473394 15.7315287,83.6948405 L15.7315349,83.6947917 C15.2932134,83.6394551 14.9827428,83.2392663 15.0380794,82.8009449 C15.0496969,82.7089219 15.0772301,82.6196204 15.119448,82.5370321 Z" id="Path-59" fill="#3C958C"></path>
                                    <path d="M96.7475673,13.9540328 C100.41718,13.5678398 104.374929,13.4681323 108.620815,13.6549102 C114.989645,13.935077 121.404468,14.1837772 123.308059,13.6549102 C124.577119,13.3023321 127.293797,12.2516434 131.458094,10.5028439 C125.607097,8.57067798 121.978126,7.41832261 120.571179,7.04577777 C118.46076,6.48696052 117.746541,6.52259744 117.1363,5.98918097 C116.729472,5.63357 117.420512,3.90581118 119.209419,0.80590454 C134.750599,4.5308474 142.938642,6.61080514 143.77355,7.04577777 C145.025912,7.69823672 143.975644,11.1641169 142.583245,13.6549102 C141.190847,16.1457035 122.007221,24.5587383 120.571179,25.846596 C119.135137,27.1344536 115.61552,36.4075678 111.43377,42.0613274 C109.122319,45.1864272 106.221746,50.6848318 101.550664,54.7730098 C100.908867,55.334717 99.6991601,55.5671429 97.9215431,55.4702877 C97.6558958,51.2676499 96.7899687,48.0308727 95.3237619,45.759956 C93.1244518,42.3535809 90.5424489,37.9755345 76.1220074,39.4591531 C74.8878675,39.5861251 73.5336547,39.7411378 73.062656,39.4591531 C72.2419287,38.9677875 72.3188478,37.5933452 73.062656,36.6803686 C73.9372233,35.6068936 78.3480331,35.6133615 80.9292684,33.5061917 C86.965653,28.5784395 90.4745435,26.6457052 90.4745435,24.9256551 C90.4745435,23.7789551 90.4745435,23.0023987 90.4745435,22.5959862 C86.1684854,15.276011 83.8035668,10.9985695 83.3797878,9.76366168 C82.7441192,7.91130002 87.5252886,4.74888205 93.9624291,3.02238696 C100.39957,1.29589187 103.868361,0.0103887668 104.544636,0.0103887668 C105.220912,0.0103887668 106.721853,2.01528516 105.414842,4.00223307 C104.543502,5.32686501 104.253433,5.98918097 104.544636,5.98918097 L92.5697538,9.76366168 L96.7475673,13.9540328 Z" id="Path-58" fill="#ECECEC"></path>
                                    <path d="M72.6432885,39.4107917 C57.5633756,29.411363 47.9783671,24.4116487 43.888263,24.4116487 C37.7531068,24.4116487 39.8152475,24.9734844 36.4316258,27.4004553 C33.0480041,29.8274261 34.2094165,74.8154997 34.2094165,76.8110091 C34.2094165,78.1413487 36.5492221,78.4160017 41.2288333,77.6349681 C45.1140637,63.2357182 47.0566789,53.1057506 47.0566789,47.2450654 C47.0566789,41.3843802 47.2293545,37.8417474 47.5747056,36.6171671 L49.6156156,36.6171671 C55.331654,37.4527475 59.6507248,38.1930962 62.5728281,38.8382132 C65.4949314,39.4833301 68.8517515,39.6741896 72.6432885,39.4107917 Z" id="Path-60" fill="#50ACA3"></path>
                                    <path d="M13.5118903,85.9124088 L21.3382677,85.9124088 C20.3280231,89.9817292 19.5126926,92.0163894 18.8922762,92.0163894 C18.2718597,92.0163894 16.4783978,92.0163894 13.5118903,92.0163894 L13.5118903,90.106621 C11.8253213,91.3798 10.4722618,92.0163894 9.45271185,92.0163894 C8.43316188,92.0163894 5.49133542,92.0163894 0.627232464,92.0163894 C-0.209077488,90.7432105 -0.209077488,90.106621 0.627232464,90.106621 C1.88169739,90.106621 6.92761375,89.0871553 8.1901628,87.499782 C9.03186217,86.4415332 9.93573791,85.9124088 10.90179,85.9124088 L12.4552485,87.499782 L13.5118903,85.9124088 Z" id="Path-61" fill="#EE9866"></path>
                                    <path d="M34.4576716,79.4890511 L31.2062346,85.8957583 L24.8775731,89.1975046 C24.6758908,89.9008802 25.1784461,90.5850243 26.385239,91.2499369 C27.155692,91.6744371 28.647201,91.5796861 30.2354161,91.2397504 C32.378733,90.7810027 34.6981694,89.8757283 35.6592518,89.1975046 C36.7747534,88.4103092 37.1200545,87.3097271 36.6951552,85.8957583 L38.8709326,86.6655216 C40.548834,85.5222471 41.6109414,84.4036376 42.0572547,83.3096931 C42.503568,82.2157486 42.503568,80.9422013 42.0572547,79.4890511 L39.8992284,79.4890511 C37.9772259,82.0361458 36.9092015,83.3096931 36.6951552,83.3096931 C36.4811089,83.3096931 36.9354525,82.0361458 38.0581859,79.4890511 L34.4576716,79.4890511 Z" id="Path-62" fill="#EE9866"></path>
                                </g>
                                <path d="" id="Path-63" stroke="#979797" stroke-width="0.5"></path>
                                <path d="M106.225446,27.1434787 C105.580642,27.0151398 105.018327,26.7650349 104.597158,26.3210299 C104.004826,25.6965812 103.717626,24.6477016 103.5858,23.46695 C103.499274,22.6919429 103.479686,21.8601229 103.484687,21.0542185 C103.490965,20.0425048 103.535996,19.0716333 103.535996,18.3052769 C103.535996,12.43684 107.38938,9.67085448 112.142771,9.67085448 C116.896162,9.67085448 120.749547,13.5366171 120.749547,18.3052769 C120.749547,21.9415587 118.508945,25.0528387 115.337232,26.3254194 L112.397351,31.3165846 C108.3368,32.5004098 105.443702,32.8571018 103.718057,32.3866605 C101.992411,31.9162191 101.992411,31.2767872 103.718057,30.4683647 L106.225446,27.1434787 Z" id="Combined-Shape" fill="#F4B895"></path>
                                <path d="M116.484765,16.5304813 C115.50135,18.0400857 115.009642,18.9669783 115.009642,19.3111588 C115.009642,19.6553394 115.255496,19.9166616 115.747204,20.0951256 C116.259318,19.0649017 116.896574,18.6766846 117.658971,18.9304743 C118.802566,19.3111588 117.222326,22.410522 116.484765,22.410522 C115.993057,22.410522 115.50135,22.410522 115.009642,22.410522 C114.517935,23.8917345 114.517935,24.9510265 115.009642,25.5883978 C115.50135,26.2257692 115.747204,26.4067441 115.747204,26.1313224 C118.815273,24.9230207 120.590444,23.548906 121.072718,22.0089781 C121.796128,19.6990862 122.426549,17.0473315 121.072718,13.7214117 C119.718886,10.3954919 118.850761,8.92287429 118.254866,6.92355612 C117.658971,4.92423796 112.605783,3.34210834 111.077235,5.3880705 C109.548687,7.43403266 107.130099,6.2572133 105.524157,5.8226419 C103.918214,5.3880705 101.24174,6.55909557 102.579977,8.64330002 C103.918214,10.7275045 102.824291,11.7982884 102.185784,11.7982884 C101.547276,11.7982884 102.841329,13.7214117 104.95698,13.7214117 C107.072631,13.7214117 108.146441,13.796158 110.045978,12.3985764 C111.312336,11.4668553 112.966891,11.9078004 115.009642,13.7214117 L116.484765,16.5304813 Z" id="Path-65" fill="#50ACA3"></path>
                                <path d="M105.235457,22.5653271 C106.907662,23.1137887 108.407752,23.1137887 109.735727,22.5653271" id="Path-64" stroke="#1D5060"></path>
                            </g>
                            <path d="M47.9735291,68 L79.3287655,68 C89.838289,70.4410881 96.6254305,71.6616321 99.6901901,71.6616321 C102.75495,71.6616321 105.422531,70.4410881 107.692934,68 C108.901114,68.3550716 109.271713,68.8665001 108.80473,69.5342857 C107.53097,71.3557608 104.482625,75 100.497411,75 C93.7998794,75 75.967409,74.6767358 47,74.0302075 L47.9735291,68 Z" id="Path-69" fill="#1D5060"></path>
                        </g>
                        <polyline id="Path-70" stroke="#3C958C" stroke-linecap="round" stroke-linejoin="round" points="85.2443444 110.576303 85.2443444 104.109277 89.7267594 110.887787"></polyline>
                        <path d="M36.3501788,22.7192616 C37.2928207,22.0938167 38.5894503,21.8762707 40.2400679,22.0666235 C41.8906854,22.2569762 43.1439961,22.8799568 44,23.9355652 L43.2685058,25.9043741 C41.9244933,25.392847 40.7600686,25.392847 39.7752319,25.9043741 C38.7903951,26.4159013 38.1197723,26.8876545 37.7633634,27.3196338 C36.1997297,26.0766398 35.2996286,25.2018799 35.0630603,24.695354 C34.826492,24.1888282 35.2555315,23.5301307 36.3501788,22.7192616 Z" id="Path-71" fill="#50ACA3"></path>
                        <path d="M1.78113421,92.7089512 C2.74593639,92.0688029 4.07304826,91.8461426 5.76246981,92.0409704 C7.45189135,92.2357981 8.73466586,92.8734242 9.61079333,93.9538487 L8.86210258,95.9689418 C7.48649396,95.4453893 6.29469512,95.4453893 5.28670604,95.9689418 C4.27871697,96.4924944 3.59232862,96.975338 3.22754101,97.4174726 C1.62714817,96.1452573 0.705886864,95.2499329 0.463757092,94.7314992 C0.22162732,94.2130655 0.660753025,93.5388828 1.78113421,92.7089512 Z" id="Path-71-Copy-5" fill="#50ACA3" transform="translate(5.005004, 94.695127) rotate(62.000000) translate(-5.005004, -94.695127) "></path>
                        <path d="M69.6094618,34.9464619 C70.8498654,34.1234516 72.5560745,33.8371871 74.7280892,34.0876685 C76.9001039,34.3381499 78.5493104,35.1579176 79.6757088,36.5469717 L78.7131502,39.137688 C76.9445909,38.4645796 75.4123478,38.4645796 74.1164207,39.137688 C72.8204937,39.8107964 71.9380345,40.431567 71.4690431,41 C69.4114887,39.364369 68.2270638,38.2132899 67.9157682,37.5467626 C67.6044726,36.8802353 68.1690372,36.0134684 69.6094618,34.9464619 Z" id="Path-71-Copy" fill="#50ACA3" transform="translate(73.754249, 37.500000) rotate(139.000000) translate(-73.754249, -37.500000) "></path>
                        <path d="M132.951734,135.251571 C134.192138,134.42856 135.898347,134.142296 138.070361,134.392777 C140.242376,134.643259 141.891583,135.463026 143.017981,136.85208 L142.055422,139.442797 C140.286863,138.769688 138.75462,138.769688 137.458693,139.442797 C136.162766,140.115905 135.280307,140.736676 134.811315,141.305109 C132.753761,139.669478 131.569336,138.518399 131.25804,137.851871 C130.946745,137.185344 131.511309,136.318577 132.951734,135.251571 Z" id="Path-71-Copy-4" fill="#50ACA3" transform="translate(137.096521, 137.805109) rotate(177.000000) translate(-137.096521, -137.805109) "></path>
                        <path d="M62.6617827,4.80713102 C63.9021863,3.98412064 65.6083954,3.69785616 67.7804101,3.94833758 C69.9524248,4.198819 71.6016314,5.01858672 72.7280298,6.40764075 L71.7654711,8.99835706 C69.9969119,8.32524869 68.4646687,8.32524869 67.1687417,8.99835706 C65.8728146,9.67146544 64.9903554,10.2922361 64.5213641,10.8606691 C62.4638097,9.2250381 61.2793847,8.07395897 60.9680891,7.40743168 C60.6567936,6.74090439 61.2213581,5.8741375 62.6617827,4.80713102 Z" id="Path-71-Copy-2" fill="#1D5060" transform="translate(66.806570, 7.360669) rotate(299.000000) translate(-66.806570, -7.360669) "></path>
                        <path d="M40.7892738,55.6861108 C41.6893941,55.088879 42.9275343,54.8811463 44.5036943,55.0629124 C46.0798544,55.2446786 47.2766296,55.8395572 48.0940201,56.8475483 L47.3955228,58.7275465 C46.1121371,58.2390937 45.0002384,58.2390937 44.0598265,58.7275465 C43.1194146,59.2159992 42.4790428,59.6664722 42.1387112,60.0789654 C40.6456112,58.8920415 39.7861127,58.056741 39.5602157,57.5730639 C39.3343187,57.0893869 39.7440047,56.4604025 40.7892738,55.6861108 Z" id="Path-71-Copy-3" fill="#1D5060" transform="translate(43.797010, 57.539130) rotate(-195.000000) translate(-43.797010, -57.539130) "></path>
                        <path d="M143.73564,108.018533 C144.63576,107.421301 145.873901,107.213568 147.450061,107.395334 C149.026221,107.577101 150.222996,108.171979 151.040386,109.17997 L150.341889,111.059968 C149.058503,110.571516 147.946605,110.571516 147.006193,111.059968 C146.065781,111.548421 145.425409,111.998894 145.085077,112.411387 C143.591977,111.224463 142.732479,110.389163 142.506582,109.905486 C142.280685,109.421809 142.690371,108.792824 143.73564,108.018533 Z" id="Path-71-Copy-7" fill="#1D5060" transform="translate(146.743376, 109.871552) rotate(108.000000) translate(-146.743376, -109.871552) "></path>
                        <path d="M16.7642555,60.192417 C18.0194814,59.3595719 19.7460791,59.0698867 21.9440486,59.3233613 C24.1420181,59.5768358 25.8109321,60.4063995 26.9507906,61.8120522 L25.9767297,64.4337267 C24.1870368,63.7525749 22.6364839,63.7525749 21.325071,64.4337267 C20.013658,65.1148785 19.1206538,65.7430671 18.6460582,66.3182927 C16.5639167,64.6631165 15.3653383,63.4982824 15.0503228,62.8237903 C14.7353074,62.1492983 15.3066183,61.2721738 16.7642555,60.192417 Z" id="Path-71-Copy-6" fill="#50ACA3" transform="translate(20.958571, 62.776469) rotate(-148.000000) translate(-20.958571, -62.776469) "></path>
                    </g>
                </g>
            </g>
        </g>
    </g>
</svg>