<?xml version="1.0" encoding="UTF-8"?>
<svg width="149px" height="113px" viewBox="0 0 149 113" version="1.1" xmlns="http://www.w3.org/2000/svg" xmlns:xlink="http://www.w3.org/1999/xlink">
    <!-- Generator: sketchtool 51.2 (57519) - http://www.bohemiancoding.com/sketch -->
    <title>052F1C85-B404-4159-813E-85CB7680DB42</title>
    <desc>Created with sketchtool.</desc>
    <defs></defs>
    <g id="Page-1" stroke="none" stroke-width="1" fill="none" fill-rule="evenodd">
        <g id="Homepage---Sewagi-for-Property-Owner" transform="translate(-502.000000, -357.000000)">
            <g id="how-swagi-works" transform="translate(0.000000, 165.000000)">
                <g id="illustrasi" transform="translate(196.000000, 164.000000)">
                    <g id="owner-2" transform="translate(306.000000, 28.000000)">
                        <g id="Group" transform="translate(23.000000, 0.000000)">
                            <rect id="Rectangle" fill="#ECECEC" x="0" y="0" width="90" height="81" rx="4"></rect>
                            <g id="Group-31" transform="translate(13.000000, 13.000000)">
                                <polygon id="Fill-1" fill="#50ACA3" points="37.3456325 6.66512308 15.2735992 6.66512308 24.7964239 16.2321846 37.3456325 16.2321846"></polygon>
                                <polygon id="Fill-2" fill="#50ACA3" points="10.1549361 6.66512308 2.26080333 6.66512308 2.26080333 16.2321846 17.4966033 16.2321846 10.1549361 9.13615385"></polygon>
                                <polygon id="Fill-3" fill="#50ACA3" points="15.5968183 6.66512308 9.74436833 6.66512308 9.74436833 9.13615385 16.7039933 16.2321846 24.9801683 16.2321846"></polygon>
                                <polygon id="Fill-4" fill="#EE9866" points="3.39913333 36.8291169 23.1309524 36.8291169 23.1309524 17.2697785 3.39913333 17.2697785"></polygon>
                                <polygon id="Fill-5" fill="#E09467" points="3.39913333 19.2996554 21.9419417 19.2996554 21.9419417 17.3210092 3.39913333 17.3210092"></polygon>
                                <polygon id="Fill-6" fill="#FFFFFF" points="48.53748 -0.000170769231 48.53748 9.88622923 54.38993 11.04746 54.38993 -0.000170769231"></polygon>
                                <polygon id="Fill-7" fill="#6DC7BE" points="47.7950083 3.73233231 55.1331833 3.73233231 55.1331833 -0.000113846154 47.7950083 -0.000113846154"></polygon>
                                <polygon id="Fill-8" fill="#CBCBCB" points="54.3900975 3.73250308 48.5376475 3.73250308 50.0507308 5.27454923 54.3900975 5.27454923"></polygon>
                                <polygon id="Fill-9" fill="#FFFFFF" points="9.74403333 9.13604 15.5964833 9.13604 15.5964833 -0.000113846154 9.74403333 -0.000113846154"></polygon>
                                <polygon id="Fill-10" fill="#6DC7BE" points="9.00145 3.73233231 16.339625 3.73233231 16.339625 -0.000113846154 9.00145 -0.000113846154"></polygon>
                                <polygon id="Fill-11" fill="#CBCBCB" points="15.5968183 3.73250308 9.74436833 3.73250308 11.2568933 5.27454923 15.5968183 5.27454923"></polygon>
                                <polygon id="Fill-12" fill="#F4B895" points="21.9416625 18.4661049 21.9416625 36.9928846 63.2108708 36.9928846 63.2108708 18.4661049 42.5765458 5.52364462"></polygon>
                                <polygon id="Fill-13" fill="#F4B895" points="42.5767692 5.13195692 21.9418858 17.5218338 21.9418858 19.2995415 42.5767692 6.93869538 63.2110942 19.2995415 63.2110942 17.5218338"></polygon>
                                <polygon id="Fill-14" fill="#FFFFFF" points="18.5433667 36.9930554 66.6108417 36.9930554 66.6108417 33.5275785 18.5433667 33.5275785"></polygon>
                                <polygon id="Fill-15" fill="#FFFFFF" points="0 36.9930554 18.5433667 36.9930554 18.5433667 33.5275785 0 33.5275785"></polygon>
                                <polygon id="Fill-16" fill="#ECECEC" points="38.2877083 33.5281477 46.8670583 33.5281477 46.8670583 22.47084 38.2877083 22.47084"></polygon>
                                <polygon id="Fill-17" fill="#EE9866" points="38.2877083 18.9063169 46.8670583 18.9063169 46.8670583 15.2769015 38.2877083 15.2769015"></polygon>
                                <polygon id="Fill-20" fill="#EE9866" points="28.03615 29.2116708 32.7300583 29.2116708 32.7300583 24.4261477 28.03615 24.4261477"></polygon>
                                <polygon id="Fill-21" fill="#EE9866" points="52.42415 29.2116708 57.1186167 29.2116708 57.1186167 24.4261477 52.42415 24.4261477"></polygon>
                                <polygon id="Fill-22" fill="#6DC7BE" points="13.5595238 36.823291 16.1496321 36.823291 16.1496321 28.9565217 13.5595238 28.9565217"></polygon>
                                <polygon id="Fill-23" fill="#50ACA3" points="15.952381 36.823291 18.5424893 36.823291 18.5424893 28.9565217 15.952381 28.9565217"></polygon>
                                <polygon id="Fill-24" fill="#CBCBCB" points="46.8666675 36.9930554 50.2652425 36.9930554 46.8666675 33.5275785"></polygon>
                                <polygon id="Fill-25" fill="#FFFFFF" points="42.5767692 3.05546 20.5047358 16.2320138 20.5047358 18.41046 42.5767692 5.23390615"></polygon>
                                <polygon id="Fill-26" fill="#FFFFFF" points="42.5767692 3.05568769 42.5767692 5.23356462 64.6493608 18.4106877 64.6493608 16.2322415"></polygon>
                                <polygon id="Fill-27" fill="#FFFFFF" points="38.2877083 35.2608862 46.8670583 35.2608862 46.8670583 33.5281477 38.2877083 33.5281477"></polygon>
                                <polygon id="Fill-28" fill="#50ACA3" points="38.2877083 36.9930554 46.8670583 36.9930554 46.8670583 35.2597477 38.2877083 35.2597477"></polygon>
                                <polygon id="Fill-29" fill="#FFFFFF" points="2.26069167 18.4105169 20.5047917 18.4105169 20.5047917 16.2315015 2.26069167 16.2315015"></polygon>
                                <polygon id="Fill-30" fill="#CBCBCB" points="46.8662208 22.4707262 39.4336875 22.4707262 38.2868708 22.4707262 38.2868708 23.6399262 38.2868708 33.5274646 39.4336875 33.5274646 39.4336875 23.6399262 46.8662208 23.6399262"></polygon>
                            </g>
                            <path d="M95.4220858,87.1493019 L124.422086,87.1493019 L124.422086,103.149302 L95.4220858,103.149302 C91.2680183,98.7754233 89.1909845,96.1087566 89.1909845,95.1493019 C89.1909845,94.1898472 91.2680183,91.5231806 95.4220858,87.1493019 Z M100.379779,97.1493019 C101.484348,97.1493019 102.379779,96.2538714 102.379779,95.1493019 C102.379779,94.0447324 101.484348,93.1493019 100.379779,93.1493019 C99.2752095,93.1493019 98.379779,94.0447324 98.379779,95.1493019 C98.379779,96.2538714 99.2752095,97.1493019 100.379779,97.1493019 Z" id="Combined-Shape" fill="#1D5060" transform="translate(106.806535, 95.149302) rotate(38.000000) translate(-106.806535, -95.149302) "></path>
                            <path d="M81.7255467,81.5732221 C82.4380254,85.0377759 85.7807949,89.2945243 90.0806104,90.5057806 C90.8175259,90.7133694 91.52085,90.8889187 92.1905828,91.0324284 M100.173928,90.5057806 C102.0153,88.8678118 101.282704,87.329817 97.9761381,85.8917963 C89.9651584,82.4078323 89.7946326,75.7336738 84.2923564,76.8396764" id="Path-79" stroke="#50ACA3" stroke-linecap="round" stroke-linejoin="round"></path>
                            <path d="M21,60 L73.2167182,60" id="Path-46" stroke="#F4B895" stroke-width="2"></path>
                            <path d="M34,68.25 L59.5,68.25" id="Path-46-Copy" stroke="#F4B895" stroke-width="2"></path>
                        </g>
                        <path d="M17.4248403,62.7534775 C13.8445838,67.1795027 11.7671153,72.5479599 11.1924347,78.858849 C10.7879655,83.3005518 11.021097,86.9666403 11.8918291,89.8571145 L11.8918152,89.8571187 C12.3697184,91.4435616 14.0432015,92.3422107 15.6296445,91.8643075 C15.7491466,91.8283084 15.8662858,91.7848872 15.9803792,91.7342969 C19.2468418,90.2859102 22.7138063,89.5617169 26.3812726,89.5617169 C30.1399318,89.5617169 34.1890694,90.1401054 38.5286855,91.2968825 L38.5286843,91.2968869 C40.1296389,91.7236407 41.7734213,90.7717628 42.2001751,89.1708083 C42.2331245,89.0471993 42.2581339,88.9216094 42.2750501,88.7948077 C44.3005579,73.6118275 42.0816186,64.9313841 35.6182321,62.7534775 C28.6798245,60.4155075 22.6153605,60.4155075 17.4248403,62.7534775 Z" id="Path-50" fill="#1D5060"></path>
                        <rect id="Rectangle-23" fill="#F4B895" x="20" y="84" width="14" height="18"></rect>
                        <path d="M27.4514519,91 C30.7209278,91 39,84.2842712 39,76 C39,67.7157288 34.2086402,61 27.4514519,61 C20.6942636,61 16,67.7157288 16,76 C16,84.2842712 24.181976,91 27.4514519,91 Z" id="Oval-6" fill="#F9CEB5"></path>
                        <path d="M38,64.1665848 C33.3150867,69.1502724 29.1663554,72.3883126 25.5538061,73.8807054 C21.9412569,75.3730982 17.4513753,75.3730982 12.0841614,73.8807054 C11.6172189,68.4259342 13.0932859,64.0446684 16.5123624,60.7369078 C21.6409771,55.775267 30.1537798,56.6356541 33.0844168,58.314596 C35.0381748,59.4338906 36.6767025,61.3845535 38,64.1665848 Z" id="Path-47" fill="#1D5060"></path>
                        <path d="M19.3315134,92.4181677 C19.7645063,92.3555268 20.0260747,92.3555268 20.1162185,92.4181677 C20.6748288,92.8063457 21.4674332,93.5864337 22.5180675,94.1172309 C23.8230157,94.7765115 24.8921096,95.08942 25.7253492,95.0559565 L28.5,100.392771 L30.3352375,95.0559565 C31.527522,94.5161736 32.2978203,94.1143653 32.6461323,93.8505318 C33.7969943,92.978796 33.9847193,92.2672124 33.9847193,92.1393892 C33.9847193,91.9535369 34.3257865,91.9535369 35.007921,92.1393892 L35.8939441,95.9880341 L47.5880556,99.2870607 C51.9266143,100.511012 55.2132276,104.063213 56.097021,108.483627 L57,113 L0,113 L0.519544959,108.96072 C1.12089176,104.285459 4.40373725,100.395289 8.91133938,99.0164484 L18.8116013,95.9880341 L19.3315134,92.4181677 Z" id="Path-82" fill="#50ACA3"></path>
                        <path d="M36.1928358,66 C35.7704176,69.3485944 36.0419984,71.7578815 37.0075783,73.2278614 C37.9731583,74.6978414 38.9521338,75.9552209 39.9445048,77 C41,74.514508 41.2638738,72.4208082 40.7361262,70.7189006 C40.2083786,69.016993 38.6939485,67.4440261 36.1928358,66 Z" id="Path-84" fill="#1D5060"></path>
                        <path d="M23,100.861913 C24.5392832,97.6206376 25.3089249,96 25.3089249,96 C25.3089249,96 26.2059499,97.6206376 28,100.861913 L28,113" id="Path-85" stroke="#1D5060" stroke-linecap="round" stroke-linejoin="round"></path>
                        <path d="M37,109.25 L44,109.25" id="Path-86" stroke="#1D5060"></path>
                    </g>
                </g>
            </g>
        </g>
    </g>
</svg>