<?xml version="1.0" encoding="UTF-8"?>
<svg width="184px" height="104px" viewBox="0 0 184 104" version="1.1" xmlns="http://www.w3.org/2000/svg" xmlns:xlink="http://www.w3.org/1999/xlink">
    <!-- Generator: sketchtool 51.2 (57519) - http://www.bohemiancoding.com/sketch -->
    <title>F9C74FE7-444C-4DB4-9EE7-CF2CA9B9968B</title>
    <desc>Created with sketchtool.</desc>
    <defs></defs>
    <g id="Page-1" stroke="none" stroke-width="1" fill="none" fill-rule="evenodd">
        <g id="Homepage---Sewagi-for-Property-Owner" transform="translate(-197.000000, -365.000000)">
            <g id="how-swagi-works" transform="translate(0.000000, 165.000000)">
                <g id="illustrasi" transform="translate(196.000000, 164.000000)">
                    <g id="owner-1" transform="translate(0.000000, 36.000000)">
                        <rect id="Rectangle-33" fill="#1D5060" x="18" y="0" width="151" height="99" rx="4"></rect>
                        <path d="M3.82494275,95 L182.291805,95 C183.788466,95 185.00175,96.2132835 185.00175,97.7099446 C185.00175,98.368896 184.761652,99.0052714 184.326382,99.5 L181.561818,102.642202 C180.802414,103.50534 179.708343,104 178.558691,104 L6.87085729,104 C5.59654356,104 4.39848417,103.392823 3.64500309,102.365135 L1.54434017,99.5 C0.62086779,98.240458 0.893306073,96.4707751 2.1528481,95.5473028 C2.63783988,95.191716 3.22356185,95 3.82494275,95 Z" id="Rectangle-33" fill="#1D5060"></path>
                        <rect id="Rectangle-33" fill="#FFFFFF" x="22" y="4" width="143" height="90" rx="1"></rect>
                        <path d="M112,39 L146,39" id="Path-83" stroke="#1D5060" stroke-width="2" stroke-linejoin="round"></path>
                        <path d="M112,49.3333333 L133,49.3333333" id="Path-83-Copy" stroke="#1D5060" stroke-width="2" stroke-linejoin="round"></path>
                        <path d="M112,59.8888889 L142.6,59.8888889" id="Path-83-Copy-2" stroke="#1D5060" stroke-width="2" stroke-linejoin="round"></path>
                        <g id="Group-31" transform="translate(33.000000, 37.000000)">
                            <polygon id="Fill-1" fill="#50ACA3" points="37.3456325 6.66512308 15.2735992 6.66512308 24.7964239 16.2321846 37.3456325 16.2321846"></polygon>
                            <polygon id="Fill-2" fill="#50ACA3" points="10.1549361 6.66512308 2.26080333 6.66512308 2.26080333 16.2321846 17.4966033 16.2321846 10.1549361 9.13615385"></polygon>
                            <polygon id="Fill-3" fill="#1D5060" points="15.5968183 6.66512308 9.74436833 6.66512308 9.74436833 9.13615385 16.7039933 16.2321846 24.9801683 16.2321846"></polygon>
                            <polygon id="Fill-4" fill="#EE9866" points="3.39913333 36.8291169 23.1309524 36.8291169 23.1309524 17.2697785 3.39913333 17.2697785"></polygon>
                            <polygon id="Fill-5" fill="#E09467" points="3.39913333 19.2996554 21.9419417 19.2996554 21.9419417 17.3210092 3.39913333 17.3210092"></polygon>
                            <polygon id="Fill-6" fill="#ECECEC" points="48.53748 -0.000170769231 48.53748 9.88622923 54.38993 11.04746 54.38993 -0.000170769231"></polygon>
                            <polygon id="Fill-7" fill="#6DC7BE" points="47.7950083 3.73233231 55.1331833 3.73233231 55.1331833 -0.000113846154 47.7950083 -0.000113846154"></polygon>
                            <polygon id="Fill-8" fill="#CBCBCB" points="54.3900975 3.73250308 48.5376475 3.73250308 50.0507308 5.27454923 54.3900975 5.27454923"></polygon>
                            <polygon id="Fill-9" fill="#ECECEC" points="9.74403333 9.13604 15.5964833 9.13604 15.5964833 -0.000113846154 9.74403333 -0.000113846154"></polygon>
                            <polygon id="Fill-10" fill="#6DC7BE" points="9.00145 3.73233231 16.339625 3.73233231 16.339625 -0.000113846154 9.00145 -0.000113846154"></polygon>
                            <polygon id="Fill-11" fill="#CBCBCB" points="15.5968183 3.73250308 9.74436833 3.73250308 11.2568933 5.27454923 15.5968183 5.27454923"></polygon>
                            <polygon id="Fill-12" fill="#F4B895" points="21.9416625 18.4661049 21.9416625 36.9928846 63.2108708 36.9928846 63.2108708 18.4661049 42.5765458 5.52364462"></polygon>
                            <polygon id="Fill-13" fill="#F4B895" points="42.5767692 5.13195692 21.9418858 17.5218338 21.9418858 19.2995415 42.5767692 6.93869538 63.2110942 19.2995415 63.2110942 17.5218338"></polygon>
                            <polygon id="Fill-14" fill="#ECECEC" points="18.5433667 36.9930554 66.6108417 36.9930554 66.6108417 33.5275785 18.5433667 33.5275785"></polygon>
                            <polygon id="Fill-15" fill="#CBCBCB" points="0 36.9930554 18.5433667 36.9930554 18.5433667 33.5275785 0 33.5275785"></polygon>
                            <polygon id="Fill-16" fill="#ECECEC" points="38.2877083 33.5281477 46.8670583 33.5281477 46.8670583 22.47084 38.2877083 22.47084"></polygon>
                            <polygon id="Fill-17" fill="#1D5060" points="38.2877083 18.9063169 46.8670583 18.9063169 46.8670583 15.2769015 38.2877083 15.2769015"></polygon>
                            <polygon id="Fill-18" fill="#1D5060" points="28.03615 22.8909323 32.7300583 22.8909323 32.7300583 18.10484 28.03615 18.10484"></polygon>
                            <polygon id="Fill-19" fill="#EE9866" points="52.42415 22.8909323 57.1186167 22.8909323 57.1186167 18.10484 52.42415 18.10484"></polygon>
                            <polygon id="Fill-20" fill="#EE9866" points="28.03615 29.2116708 32.7300583 29.2116708 32.7300583 24.4261477 28.03615 24.4261477"></polygon>
                            <polygon id="Fill-21" fill="#1D5060" points="52.42415 29.2116708 57.1186167 29.2116708 57.1186167 24.4261477 52.42415 24.4261477"></polygon>
                            <polygon id="Fill-22" fill="#6DC7BE" points="13.5595238 36.823291 16.1496321 36.823291 16.1496321 28.9565217 13.5595238 28.9565217"></polygon>
                            <polygon id="Fill-23" fill="#50ACA3" points="15.952381 36.823291 18.5424893 36.823291 18.5424893 28.9565217 15.952381 28.9565217"></polygon>
                            <polygon id="Fill-24" fill="#CBCBCB" points="46.8666675 36.9930554 50.2652425 36.9930554 46.8666675 33.5275785"></polygon>
                            <polygon id="Fill-25" fill="#ECECEC" points="42.5767692 3.05546 20.5047358 16.2320138 20.5047358 18.41046 42.5767692 5.23390615"></polygon>
                            <polygon id="Fill-26" fill="#ECECEC" points="42.5767692 3.05568769 42.5767692 5.23356462 64.6493608 18.4106877 64.6493608 16.2322415"></polygon>
                            <polygon id="Fill-27" fill="#E3E3E3" points="38.2877083 35.2608862 46.8670583 35.2608862 46.8670583 33.5281477 38.2877083 33.5281477"></polygon>
                            <polygon id="Fill-28" fill="#50ACA3" points="38.2877083 36.9930554 46.8670583 36.9930554 46.8670583 35.2597477 38.2877083 35.2597477"></polygon>
                            <polygon id="Fill-29" fill="#ECECEC" points="2.26069167 18.4105169 20.5047917 18.4105169 20.5047917 16.2315015 2.26069167 16.2315015"></polygon>
                            <polygon id="Fill-30" fill="#CBCBCB" points="46.8662208 22.4707262 39.4336875 22.4707262 38.2868708 22.4707262 38.2868708 23.6399262 38.2868708 33.5274646 39.4336875 33.5274646 39.4336875 23.6399262 46.8662208 23.6399262"></polygon>
                        </g>
                        <rect id="Rectangle-22" fill="#50ACA3" x="29" y="9" width="34" height="9" rx="2"></rect>
                    </g>
                </g>
            </g>
        </g>
    </g>
</svg>