<?xml version="1.0" encoding="UTF-8"?>
<svg width="184px" height="108px" viewBox="0 0 184 108" version="1.1" xmlns="http://www.w3.org/2000/svg" xmlns:xlink="http://www.w3.org/1999/xlink">
    <!-- Generator: sketchtool 51.2 (57519) - http://www.bohemiancoding.com/sketch -->
    <title>A3A19F9A-59D7-4DB7-907C-1DEB9C456C64</title>
    <desc>Created with sketchtool.</desc>
    <defs></defs>
    <g id="Page-1" stroke="none" stroke-width="1" fill="none" fill-rule="evenodd">
        <g id="Homepage---Sewagi-for-Property-Owner" transform="translate(-772.000000, -364.000000)">
            <g id="how-swagi-works" transform="translate(0.000000, 165.000000)">
                <g id="illustrasi" transform="translate(196.000000, 164.000000)">
                    <g id="owner-3" transform="translate(575.000000, 35.000000)">
                        <rect id="Rectangle-33" fill="#1D5060" x="18" y="0" width="151" height="99" rx="4"></rect>
                        <path d="M3.82494275,95 L182.291805,95 C183.788466,95 185.00175,96.2132835 185.00175,97.7099446 C185.00175,98.368896 184.761652,99.0052714 184.326382,99.5 L181.561818,102.642202 C180.802414,103.50534 179.708343,104 178.558691,104 L6.87085729,104 C5.59654356,104 4.39848417,103.392823 3.64500309,102.365135 L1.54434017,99.5 C0.62086779,98.240458 0.893306073,96.4707751 2.1528481,95.5473028 C2.63783988,95.191716 3.22356185,95 3.82494275,95 Z" id="Rectangle-33" fill="#1D5060"></path>
                        <rect id="Rectangle-33" fill="#FFFFFF" x="22" y="4" width="143" height="90" rx="1"></rect>
                        <rect id="Rectangle-2" fill="#ECECEC" x="29" y="29" width="131" height="58"></rect>
                        <path d="M41,50.5 L87,50.5" id="Path-83" stroke="#1D5060" stroke-width="2" stroke-linejoin="round"></path>
                        <path d="M41,59.6666667 L70,59.6666667" id="Path-83-Copy" stroke="#1D5060" stroke-width="2" stroke-linejoin="round"></path>
                        <rect id="Rectangle-22" fill="#50ACA3" x="29" y="9" width="34" height="9" rx="2"></rect>
                        <rect id="Rectangle-22-Copy-3" fill="#F4B895" x="41" y="68" width="34" height="9" rx="2"></rect>
                        <path d="M114.146109,80.6568329 C119.360448,76.2463711 121.320247,71.8844682 120.025507,67.571124 C118.083396,61.1011078 108.850448,78.65321 118.838738,73.112167 C128.827028,67.571124 126.549287,63.471606 125.312208,73.3871291 C124.487489,79.9974779 126.599368,77.0873792 131.647843,64.6568329 L131.647843,72.6568329 C130.809587,75.1961074 132.184165,74.801525 135.771578,71.4730857 C139.358991,68.1446463 142.817168,66.5231602 146.146109,66.6086273" id="Path-3" stroke="#1D5060" transform="translate(130.146109, 72.656833) rotate(10.000000) translate(-130.146109, -72.656833) "></path>
                        <g id="Group-2" transform="translate(14.000000, 33.000000)">
                            <rect id="Rectangle-5" fill="#3C958C" x="0" y="7.10542736e-15" width="44" height="75" rx="4"></rect>
                            <rect id="Rectangle-5" fill="#FFFFFF" x="3" y="6" width="38" height="58"></rect>
                            <path d="M8,23.5 L36,23.5" id="Path-83" stroke="#1D5060" stroke-width="2" stroke-linejoin="round"></path>
                            <path d="M8,31.3333333 L26,31.3333333" id="Path-83-Copy" stroke="#1D5060" stroke-width="2" stroke-linejoin="round"></path>
                            <path d="M8.97300341,56.6457083 C13.2184512,52.9282305 14.8140946,49.2516818 13.7599337,45.6160623 C12.1786924,40.162633 4.66134328,54.9569002 12.7936819,50.2864813 C20.9260206,45.6160623 19.071513,42.1606719 18.0642993,50.5182406 C17.3928235,56.089953 19.1122878,53.637097 23.2226922,43.1596726 L23.2226922,49.9026905 C22.5401947,52.0429871 23.659359,51.7104026 26.5801852,48.9049369 C29.5010113,46.0994712 32.3166151,44.7327575 35.0269966,44.8047957" id="Path-3-Copy" stroke="#1D5060" transform="translate(22.000000, 49.902690) rotate(10.000000) translate(-22.000000, -49.902690) "></path>
                            <circle id="Oval-2" fill="#ECECEC" cx="22" cy="69" r="3"></circle>
                        </g>
                    </g>
                </g>
            </g>
        </g>
    </g>
</svg>